<svg xmlns="http://www.w3.org/2000/svg" width="390" height="390" viewBox="0 0 390 390"><path d="M195,0h1.736l.189,0h1.7l.1,0,.082,0h.074l.081,0,.079,0,.077,0,.075,0,.078,0,.079,0,.077,0,.076,0,.078,0,.076,0,.077,0,.075,0,.078,0,.077,0,.078,0,.076,0,.077,0,.077,0,.077,0,.076,0,.111,0,.078,0,.076,0,.077,0,.078,0,.076,0,.077,0,.077,0,.077,0,.077,0,.078,0,.076,0,.076,0,.076,0,.076,0,.077,0,.077,0,.077,0,.077,0,.077,0,.076,0,.077,0,.076,0,.154.006.076,0,.076,0,.077,0,.077,0,.077,0,.076,0,.076,0,.076,0,.077,0,.076,0,.078,0,.077,0,.077,0,.076,0,.074,0,.076,0,.075,0,.076,0,.075,0,.078,0,.086,0,.081,0,.1,0,.075,0,.078,0,.075,0,.077,0,.076,0,.077,0,.075,0,.077,0,.075,0,.076,0,.075,0,.078,0,.077,0,.078,0,.074,0,.077,0,.076,0,.078,0,.073,0,.076,0,.08,0,.037,0,.048,0,.066,0,.078,0,.071,0,.077,0,.078,0,.078,0,.073,0,.077,0,.076,0,.078,0,.074,0,.077,0,.077,0,.077,0,.074,0,.078,0,.076,0,.077,0,.075,0,.077,0,.076,0,.077,0h.022l.053,0,.026,0,.248.016.028,0,.046,0,.029,0,.045,0,.076.005.072,0,.076.005.076.005.036,0,.04,0,.035,0,.041,0,.075.005.077.005.076.005.076.005.035,0,.04,0,.035,0,.042,0L209.01.5l.075.005.075.005.076.005.076.005.076.006.076.006.032,0,.169.013.024,0,.048,0,.028,0,.046,0,.03,0,.049,0,.025,0,.049,0,.027,0,.048,0,.027,0,.046,0,.031,0,.045,0,.03,0,.044,0,.032,0,.044,0,.032,0,.041,0,.035,0,.041,0,.034,0,.041,0,.035,0,.043,0,.031,0,.044,0,.031,0,.046,0,.029,0,.045,0,.03,0,.047,0,.025,0,.05,0,.025,0,.051,0,.02,0,.055,0,.019,0,.249.021.032,0,.045,0,.029,0,.044,0,.033,0,.042,0,.032,0,.04,0,.038,0,.038,0,.035,0,.042,0,.035,0,.04,0,.034,0,.042,0,.034,0,.042,0,.031,0,.044,0,.033,0,.042,0,.032,0,.042,0,.034,0,.043,0,.029,0,.046,0,.03,0,.045,0,.03,0,.044,0,.032,0,.044,0,.028,0,.047,0,.028,0,.049,0,.023,0,.051,0,.027,0,.049,0h0l.207.019h.012l.052,0,.024,0,.048,0,.027,0,.047,0,.028,0,.042,0,.035,0,.042,0,.032,0,.044,0,.03,0,.046,0,.03,0,.043,0,.033,0,.043,0,.032,0,.043,0,.032,0,.043,0,.032,0,.04,0,.036,0,.041,0,.032,0,.044,0,.03,0,.046,0,.028,0,.046,0,.029,0,.046,0,.028,0,.046,0,.028,0,.048,0,.025,0,.05,0,.022,0,.337.034h.013l.051.005.024,0,.05.005.024,0,.046,0,.03,0,.043,0,.032,0,.045,0,.029,0,.048.005.025,0,.049.005.027,0,.047.005.027,0,.047,0,.029,0,.045,0,.03,0,.045,0,.03,0,.045,0,.028,0,.047.005.025,0,.051.005.022,0,.052.006.026,0,.048.005.027,0,.048.005.027,0,.048.005.026,0,.049.005.024,0,.052.006h.01l.284.031h0l.059.007.016,0,.051.006.025,0,.047.005.028,0,.047.005.028,0,.047.005.028,0,.048.005.026,0,.049.006.025,0,.05.006.024,0,.05.006.024,0,.049.006.026,0,.047.005.028,0,.048.006.025,0,.049.006.025,0,.051.006.023,0,.052.006.021,0,.054.006.018,0,.056.007.019,0,.055.007.019,0,.055.007.019,0,.057.007h0l.427.051.013,0,.054.007.021,0,.055.007.018,0,.054.007.021,0,.051.006.023,0,.05.006.024,0,.053.007.02,0,.055.007.02,0,.052.007.023,0,.05.006.025,0,.051.006.021,0,.054.007.02,0,.054.007.021,0,.052.007.022,0,.054.007.017,0,.058.007.016,0,.057.007.019,0,.055.007.016,0,.059.008h0l.434.056h0l.064.008h.011l.06.008.014,0,.058.008.016,0,.057.008.017,0,.053.007.022,0,.053.007.02,0,.054.007.02,0,.054.007.022,0,.05.007.025,0,.051.007.022,0,.052.007.02,0,.054.007.019,0,.054.007.019,0,.056.008.015,0,.058.008.015,0,.059.008h.01l.063.009h.011l.569.079h.006l.067.009h.006l.061.009.015,0,.058.008.015,0,.055.008.021,0,.053.007.02,0,.053.007.022,0,.052.007.02,0,.053.008.022,0,.052.007L223,2l.053.008.022,0,.052.008.02,0,.054.008.021,0,.054.008.016,0,.058.008.013,0,.06.009.011,0,.063.009.011,0,.064.009h0l.506.075h0l.067.01h.007l.061.009.013,0,.06.009.013,0,.059.009.015,0,.059.009.015,0,.058.009.015,0,.06.009.013,0,.059.009.015,0,.06.009.012,0,.06.009.014,0,.059.009.013,0,.06.009.012,0,.063.01h.007l.065.01h.009l.065.01h0l.07.011h0l.575.09h0l.138.022h.009l.064.01h.009l.06.01.015,0,.059.009.013,0,.058.009.017,0,.055.009.018,0,.053.009.022,0,.052.008.018,0,.055.009.019,0,.054.009.019,0,.054.009.021,0,.053.009.017,0,.057.009.014,0,.059.01.014,0,.059.01.013,0,.061.01h0l.5.084h0l.067.011h.006l.064.011.01,0,.06.01.013,0,.055.009.02,0,.053.009.02,0,.053.009.019,0,.053.009.021,0,.049.008.026,0,.049.008.022,0,.051.009.021,0,.054.009.018,0,.053.009.022,0,.053.009.019,0,.053.009.02,0,.056.01.012,0,.059.01.015,0,.059.01h.005l.067.012h0l.571.1h0l.071.013h0l.066.012h.008l.063.011.009,0,.06.011.014,0,.058.011.014,0,.057.01.017,0,.057.01.013,0,.059.011.014,0,.059.011.012,0,.059.011.015,0,.059.011.01,0,.062.011.012,0,.062.011h.008l.064.012.009,0,.782.145h0l.068.013h.005l.067.013h.005l.063.012.011,0,.061.012.011,0,.059.011.015,0,.06.011.009,0,.062.012.01,0,.063.012h.008l.064.012h.007l.139.027h0l.142.027h0l.715.139h0l.139.027h0l.137.027h.007l.065.013h.007l.062.012.012,0,.062.012h.007l.063.013.01,0,.063.013.008,0,.063.013.009,0,.064.013h.007l.065.013h.006l.066.013h.006l.067.013h0l.924.189h0l.069.014h0l.068.014h0l.064.013.01,0,.063.013.007,0,.064.013h.007l.065.014h.006l.066.014h.006l.067.014h0l.07.015h0c.427.09.85.181,1.276.274h0l.067.015h0l.067.015h0l.067.015h0l.067.015h.006l.066.014h0l.068.015h0l.068.015h0l.068.015h0l.988.221h0l.067.015h0l.065.015.007,0,.066.015h0l.066.015h.005l.067.015h0l.068.016h0l.068.016h0l.07.016h0q.566.13,1.129.263h0l.07.017h0l.068.016h0l.069.016h0l.07.017h0l.07.017h0l.068.016h0l.28.067h0c.352.085.7.17,1.054.256h0l.066.016.007,0,.066.016h0l.066.016h0l.068.017h0l.069.017h0q1.686.418,3.358.865h0q.767.2,1.531.416h0q.9.249,1.8.507h0q.831.238,1.658.483h0q8.418,2.492,16.506,5.708h0q.762.3,1.519.611h0l.064.026h0q3.958,1.613,7.825,3.391l0,0,.061.028,0,0,.06.027.006,0,.06.028,0,0,.062.028h0c.43.2.856.4,1.284.6h0l.128.06h0l.128.06h0q.641.3,1.279.61h0q.7.338,1.4.681h0l.06.03,0,0,.056.028.009,0,.056.028.006,0,.058.028.006,0,.059.029h0l.06.03,0,0,.061.03h0l.063.031h0c.339.168.672.333,1.009.5l.006,0,.059.03,0,0,.056.028.01,0,.057.029,0,0,.059.03.005,0,.123.062h0l.125.063h0c.337.17.671.341,1.007.513h0l.06.031,0,0,.057.029.008,0,.055.028.009,0,.053.027.012.006.052.027.011.006.052.027.011.006.053.027.01,0,.053.027.011.006.054.028.007,0,.055.028.011.006.054.028,0,0,.685.357,0,0,.062.032h0l.057.03.008,0,.053.028.01.005.051.027.014.007.052.027.01.005.053.028.011.006.052.028.01.005.054.028.009,0,.056.029,0,0,.059.031h0l.06.031,0,0,.059.031,0,0,.745.4h0l.061.033h0l.123.066h0l.056.03.009,0,.054.029.009,0,.054.029.008,0,.054.029.009,0,.052.028.011.006.053.029.007,0,.057.03,0,0,.058.031,0,0,.058.031.007,0,.74.4h0l.06.033h0l.057.031.007,0,.056.03.006,0,.052.028.014.008.048.027.013.007.049.027.014.008.05.027.011.006.052.028.012.006.052.028.009.005.053.029.01.005.053.029.007,0,.055.03.007,0,.057.031h0l.738.409h0l.058.032,0,0,.056.031.007,0,.054.03.009,0,.055.031.007,0,.054.03.009.005.053.03.009.005.051.029.012.007.051.029.01.006.051.029.012.007.05.028.012.007.05.028.013.008.051.029.005,0L290.6,25l.007,0,.606.343,0,0,.056.032.006,0,.053.03.009.005.051.029.012.007.047.027.017.01.048.027.012.007.051.029.012.007.049.028.013.008.047.027.015.009.048.028.011.006.051.029.011.006.05.029.011.007.051.029.011.006.053.03,0,0,.058.033h0l.6.349.008,0,.053.031.009.005.051.03.011.006.048.028.014.008.045.026.018.011.046.027.014.008.048.028.014.008.048.028.014.008.045.026.019.011.043.025.018.01.044.026.017.01.045.027.016.009.044.026.019.011.044.026.013.008.049.029.01.006.053.031h0l.059.035,0,0,.476.281.008,0,.051.03.01.006.049.029.013.008.048.029.013.008.044.026.019.012.043.025.017.01.044.026.018.011.044.026.016.009.045.027.017.01.045.027.015.009.045.027.017.01.045.027.015.009.046.027.016.009.047.028.011.006.051.031.007,0,.055.033h0l.542.326h0l.058.035,0,0,.053.032.01.006.05.031.011.006.047.028.015.009.047.028.013.008.046.028.016.01.046.028.014.009.046.028.015.009.047.029.013.008.046.028.017.01.044.027.018.011.041.025.022.013.041.025.016.01.045.027.015.009.047.029.01.006.05.031.01.006.466.286.007,0,.054.033.006,0,.049.03.013.008.046.028.015.009.04.025.024.015.037.023.023.014.038.024.024.015.036.022.024.015.037.023.024.015.039.024.019.012.042.026.02.013.04.025.021.013.038.024.025.016.037.023.02.012.042.026.017.011.044.027.016.01.043.027.019.012.043.027.01.006.05.031.009.006.051.032.007,0,.156.1.018.011.041.026.019.012.037.023.024.015.039.024.021.013.041.026.019.012.041.025.021.013.036.023.025.016.038.024.021.014.038.024.022.014.039.025.021.014.037.023.025.016.037.023.023.014.038.024.021.013.04.025.022.014.036.023.027.017.035.022.023.014.037.024.024.015.037.024.024.015.036.023.024.015.038.024.017.011.042.027.019.012.1.065.018.011.089.057.013.008.038.024.023.014.032.021.03.019.031.02.028.018.034.022.028.018.034.022.026.016.034.022.029.018.031.02.028.018.034.022.027.017.035.022.025.016.035.023.026.017.035.022.024.016.036.023.026.017.034.022.025.016.035.023.027.018.032.021.028.018.032.021.028.018.032.021.026.017.035.022.026.017.034.022.025.016.035.023L301,31.3l.034.022.024.016.037.024h0l.107.07.009.006.043.028.017.011.038.025.022.014.035.023.026.017.032.021.027.018.034.022.026.017.032.021.028.018.034.022.026.017.033.021.028.018.032.021.028.019.03.02.03.019.032.021.028.018.032.021.028.018.033.022.028.018.031.02.028.018.034.023.025.016.034.022.026.017.036.023.024.016.034.023.026.017.035.023.023.015.036.024.024.016.037.025.017.011.042.028.017.011.154.1.006,0,.038.025.023.015.037.025.022.014.037.024.024.016.034.023.025.017.032.022.029.019.032.021.026.017.035.023.025.017.035.023.023.016.036.024.025.017.034.023.024.016.035.024.026.017.033.022.026.018.033.022.028.019.032.021.025.017.035.024.025.016.035.023.024.016.036.024.025.017.034.023.024.016.036.024.025.017.034.023.031.021.028.019.034.023.138.093.005,0,.043.029.016.011.039.027.021.014.039.026.02.014.038.026.022.015.033.022.028.019.032.022.026.018.034.023.025.017.034.023.027.018.03.02.03.021.029.02.03.021.029.02.03.02.031.021.028.019.029.02.032.022.028.019.03.021.029.02.027.019.034.024.022.015.036.024.026.018.033.023.026.018.033.022.026.018.034.023.028.02.029.02.037.025.023.016.058.04.094.065.025.017.028.019.031.021.026.018.034.023.024.017.035.024.023.016.037.026.022.015.036.025.027.018.031.022.03.021.028.019.031.022.029.02.03.021.029.02.03.021.031.021.028.019.031.022.027.019.034.023.025.018.033.023.027.018.032.022.028.02.03.021.029.02.03.021.029.02.03.021.028.019.035.025.024.017.042.029.017.012.047.033.012.008.051.036.032.023.034.024.032.022.027.019.033.023.026.018.029.02.031.022.026.018.033.023.024.017.035.025.025.018.034.024.023.016.036.025.024.017.034.024.025.018.033.024.027.019.033.023.025.017.036.026.022.015.038.027.02.014.038.027.023.016.035.025.024.017.036.025.023.016.035.025.024.017.033.023.027.019.032.023.025.018.038.027.02.014.047.034.01.007.046.033.013.01.117.084.011.008.048.034.019.014.038.027.025.018.034.024.022.016.037.026.021.015.039.028.02.014.038.027.024.018.034.024.026.019.032.023.026.019.033.023.026.019.031.022.028.02.031.022.026.019.033.024.024.017.036.026.022.016.035.025.024.017.036.026.021.015.039.028.019.014.04.029.018.013.039.028.02.014.043.031.014.01.052.038.006,0,.056.041,0,0,.177.129.011.008.046.033.023.017.034.025.025.018.034.025.02.014.039.029.019.014.038.028.022.016.036.026.023.017.035.026.022.016.037.027.022.016.036.026.023.017.035.025.024.018.035.026.021.015.038.028.021.015.036.026.023.017.034.025.025.019.034.025.023.017.035.026.024.018.034.025.023.017.036.027.022.016.041.031.015.011.047.035.011.008.233.173.011.008.047.035.014.01.043.032.017.012.043.032.011.008.045.034.016.012.042.032.018.013.038.028.022.017.037.027.021.016.035.026.023.017.036.027.023.017.032.024.027.02.033.024.024.018.032.024.025.019.034.025.024.018.033.025.024.018.036.027.022.016.035.026.023.017.036.027.021.016.042.032.014.011.05.038.007.006.232.175.007.005.05.038.015.011.043.032.015.012.042.032.018.014.039.03.017.013.04.03.02.015.037.028.02.015.038.029.02.015.039.03.017.013.04.031.018.014.04.031.016.012.041.031.018.014.039.03.018.014.04.03.018.014.042.032.015.011.041.031.018.014.041.031.015.011.043.033.015.012.047.036.009.007.045.034.014.011.055.042h0l.174.134,0,0,.055.042,0,0,.055.042.009.007.049.038.01.007.045.035.018.014.04.031.015.012.041.032.017.013.041.032.017.013.038.029.021.016.038.029.018.014.04.031.017.013.041.032.017.014.037.028.021.017.039.03.016.013.042.033.014.011.046.036.01.008.047.036.011.009.051.04,0,0,.4.315,0,0,.055.043,0,0,.051.04.012.01.044.034.017.013.038.03.022.018.035.027.019.015.038.03.018.014.039.031.017.014.039.031.018.015.041.032.013.011.043.034.015.012.04.032.017.013.038.03.02.016.038.03.017.013.04.032.017.014.041.033.014.011.042.033.015.012.049.039.006,0,.049.039.009.007.112.089h0l.228.182,0,0,.108.087.012.009.045.036.013.01.042.034.017.013.04.032.016.012.04.032.018.014.039.032.016.013.04.032.017.013.041.033.015.012.039.031.02.016.036.029.02.016.035.028.021.017.039.031.016.013.041.033.015.012.046.037.01.008.049.039.007.006.053.043,0,0,.341.276h0l.054.044.008.007.048.039.008.006.048.039.012.009.044.036.014.012.04.033.019.016.037.03.017.014.04.032.016.013.041.034.013.01.043.035.015.013.041.033.015.012.04.033.018.014.038.031.017.014.038.031.018.015.039.032.016.013.04.033.016.013.044.036.011.009.046.038.01.009.05.041.006,0,.168.138.014.011.043.035.009.008.047.038.011.009.045.038.011.009.043.036.019.016.036.03.02.017.035.029.019.016.037.031.018.015.037.03.02.017.037.031.017.014.039.032.016.014.04.033.016.013.039.032.018.015.038.032.018.015.037.031.018.015.038.032.018.015.036.03.019.016.04.033.014.012.047.039.008.006.05.042.006.005.049.041.006.005.279.234h0l.054.045.006.005.048.041.013.011.042.035.016.014.039.033.015.013.04.033.018.015.036.03.021.018.033.028.022.019.034.029.018.016.038.032.017.014.038.032.017.014.039.033.017.014.039.033.016.013.039.033.017.014.038.032.017.014.039.033.017.014.045.038.008.007.048.041.007.006.053.045,0,0,.388.331.006.005.048.041.009.008.045.039.013.011.042.036.013.012.04.035.016.014.04.034.014.012.039.034.017.014.039.033.016.014.037.032.018.016.037.032.018.015.036.031.019.016.038.033.016.014.038.033.016.014.038.033.018.015.037.032.017.015.039.034.015.013.043.037.011.009.05.044,0,0,.22.191.007.006.048.042.01.009.044.038.014.012.04.035.016.014.039.034.016.014.039.034.016.014.038.033.016.014.039.034.015.013.04.035.014.013.039.034.018.016.036.032.017.015.037.032.018.016.037.033.016.014.039.034.016.014.039.034.015.013.04.035.014.012.042.037.011.01.041.036.014.012.047.042.005,0,.051.045,0,0,.273.242,0,0,.049.043.015.013.04.036.011.01.041.037.016.014.04.035.013.012.039.035.017.016.037.033.016.014.036.033.018.016.037.033.017.015.035.031.021.018.034.03.019.017.036.032.018.016.038.034.015.013.038.034.015.014.041.036.013.011.044.039.009.008.046.041.009.008.041.036.014.013.041.037.012.011.216.194,0,0,.052.047,0,0,.048.044.013.012.039.035.019.017.035.031.017.016.036.032.02.018.033.03.019.018.034.031.02.018.034.031.018.016.035.032.019.017.033.03.02.019.031.028.025.023.03.027.021.019.033.03.021.02.032.029.02.018.034.031.02.018.037.034.014.013.039.035.016.014.039.035.014.013.038.034.016.015.105.1h0l.108.1h0l.105.1.011.01.042.038.014.013.038.034.019.017.035.032.018.016.034.032.019.017.035.033.017.015.035.032.019.017.037.034.014.013.038.035.017.015.036.033.019.017.032.03.021.019.035.032.017.016.036.033.017.016.037.034.016.014.037.035.015.014.04.037.013.012.039.036.014.013.041.038.011.011.041.038.012.011.317.3.011.01.041.039.013.012.039.036.017.016.035.033.016.015.037.035.015.014.038.036.013.012.024.022-4.792,5.1A187.288,187.288,0,0,0,195,7V0ZM332.056,56.289a196.144,196.144,0,0,1,15.536,17.287h0l.045.056h0l.044.055,0,0c.243.305.483.609.724.916l0,0,.088.112h0l.088.112,0,.006.041.053,0,0,.041.053,0,.006.04.051.005.007.037.048.009.012.038.049,0,.006.042.054,0,0,.043.055,0,0,.042.054,0,0c.225.289.447.576.671.866l0,0,.042.054.006.008.039.051,0,.005.04.052,0,.007.039.051.005.007.038.05.008.01.039.051,0,0,.042.054,0,0,.042.055,0,0,.042.054,0,0,.085.112,0,0,.087.114h0l.442.583,0,0,.085.113.005.007.039.052,0,.005.038.051.008.01.036.048.007.01.035.047.01.013.034.046.009.012.034.045.01.013.034.045.009.012.034.045.01.013.035.047.008.011.035.047.008.011.037.049.006.008.037.049.007.009.041.054,0,0,.042.057v0l.393.528h0l.042.057,0,.005.038.052.007.009.037.049.007.009.036.049.007.01.036.048.009.012.034.046.009.012.034.046.01.013.033.045.01.013.033.045.011.015.033.044.01.013.034.046.009.012.036.049.006.008.036.049.008.011.037.051,0,.006.039.053,0,.006.43.589,0,0,.039.054.005.007.037.051.007.01.036.05.006.008.035.049.01.013.034.047.007.01.035.048.008.011.035.048.008.011.033.046.011.015.032.045.01.014.032.045.01.014.032.045.011.015.031.043.012.016.031.043.011.015.032.045.01.014.034.047.009.012.035.049.007.009.039.054,0,0,.3.416v0l.041.058h0l.042.059,0,0,.038.053.01.014.031.043.014.02.028.039.013.018.03.042.012.017.029.041.014.019.028.04.013.019.029.042.011.016.031.044.011.015.03.042.013.018.028.039.015.021.028.039.013.018.03.042.012.017.03.043.011.016.03.042.012.017.033.047.007.01.034.049.008.011.034.048.008.011.033.047.009.012.251.358,0,0,.039.056.007.01.034.048.01.015.032.046.009.013.032.046.009.013.033.047.009.013.032.047.009.014.033.047.009.012.032.046.011.016.03.043.012.017.028.041.014.02.028.04.013.019.029.042.012.017.031.045.01.014.031.045.011.016.031.045.01.014.03.044.011.016.03.043.012.017.029.043.012.017.033.048.008.011.04.058h0l.166.241,0,0,.037.055.011.017.029.042.013.02.028.041.012.017.029.042.013.019.028.04.014.02.027.039.015.022.026.039.013.02.027.039.015.022.025.037.015.022.025.036.017.025.023.034.017.025.023.034.018.026.024.035.016.023.025.036.017.025.023.034.018.026.022.032.019.029.021.032.019.027.02.03.021.031.019.029.02.03.022.033.018.027.027.04.013.019.026.039.015.023.029.043.011.016.029.043.026.038.026.039.012.018.027.041.018.026.023.034.015.023.025.037.015.022.026.039.014.021.025.038.017.025.024.036.016.024.023.035.018.027.023.034.018.026.021.032.019.029.021.032.018.027.022.033.017.026.024.036.016.023.024.036.017.025.024.036.016.024.024.036.016.024.024.037.016.024.024.036.016.025.026.039.014.021.028.043.011.017.031.047.009.014.03.045.01.015.032.048.008.012.034.051.006.009.08.121.012.018.028.043.01.015.03.046.013.019.027.041.013.02.026.039.015.023.025.038.013.02.026.04.015.023.024.037.016.025.023.035.017.025.024.037.014.021.026.039.015.023.024.037.015.023.024.036.018.027.022.033.017.026.023.036.017.026.022.033.018.027.02.031.02.031.021.032.017.026.024.036.016.025.022.035.017.025.022.034.018.028.024.037.014.021.026.04.014.022.024.037.015.024.019.029.03.047.067.1.021.033.019.029.026.04.012.019.024.038.016.025.022.035.016.025.023.035.017.026.022.034.016.025.022.034.018.029.02.032.018.027.021.034.018.028.021.032.018.028.02.032.019.03.02.031.018.028.021.032.019.03.019.03.019.03.019.03.021.033.018.028.019.03.02.031.019.03.02.031.018.029.02.031.021.033.018.028.021.033.018.028.022.034.017.027.02.032.018.029.022.035.016.026.077.121.014.022.025.039.016.026.022.035.015.024.024.038.013.021.025.04.013.02.026.041.014.023.024.038.014.022.025.039.015.023.023.037.016.025.022.035.018.029.02.032.017.027.021.034.018.028.02.032.018.028.02.032.02.032.018.028.02.032.019.03.02.032.018.029.019.031.019.031.02.032.019.031.018.028.022.036.016.026.023.037.015.024.02.033.019.031.015.024.022.036.02.032.018.029.07.114.023.037.02.033.019.03.019.03.019.03.02.032.02.032.017.027.022.036.016.027.021.034.016.027.02.032.019.031.018.03.019.03.02.032.019.031.018.029.02.032.018.029.02.032.02.032.016.026.022.036.016.026.022.035.016.026.021.034.017.029.02.033.016.026.022.036.016.027.021.034.017.028.02.034.016.026.023.038.011.018.027.044.01.017.027.044.011.019.025.041.015.024.023.038.008.013.085.141.018.029.021.035.015.026.022.037.015.025.022.036.015.025.019.032.019.031.018.03.019.031.018.031.019.032.019.031.018.031.018.029.02.033.018.031.018.031.018.03.019.031.019.032.018.03.018.03.02.033.017.028.02.034.017.028.02.034.017.028.021.036.015.025.023.038.015.025.021.034.017.029.018.03.02.034.016.027.02.034.019.031.019.031.019.032.018.03.018.031.019.032.016.028.02.034.018.031.118.2.01.017.023.039.014.023.021.035.017.028.019.033.017.029.019.032.018.031.018.031.018.03.02.035.016.027.022.037.014.024.022.037.016.027.02.034.016.028.02.035.016.028.02.034.016.028.019.033.019.032.017.03.018.031.019.032.017.029.02.034.016.027.021.036.016.027.021.036.015.026.021.036.017.029.018.032.021.036.015.026.022.037.015.026.021.035.016.027.022.038.014.024.015.026.051.089.005.009.023.039.014.024.022.038.014.024.021.036.016.027.021.036.015.026.021.037.014.025.022.038.014.025.021.037.014.025.022.038.014.025.021.036.016.027.02.035.017.029.018.031.018.032.018.032.017.03.019.032.017.03.019.034.016.028.02.035.016.028.02.035.015.027.02.035.016.029.019.034.017.029.019.033.017.03.019.033.016.028.019.034.017.031.018.032.019.033.017.029.02.034.016.029.071.126h0l.036.063,0,.008.03.053.014.024.022.04.013.023.022.039.016.028.02.036.016.029.018.032.018.032.018.032.017.03.019.033.017.03.019.033.017.031.017.031.019.033.017.03.018.033.016.029.019.034.016.029.019.034.015.026.021.038.014.026.02.035.016.029.018.033.018.033.017.03.017.03.019.034.015.028.02.035.015.027.02.036.015.026.021.037.011.02.024.044.007.013.027.049.011.02.024.043h0l.067.121,0,0,.026.047.009.016.022.04.013.023.021.038.014.025.022.04.012.022.022.039.014.025.018.033.017.031.019.034.016.029.02.036.015.027.02.036.015.028.018.033.017.03.019.035.015.028.019.035.015.027.02.037.015.028.018.034.016.03.019.035.015.027.02.036.014.026.021.038.014.025.02.037.014.026.021.039.011.021.023.043.008.015.027.049.005.01.028.052.01.018.025.046h0l.1.176.006.011.021.038.013.025.02.037.014.026.022.041.012.022.021.038.015.027.018.034.016.029.018.033.017.031.018.033.016.029.019.035.016.03.018.033.016.03.018.034.016.03.019.035.015.027.019.036.016.03.017.033.016.03.018.033.017.031.017.033.016.03.018.034.017.031.017.032.016.031.018.034.016.029.018.035.014.027.02.037.014.026.02.038.012.023.022.041.009.017.025.047,0,.007.155.293.008.015.022.041.013.024.019.037.014.027.019.035.016.029.017.033.016.031.018.035.015.029.018.034.016.03.018.034.017.032.016.031.017.032.019.036.014.027.018.035.016.03.019.036.014.027.018.035.016.03.018.035.015.029.018.034.015.029.019.036.015.029.017.033.016.03.019.036.013.025.02.038.014.028.019.038.013.026.019.037.014.028.02.038.011.022.022.042.012.024.035.068.026.05.048.092.011.022.021.04.012.023.018.036.016.03.018.035.014.027.02.038.014.027.019.037.014.027.018.035.016.031.018.036.014.027.019.038.014.028.018.035.015.029.018.034.016.032.017.034.014.028.019.037.015.029.018.035.016.031.017.033.017.032.017.034.014.027.019.037.014.028.019.037.014.027.018.036.016.031.018.035.014.028.018.036.016.031.017.034.018.035.014.028.02.04.013.025.014.027.071.142.012.024.018.037.014.027.018.036.015.029.018.036.015.029.016.033.016.033.017.034.015.03.018.035.015.03.018.037.014.028.017.035.016.031.017.035.015.029.017.035.015.03.018.035.015.03.017.033.016.032.017.034.014.029.018.037.013.025.021.042.011.022.02.041.013.027.019.038.013.026.019.039.013.026.019.039.014.028.017.035.015.03.018.037.01.021.022.044.009.019.023.047,0,.01.026.053.023.048.026.052.015.03.019.039.012.025.017.034.016.033.017.034.014.029.018.037.014.029.019.039.012.025.019.039.013.027.018.037.014.028.018.037.014.029.018.036.014.029.017.035.016.032.016.033.015.031.017.034.015.031.017.035.014.029.018.036.015.031.016.034.016.032.016.033.015.032.017.034.015.03.017.035.016.033.016.033.015.031.017.035.014.028.019.038.01.021.021.045.009.018.023.047.006.012.085.178,0,0,.02.041.012.025.018.037.014.029.018.037.013.028.017.036.014.029.017.035.015.031.015.031.017.035.014.029.018.037.013.027.018.039.014.029.017.035.014.03.017.036.014.03.017.036.015.031.016.033.016.034.015.031.016.034.015.031.016.034.016.033.014.03.017.036.014.03.016.034.015.031.016.033.015.033.016.035.014.029.017.036.014.031.016.035.014.03.018.039.013.027.026.055,0,.009.03.063,0,0,.031.066.006.013.025.053.009.02.022.046.013.029.016.035.017.036.014.031.014.03.017.036.013.027.019.04.011.024.019.04.013.028.018.039.012.025.019.042.012.025.019.041.012.027.017.038.013.029.018.04.011.024.02.043.01.022.021.045.01.022.02.043.011.025.019.042.011.024.02.043.011.023.02.043.011.024.018.039.013.028.02.043.01.022.022.048.008.018.024.051.007.015.023.05.008.017.028.061,0,0,.061.134,0,.007.027.058.01.022.021.046.007.015.024.052.008.018.021.047.011.025.018.04.013.029.017.038.012.026.018.041.012.027.017.038.013.029.017.036.014.031.017.037.012.026.019.042.011.025.019.042.011.025.018.041.012.027.019.041.01.023.02.044.011.024.02.045.009.02.021.046.01.021.023.051.006.013.024.054.006.014.025.057,0,.009.026.058,0,.01.12.269v0l.059.132,0,.01.025.057.007.015.022.05.009.02.021.048.007.016.022.049.01.023.019.044.01.023.019.043.011.024.019.044.01.023.018.041.012.027.018.041.011.025.018.042.011.026.018.042.011.025.017.039.013.029.017.038.013.029.016.037.013.03.018.042.01.024.019.044.01.023.021.048.008.018.022.049.008.018.022.051.007.015.024.054.006.013.176.405,0,.009.025.058.006.014.023.053.007.017.021.05.008.02.02.046.011.025.018.042.01.024.019.044.01.024.019.043.01.024.018.043.011.026.018.042.01.024.019.043.01.024.019.043.01.023.018.042.012.027.017.04.011.026.017.041.012.027.017.04.011.026.017.04.012.028.017.039.012.027.017.039.012.029.018.042.01.024.017.04.012.028.021.049.007.016.086.2.005.013.023.056,0,.011.024.056.006.015.023.054,0,.011.023.055.008.02.02.048.009.021.019.046.009.022.019.047.009.021.019.044.011.026.017.041.011.027.016.039.011.027.018.042.01.025.017.04.012.03.016.038.012.03.016.038.012.028.018.043.01.023.018.043.01.025.019.046.009.021.021.05.007.017.021.052.007.017.02.049.008.019.022.053.006.014.112.272,0,.01.024.059,0,.007.024.06.008.02.019.047.01.025.018.044.008.02.02.048.008.021.019.047.008.021.019.047.009.022.019.047.008.018.021.051.007.017.02.049.008.02.019.047.009.023.019.047.007.018.02.05.008.02.019.048.008.02.019.048.008.021.02.049.007.017.021.052.007.017.02.049.008.019.019.048.009.021.022.054,0,.012.025.062,0,.006.164.412,0,.01.024.06v0l.025.064,0,.011.023.058,0,.012.022.055.007.016.021.053.006.014.021.052.008.019.019.049.008.02.018.047.009.022.019.048.008.02.019.048.008.02.02.051.006.016.021.054.005.013.022.057,0,.012.022.056.005.013.022.057,0,.012.022.057,0,.011.024.061,0,.007.025.064,0,0c.081.208.161.415.242.623v0l.026.067,0,.005.024.063,0,.009.023.06,0,.011.022.057,0,.013.021.055.006.016.02.053.006.015.021.055,0,.013.022.057,0,.011.022.058,0,.013.022.057,0,.012.022.057,0,.012.021.056,0,.013.021.055.006.015.022.058,0,.008.024.063,0,.006c.114.3.227.6.34.9v0l.024.065,0,.009.023.061,0,.006.023.063,0,.007.023.063,0,.006.023.063,0,.008.023.063,0,.006.024.064,0,.006.023.063,0,.007.023.063,0,.006.025.067v0q.194.524.384,1.049v0l.025.068v0l.025.069h0l.025.069v0l.024.065,0,.008.023.063,0,0,.023.065,0,.006.023.065,0,0,.023.063,0,.009.024.066h0l.025.069h0q.277.772.547,1.547h0a194.363,194.363,0,0,1,10.692,56.894l-7,.259A187.177,187.177,0,0,0,327.136,61.268Zm57.931,136.367q.009.737.012,1.476s0,.006,0,.009c0,.026,0,.04,0,.066v.019c0,.02,0,.038,0,.058s0,.015,0,.022,0,.039,0,.052v.028c0,.013,0,.036,0,.049s0,.018,0,.028,0,.034,0,.047v.031c0,.013,0,.032,0,.045s0,.021,0,.032,0,.031,0,.044,0,.022,0,.032,0,.032,0,.045,0,.021,0,.032,0,.026,0,.045,0,.02,0,.031,0,.029,0,.049,0,.018,0,.028V195h0v.076c0,.012,0,.019,0,.032s0,.025,0,.045,0,.023,0,.036,0,.027,0,.04,0,.023,0,.036,0,.022,0,.042,0,.023,0,.035,0,.028,0,.041v.036c0,.013,0,.028,0,.041v.037c0,.013,0,.027,0,.041s0,.025,0,.035,0,.029,0,.042,0,.023,0,.036,0,.028,0,.042,0,.022,0,.034,0,.029,0,.043v.077c0,.012,0,.022,0,.034s0,.029,0,.042,0,.023,0,.035,0,.029,0,.042,0,.022,0,.034,0,.025,0,.045,0,.023,0,.032,0,.028,0,.048v.028c0,.013,0,.031,0,.044,0,.05,0,.1,0,.145v.039c0,.012,0,.021,0,.033v.045c0,.009,0,.023,0,.032v.044c0,.012,0,.023,0,.036s0,.022,0,.041v.077c0,.012,0,.022,0,.034v.044c0,.009,0,.025,0,.034v.041c0,.012,0,.024,0,.036s0,.029,0,.042v.11c0,.013,0,.032,0,.045s0,.022,0,.031,0,.031,0,.044,0,.021,0,.033v.044c0,.012,0,.02,0,.033v.23c0,.02,0,.026,0,.046v.042c0,.02,0,.045,0,.065v.11c0,.02,0,.023,0,.043s0,.025,0,.034,0,.023,0,.043,0,.023,0,.033v.045c0,.012,0,.021,0,.033v.275c0,.012,0,.019,0,.031s0,.031,0,.044v.308c0,.009,0,.022,0,.031v.152c0,.052,0,.1,0,.155v1.1l0,.061v.015l0,.076v1.1l0,.052v.025l-.005.153v.012l0,.065v.019l0,.057v.023l0,.053v.026l0,.049v.03l0,.047v.029l0,.047v.028l0,.049v.028l0,.047v.03l0,.046v.031l0,.045v.031l0,.045v.032l0,.042v.035l0,.046v.028l0,.056v.02l0,.07v.006l0,.076v.023l0,.053v.027l0,.05v.028l0,.048v.029l0,.046v.031l0,.047v.026l0,.051v.027l0,.048v.029l0,.047v.031l0,.046v.031l0,.045v.032l0,.044v.031l0,.046v.03l0,.05v.026l0,.054v.023l0,.065v.01l-.011.23v.02l0,.058v.02l0,.056v.024l0,.053v.024l0,.05v.03l0,.046v.031l0,.045,0,.032,0,.045,0,.031,0,.044,0,.033,0,.042,0,.034,0,.041,0,.035,0,.044,0,.032,0,.045,0,.031,0,.052v.023l0,.066v.01l-.008.153v.015l0,.062v.018l0,.057v.026l0,.05,0,.028,0,.047,0,.031,0,.046,0,.03,0,.045,0,.033,0,.043,0,.033,0,.043,0,.033,0,.044,0,.03,0,.046,0,.031,0,.046,0,.029,0,.05v.025l0,.058v.016l0,.062v.015l-.014.231v.007l0,.067v.022l0,.054V207l0,.051,0,.026,0,.051,0,.026,0,.048,0,.03,0,.047,0,.027,0,.05,0,.025,0,.052,0,.025,0,.048,0,.03,0,.047,0,.028,0,.049,0,.027,0,.053v.023l0,.058v.017c-.007.1-.013.2-.02.305v.019l0,.057v.02l0,.056,0,.024,0,.052,0,.025,0,.051,0,.027,0,.05,0,.024,0,.052,0,.025,0,.05,0,.027,0,.047,0,.03,0,.049,0,.025,0,.052,0,.024,0,.057V209l0,.059v.017c-.007.1-.014.2-.022.3v.016l0,.06v.018l0,.056,0,.026,0,.05,0,.026,0,.049,0,.028,0,.049,0,.027,0,.046,0,.032,0,.042,0,.034,0,.04,0,.035,0,.042,0,.033,0,.042,0,.034,0,.043,0,.032,0,.047,0,.028,0,.055,0,.02,0,.062v.014l-.012.152v.016l0,.059,0,.024,0,.051,0,.028,0,.048,0,.026,0,.049,0,.029,0,.047,0,.029,0,.047,0,.03,0,.045,0,.03,0,.044,0,.032,0,.046,0,.027,0,.05,0,.025,0,.053,0,.021,0,.055,0,.021-.005.062v.012l-.006.066v.011l-.02.23v0l-.006.069,0,.021,0,.056,0,.021,0,.053,0,.028,0,.049,0,.027,0,.047,0,.03,0,.046,0,.029,0,.045,0,.031,0,.046,0,.028,0,.048,0,.026,0,.051,0,.024,0,.051,0,.025,0,.053,0,.022-.005.058v.016l-.006.068v.008l-.021.23v0l-.007.071v.015l-.006.06,0,.021-.005.054,0,.023-.005.054,0,.021-.005.054,0,.023,0,.052,0,.026,0,.051,0,.023-.005.053,0,.023,0,.051,0,.024,0,.051,0,.024-.005.055,0,.019-.006.058,0,.019-.006.062v.012l-.007.07v.006l-.015.153v.008l-.007.067,0,.018-.006.056,0,.024-.005.052,0,.025,0,.049,0,.028,0,.046,0,.03,0,.045,0,.03,0,.046,0,.028,0,.048,0,.026-.005.049,0,.026-.005.05,0,.025-.006.054,0,.021-.006.056,0,.02-.006.058,0,.017-.007.066v.009l-.024.228v.009l-.007.066,0,.02-.006.054,0,.025-.005.05,0,.026-.005.049,0,.026-.005.049,0,.027-.005.049,0,.025-.005.05,0,.026-.005.048,0,.026-.005.049,0,.027-.005.048,0,.026-.006.051,0,.024-.006.055,0,.019-.006.058,0,.017-.008.073h0l-.025.227,0,.015-.007.061,0,.017-.006.057,0,.023-.006.052,0,.025-.005.048,0,.029-.005.047,0,.028-.005.047,0,.028-.006.048,0,.028-.005.046,0,.028-.006.05,0,.023-.006.055,0,.02-.007.057,0,.018-.007.056,0,.02-.007.06,0,.015-.027.227v0l-.009.073v.012l-.008.064,0,.015-.007.059,0,.021-.006.053,0,.025-.006.049,0,.025-.006.05,0,.026-.006.048,0,.027-.006.048,0,.027-.006.049,0,.023-.006.052,0,.023-.006.052,0,.022-.006.052,0,.023-.007.058,0,.015-.008.065v.01l-.019.151v.008l-.009.068v.01l-.008.063,0,.025-.006.049,0,.028-.006.045,0,.03-.006.046,0,.028-.006.045,0,.03-.006.046,0,.029-.006.045,0,.028-.006.049,0,.025-.006.049,0,.026-.006.048,0,.028-.006.048,0,.025-.007.057,0,.017-.008.061,0,.014-.04.3v.005l-.009.069,0,.012-.008.061,0,.02-.007.055,0,.02-.007.054,0,.024-.007.051,0,.023-.007.052,0,.024-.007.051,0,.023-.007.052,0,.024-.007.053,0,.02-.007.054,0,.022-.008.056,0,.017-.009.066v.008l-.042.3v0l-.01.07,0,.011-.008.061,0,.022-.008.054,0,.018-.008.056,0,.019-.008.057,0,.017-.008.057,0,.019-.008.057,0,.017-.008.058,0,.017-.009.06,0,.015-.008.058,0,.018-.009.06,0,.013-.01.07v0c-.022.152-.043.3-.066.451l0,.015-.009.06,0,.014-.009.061,0,.014-.009.061,0,.016-.008.057,0,.02-.008.055,0,.018-.008.056,0,.019-.008.055,0,.019-.008.054,0,.02-.009.059,0,.013-.009.062,0,.013-.01.064,0,.01-.01.066v.009l-.034.226v0l-.011.071,0,.016-.009.059,0,.015-.009.058,0,.021-.008.054,0,.02-.008.053,0,.022-.008.054,0,.02-.008.053,0,.022-.008.053,0,.02-.008.054,0,.02-.009.057,0,.017-.009.057,0,.019-.01.061,0,.012-.011.069v.005l-.06.376v.006l-.011.067,0,.013-.01.062,0,.013-.01.06,0,.018-.009.057,0,.017-.009.058,0,.017-.01.059,0,.014-.01.059,0,.018-.01.059,0,.014-.01.061,0,.014-.011.066v.007l-.011.069v.007l-.062.375h0l-.012.072,0,.01-.011.065,0,.009-.01.063,0,.016-.01.058,0,.016-.01.059,0,.016-.01.06,0,.015-.01.057,0,.019-.01.057,0,.016-.01.06,0,.013-.011.063,0,.011-.011.063,0,.012c-.026.15-.051.3-.077.447v.006l-.012.068,0,.01-.011.062,0,.017-.01.058,0,.014-.01.06,0,.015-.01.058,0,.018-.009.054,0,.022-.009.053,0,.02-.01.055,0,.018-.01.057,0,.016-.01.056,0,.019-.011.064v.007l-.013.071v0l-.053.3v.006l-.012.069v.008l-.012.066,0,.012-.011.063,0,.012-.011.061,0,.017-.01.056,0,.02-.01.054,0,.02-.01.055,0,.017-.01.056,0,.018-.011.058,0,.015-.011.061,0,.012-.012.065v.008l-.013.072h0c-.028.15-.055.3-.083.448v0l-.013.069,0,.009-.012.064,0,.012-.012.062,0,.012-.011.061,0,.015-.011.06,0,.013-.012.061,0,.013-.012.063,0,.009-.012.064,0,.011-.013.066v.007l-.013.071v0c-.033.174-.066.347-.1.521v0l-.013.069,0,.009-.012.064,0,.013-.011.059,0,.018-.011.057,0,.016-.012.059,0,.013-.012.062,0,.011-.012.061,0,.014-.012.061,0,.012-.012.063,0,.01-.013.067v.006l-.074.371v.005l-.014.068,0,.009-.013.063,0,.015-.011.057,0,.019-.011.054,0,.02-.011.054,0,.018-.011.056,0,.018-.011.055,0,.018-.011.055,0,.019-.011.056,0,.016-.012.057,0,.017-.012.058,0,.015-.013.061,0,.012-.061.295v.006l-.014.067,0,.011-.013.061,0,.017-.012.056,0,.018-.011.053,0,.021-.011.054,0,.019-.011.053,0,.021-.011.053,0,.019-.011.054,0,.019-.012.055,0,.018-.012.056,0,.016-.013.061,0,.011-.014.065,0,.008-.094.443v0l-.015.069,0,.008-.014.063,0,.014-.013.059,0,.015-.012.058,0,.017-.012.057,0,.015-.013.058,0,.017-.013.058,0,.013-.013.061,0,.012-.014.064,0,.008-.014.064,0,.011-.1.441v0l-.016.072v0l-.015.068,0,.014-.013.059,0,.014-.013.058,0,.016-.013.058,0,.014-.013.058,0,.016-.013.059,0,.013-.013.06,0,.013-.014.062,0,.011-.014.061,0,.012-.016.069v0l-.1.441,0,.007-.015.064,0,.014-.014.06,0,.011-.014.06,0,.016-.013.056,0,.017-.013.055,0,.019-.013.055,0,.015-.013.058,0,.016-.013.057,0,.017-.013.055,0,.018-.014.06,0,.01-.015.067v.006l-.085.367v0l-.016.069,0,.011-.014.062,0,.012-.014.06,0,.015-.014.058,0,.014-.014.058,0,.015-.014.059,0,.012-.014.059,0,.015-.014.059,0,.013-.014.058,0,.015-.015.061,0,.009-.016.066,0,.007-.105.439v0l-.017.069v.006l-.016.066,0,.01-.015.063,0,.01-.015.062,0,.012-.014.06,0,.014-.014.057,0,.017-.014.056,0,.016-.013.055,0,.019-.014.057,0,.013-.015.061,0,.011-.017.07h0l-.108.439v0l-.017.069,0,.007-.016.065,0,.009-.015.061,0,.017-.014.056,0,.016-.014.056,0,.018-.014.054,0,.019-.013.051-.006.022-.013.052,0,.018-.014.058,0,.013-.016.064,0,.008-.017.066,0,.006-.074.291h0l-.037.144v0l-.017.066,0,.011-.015.059,0,.017-.014.056,0,.016-.014.055,0,.019-.014.053-.005.02-.013.05-.006.024-.013.052,0,.017-.014.056,0,.016-.015.058,0,.013-.015.058,0,.014-.113.434v.006l-.017.066,0,.011-.016.06,0,.015-.015.058,0,.013-.015.057,0,.017-.014.054-.005.019-.014.052-.005.02-.014.054,0,.016-.015.057,0,.014-.017.063,0,.007-.018.066,0,.006c-.052.194-.1.384-.155.578l0,.008-.017.063,0,.01-.016.06,0,.016-.015.055,0,.016-.015.054-.005.019-.014.053,0,.017-.015.054-.005.018-.015.057,0,.012-.017.061,0,.011-.018.064,0,.006-.119.433,0,.006-.018.064,0,.014-.016.058,0,.014-.016.057,0,.015-.015.056,0,.017-.015.053-.006.02-.014.052-.005.019-.015.055,0,.016-.016.057,0,.014-.016.058,0,.014-.017.062,0,.008-.121.432h0l-.02.07,0,.008-.018.064,0,.008-.018.063,0,.012-.016.058,0,.017-.015.052-.006.022-.014.05-.006.019-.015.053-.005.018-.015.054,0,.016-.016.056,0,.016-.017.06,0,.01-.019.065,0,.005-.124.431,0,.006-.019.066,0,.008-.018.062,0,.015-.016.056,0,.015-.016.055,0,.017-.016.056,0,.013-.017.058,0,.013-.017.059,0,.012-.018.061,0,.01-.018.063,0,.008-.019.065,0,.006-.02.069v0l-.127.431v0l-.019.065,0,.012-.017.057,0,.016-.016.053-.006.02-.015.051-.006.019-.016.053,0,.016-.017.056,0,.014-.017.056-.005.017-.016.055,0,.015-.017.057,0,.014-.018.061,0,.009-.018.061,0,.011-.108.356,0,.005-.019.064,0,.015-.017.057,0,.015-.016.053-.007.022-.015.05-.006.019-.016.051-.006.019-.016.053-.006.018-.015.05-.007.023-.015.048-.007.022-.015.049-.006.02-.016.052-.006.019-.016.052-.006.019-.019.06,0,.009-.066.213v0l-.021.067,0,.008-.019.062,0,.013-.017.055-.007.022-.015.048-.008.026-.014.045-.007.022-.015.049-.007.023-.014.045-.008.026-.014.044-.008.027-.014.045-.007.023-.015.049-.007.022-.016.05-.006.019-.016.05-.007.021-.018.056,0,.012-.019.061,0,.01-.089.282,0,.014-.018.057-.005.016-.017.053-.007.02-.016.051-.006.018-.016.05-.007.022-.016.049-.007.021-.015.048-.007.023-.016.049-.007.022-.015.047-.007.023-.016.049-.007.021-.016.05-.006.02-.017.053-.006.017-.018.056,0,.014-.02.061,0,.009-.068.212,0,.009-.02.061,0,.015-.018.054-.007.02-.016.05-.006.019-.016.05-.007.023-.015.047-.007.022-.016.048-.008.024-.015.046-.008.023-.015.046-.008.024-.016.048-.007.02-.016.048-.008.023-.016.05-.006.018-.018.054-.005.017-.138.418-.007.02-.017.05-.007.02-.016.049-.007.021-.017.051-.006.018-.017.05-.007.022-.016.048-.007.021-.017.049-.007.02-.017.05-.007.021-.015.046-.008.024-.016.049-.006.019-.018.054-.005.015-.019.058,0,.012-.021.062,0,.008-.071.212h0l-.022.066-.007.021-.016.049-.007.02-.017.05-.007.021-.016.049-.007.021-.016.047-.008.025-.016.047-.007.02-.017.05-.007.021-.016.047-.008.023-.015.044-.009.026-.016.046-.007.02-.017.051-.007.019-.019.057,0,.011-.022.064,0,.006-.1.28,0,.012-.02.058,0,.012-.019.055-.007.02-.017.05-.007.021-.016.047-.008.022-.017.049-.007.02-.017.048-.008.023-.016.047-.008.022-.016.046-.009.025-.016.047-.007.021-.017.049-.007.02-.019.053-.005.015-.02.057,0,.012-.023.067h0l-.073.209-.007.019-.018.051-.007.019-.017.049-.008.024-.016.046-.008.022-.016.047-.009.025-.015.044-.009.025-.015.043-.009.026-.015.043-.009.025-.015.043-.01.027-.015.043-.009.025-.016.046-.008.022-.019.052-.005.015-.019.054-.006.017-.02.055,0,.014-.022.06,0,.009-.05.138-.006.016-.019.054-.005.015-.019.053-.007.02-.018.05-.007.019-.017.048-.009.026-.015.043-.009.025-.015.042-.01.027-.015.042-.01.028-.014.038-.011.031-.014.04-.01.027-.015.043-.009.026-.016.044-.009.026-.015.04-.011.03-.014.039-.01.029-.016.043-.009.025-.016.045-.009.024-.015.042-.018.05-.016.044-.008.021-.018.048-.009.024-.016.044-.01.027-.015.041-.01.027-.016.042-.009.024-.016.044-.01.026-.016.042-.009.026-.016.043-.01.026-.016.044-.009.023-.017.047-.008.021-.018.048-.008.021-.017.046-.009.024-.016.044-.009.023-.017.045-.009.024-.019.05-.007.018-.02.055-.005.014-.051.137-.006.015-.02.053-.008.022-.017.045-.01.027-.016.042-.01.026-.015.041-.011.028-.015.04-.01.028-.015.04-.011.028-.016.041-.01.026-.016.042-.01.026-.016.042-.01.028-.015.039-.011.03-.015.039-.011.029-.015.04-.011.028-.017.043-.009.024-.018.049-.007.019-.052.137,0,.011-.022.057-.007.019-.019.049-.009.023-.017.045-.009.024-.017.045-.009.024-.017.044-.009.024-.017.043-.01.027-.016.041-.01.027-.016.041-.01.027-.016.04-.011.027-.015.04-.011.029-.015.039-.011.028-.016.04-.011.028-.016.041-.01.026-.016.041-.011.028-.019.049-.007.017-.053.136-.006.016-.019.05-.01.027-.016.041-.01.026-.016.042-.01.026-.017.043-.01.026-.015.039-.012.031-.014.037-.012.031-.014.037-.012.03-.015.038-.012.03-.014.035-.013.033-.013.034-.013.033-.014.035-.012.032-.015.037-.012.031-.013.033-.014.035-.013.033-.013.033-.02.051-.006.016-.026.067-.009.023-.018.044-.011.027-.016.041-.009.023-.018.045-.009.023-.017.044-.011.027-.016.039-.013.031-.014.036-.012.029-.015.039-.012.03-.015.037-.012.029-.015.037-.012.031-.015.037-.012.029-.016.039-.012.029-.015.038-.012.03-.014.034-.014.034-.014.034-.013.032-.017.043-.01.024-.027.067,0,.01-.023.056-.009.022-.019.046-.009.023-.017.043-.012.03-.015.037-.014.034-.012.031-.015.036-.013.033-.014.034-.013.033-.014.035-.013.032-.015.036-.012.03-.014.035-.014.034-.013.033-.013.033-.014.035-.013.031-.015.037-.011.026-.016.04-.012.028-.016.038-.012.029-.015.038-.011.027-.029.071-.014.033-.012.029-.016.038-.013.032-.014.034-.015.038-.012.028-.015.038-.012.03-.015.038-.012.029-.015.037-.013.03-.015.036-.013.031-.014.034-.013.032-.016.038-.011.028-.016.037-.012.029-.016.04-.01.025-.017.04-.011.026-.017.042-.008.02-.019.045-.01.023-.018.044-.009.022-.018.043-.007.016-.069.166-.006.014-.018.043-.01.025-.018.044-.009.021-.018.043-.01.025-.017.041-.01.024-.017.04-.012.028-.017.04-.01.024-.018.044-.009.022-.018.044-.009.021-.019.044-.009.022-.019.045-.007.017-.021.049-.008.018-.02.048-.007.016-.021.049-.008.018-.126.3,0,.011-.021.05-.007.016-.02.047-.008.019-.018.042-.011.025-.018.042-.01.022-.018.043-.01.023-.019.044-.01.022-.018.042-.011.025-.018.042-.009.022-.019.044-.009.021-.02.046-.008.02-.019.044-.011.025-.018.042-.007.017-.021.048,0,.011-.1.241,0,.007-.026.059,0,0-.021.049-.008.019-.02.047-.007.017-.02.046-.009.02-.02.045-.009.02-.019.044-.01.024-.018.042-.01.023-.019.043-.01.024-.018.042-.009.022-.019.044-.01.022-.019.044-.008.017-.021.048-.008.017-.021.048-.006.014-.023.052v0l-.109.249,0,.005-.025.057,0,.007-.023.052-.006.014-.021.048-.008.018-.02.044-.009.021-.02.046-.008.018-.02.045-.009.021-.02.045-.009.02-.019.044-.01.023-.02.045-.008.017-.021.047-.008.018-.021.048-.007.015-.022.049-.007.015-.162.361,0,.01-.023.052-.005.012-.021.046-.01.022-.02.044-.009.019-.02.045-.01.022-.019.043-.01.021-.019.042-.011.024-.019.042-.009.019-.022.048-.007.015-.023.05-.006.014-.022.049-.008.017-.022.05,0,.009-.026.057h0l-.171.375,0,.006-.025.055,0,.01-.025.054,0,.01-.024.053-.006.012-.022.048-.008.018-.022.048-.007.016-.022.048-.007.016-.023.049-.007.015-.022.049-.008.017-.022.048-.007.015-.023.049-.007.014-.024.051,0,.008-.026.056,0,.006-.17.368,0,.009-.025.054,0,.009-.023.049-.008.017-.022.048-.007.015-.023.05-.007.014-.024.051-.005.011-.024.052-.006.013-.024.051-.005.011-.025.054,0,.008-.027.057,0,0-.028.059,0,0-.235.5v0l-.028.059,0,0-.028.059,0,0-.028.059,0,.005-.027.057,0,.008-.027.057,0,.006-.027.056,0,.009-.027.056,0,.006-.027.057,0,.007c-.109.228-.219.459-.329.687h0l-.029.06,0,0-.029.061h0l-.03.061v0l-.029.06,0,0-.027.056,0,.01-.027.055,0,0-.029.06h0c-.132.272-.263.542-.4.813v0l-.029.058,0,.006-.028.058,0,0-.029.059,0,0-.06.123h0c-.123.25-.245.5-.369.747l0,0-.029.059,0,0-.029.058,0,.005-.029.058,0,0-.029.058,0,0c-.135.27-.269.537-.4.806h0l-.03.06,0,0-.03.059,0,0-.029.057,0,.006-.029.058v0l-.03.06h0c-.147.29-.294.578-.442.867h0l-.064.124h0l-.064.123h0q-.255.495-.512.987h0a195.481,195.481,0,0,1-29.169,41.56l-5.16-4.73A187.48,187.48,0,0,0,383,195l-.013-2.262,7-.083ZM330.309,325.52l5.038,4.86q-6.136,6.359-12.829,12.15h0l-.048.042-.008.007-.046.04-.007.006-.045.039-.01.009-.042.036-.013.011-.039.034-.016.014-.039.034-.013.011-.041.035-.014.012-.039.034-.015.013-.039.034-.015.013-.04.034-.012.01-.042.036-.011.01-.043.037-.01.008-.044.038-.009.008-.046.04h0l-.531.453,0,0-.044.037-.011.009-.043.037-.01.009-.043.036-.012.01-.041.035-.014.012-.038.032-.017.014-.039.033-.015.012-.04.034-.014.012-.04.034L320.8,344l-.036.031-.021.017-.034.028-.021.018-.032.027-.022.019-.033.028-.022.019-.031.026-.025.021-.03.026-.023.02-.031.026-.023.019-.033.027-.022.018-.033.027-.022.018-.034.028-.019.016-.035.029-.019.016-.037.031-.013.011-.041.034-.017.014-.188.158-.013.011-.038.031-.017.014-.033.028-.023.019-.031.026-.024.02-.028.023-.029.024-.024.02-.03.025-.026.021-.03.025-.027.022-.027.022-.03.025-.026.022-.029.024-.026.022-.03.025-.025.021-.03.025-.025.021-.029.024-.029.024-.026.021-.029.024-.027.023-.027.023-.028.023-.026.022-.029.024L319,345.5l-.027.023-.029.024-.026.021-.032.026-.023.019-.037.031-.018.014-.041.034-.014.012-.042.035-.013.011-.049.041-.006,0-.056.046h0l-.169.139,0,0-.053.043-.009.007-.047.039-.011.009-.044.036-.016.013-.04.033-.017.014-.038.031-.02.016-.037.03-.017.014-.039.032-.017.014-.04.033-.014.011-.042.034-.016.013-.04.033-.015.012-.041.033-.016.013-.042.034-.014.011-.04.033-.018.015-.039.031-.016.013-.042.034-.014.011-.044.036-.011.009-.045.036-.012.01-.048.039-.007.006-.05.04-.007.006-.11.089,0,0-.57.457,0,0-.111.089,0,0-.053.043,0,0-.053.042-.005,0-.052.042,0,0-.05.04-.008.007-.051.041,0,0-.054.043,0,0-.056.044h0l-.055.043,0,0a194.093,194.093,0,0,1-111.4,41.9l-.342-6.992A187.157,187.157,0,0,0,330.309,325.52ZM69.665,335.128A187.668,187.668,0,0,0,195,383q2.265,0,4.517-.053l.165,7h-.054l-.078,0-.077,0-.076,0-.076,0-.076,0-.12,0-.077,0h-.757l-.349.005h-.681l-.282,0h-5.992l-.095,0-.085,0-.081,0-.076,0-.077,0-.075,0-.076,0-.075,0-.076,0-.076,0-.077,0-.075,0-.094,0-.08,0-.081,0-.079,0-.077,0-.076,0-.076,0-.076,0-.077,0-.075,0-.074,0-.077,0-.076,0-.087,0-.088,0-.082,0-.079,0-.074,0-.077,0-.076,0-.077,0-.074,0-.076,0-.076,0-.076,0-.229-.008-.074,0-.077,0-.075,0-.076,0-.074,0-.078,0-.076,0-.077,0-.076,0-.08,0h-.025l-.068,0h-.007l-.076,0-.076,0-.076,0-.076,0-.075,0-.076,0-.075,0-.076,0-.077,0-.077,0-.077,0-.078,0h-.025l-.151-.007-.077,0-.074,0-.077,0-.074,0-.076,0-.074,0-.077,0-.073,0-.077,0-.078,0-.079,0-.085,0-.09,0-.076,0-.029,0-.046,0-.075,0-.076,0-.077,0-.075,0-.074,0-.077,0-.029,0-.05,0h-.025l-.055,0h-.02l-.059,0h-.017l-.151-.008h-.021l-.054,0-.027,0-.047,0-.031,0-.046,0-.075,0-.077,0-.075,0-.078,0h-.024l-.051,0h-.025l-.051,0h-.025l-.056,0H183.1l-.229-.014h-.01l-.064,0h-.024l-.051,0-.026,0-.05,0-.075,0-.074,0-.075,0-.077,0-.079-.005-.024,0-.053,0-.024,0-.062,0h-.012l-.075,0h0l-.077-.005h0l-.072,0-.027,0-.05,0-.024,0-.052,0-.025,0-.051,0-.074-.005-.077-.005-.075-.005-.075-.005-.028,0-.048,0-.027,0-.055,0h-.018l-.073-.005h0l-.155-.011h0l-.075-.005h-.012l-.062,0-.022,0-.053,0-.073-.005-.076-.006-.075-.006-.076-.006-.075-.006-.029,0-.048,0-.026,0-.049,0-.028,0-.05,0-.025,0-.064,0-.022,0-.064,0H179.9l-.055,0-.03,0-.046,0-.074-.006-.031,0-.045,0-.029,0-.045,0-.03,0-.046,0-.028,0-.046,0-.029,0-.048,0-.027,0-.048,0-.027,0-.054,0-.02,0-.062,0h-.014l-.151-.012H178.9l-.059,0-.021,0-.054,0-.026,0-.05,0-.025,0-.049,0-.028,0-.047,0-.028,0-.046,0-.031,0-.046,0-.028,0-.047,0-.029,0-.051,0-.022,0-.055,0-.021,0-.07-.006h0l-.076-.007h-.013l-.063-.005-.018,0-.055,0-.028,0-.047,0-.027,0-.047,0-.029,0-.046,0-.031,0-.041,0-.035,0-.041,0-.033,0-.043,0-.032,0-.046,0-.028,0-.049,0-.026,0-.055,0-.02,0-.151-.014h-.005l-.069-.006-.017,0-.058-.005-.019,0-.056-.005-.022,0-.053,0-.022,0-.052,0-.025,0-.05,0-.024,0-.053-.005-.022,0-.053-.005-.023,0-.05,0-.026,0-.054-.005-.019,0-.061-.006h-.014l-.152-.015h0l-.073-.007H175.9l-.061-.006-.022,0-.052-.005-.026,0-.048,0-.029,0-.047,0-.029,0-.045,0-.03,0-.045,0-.029,0-.046,0-.028,0-.049,0-.026,0-.05-.005-.024,0-.053-.005-.022,0-.065-.007-.027,0-.056-.006-.026,0-.049-.005-.025,0-.049-.005-.028,0-.046,0-.03,0-.044,0-.03,0-.044,0-.031,0-.043,0-.031,0-.044,0-.032,0-.044,0-.029,0-.049-.005-.025,0-.059-.006h-.014l-.066-.007h-.009l-.15-.016-.021,0-.053-.006-.031,0-.042,0-.034,0-.041,0-.031,0-.044,0-.03,0-.045,0-.03,0-.044,0-.031,0-.043,0-.031,0-.044,0-.03,0-.046-.005-.029,0-.047-.005-.027,0-.063-.007h-.01l-.151-.017-.014,0-.059-.007-.024,0-.05-.006-.025,0-.049-.006-.028,0-.045-.005-.032,0-.041,0-.034,0-.042,0-.03,0-.046-.005-.028,0-.047-.005-.026,0-.049-.006-.025,0-.062-.007h-.01l-.152-.018h0l-.07-.008-.019,0-.057-.007-.018,0-.055-.006-.024,0-.05-.006-.027,0-.046-.005-.028,0-.047-.006-.028,0-.045-.005-.029,0-.046-.006-.029,0-.046-.006-.028,0-.05-.006-.025,0-.056-.007-.018,0-.15-.018h-.012l-.062-.008-.02,0-.055-.007-.022,0-.051-.006-.024,0-.049-.006-.028,0-.046-.006-.027,0-.047-.006-.028,0-.047-.006-.027,0-.047-.006-.029,0-.045-.006-.028,0-.051-.006-.023,0-.067-.009h-.005l-.151-.019h-.007l-.067-.009-.017,0-.058-.007-.02,0-.053-.007-.024,0-.052-.007-.021,0-.053-.007-.022,0-.052-.007-.024,0-.048-.006-.026,0-.051-.007-.022,0-.054-.007-.02,0-.061-.008-.012,0-.072-.009h0l-.152-.02h0l-.069-.009-.019,0-.054-.007-.025,0-.049-.007-.024,0-.051-.007-.026,0-.048-.007-.025,0-.05-.007-.025,0-.052-.007-.02,0-.057-.008-.017,0-.06-.008-.014,0-.062-.008-.013,0-.225-.031H168.1l-.067-.009-.017,0-.058-.008-.018,0-.054-.008-.024,0-.05-.007-.024,0-.049-.007-.025,0-.05-.007-.024,0-.051-.007-.023,0-.058-.008-.014,0-.069-.01h0l-.3-.043h-.005l-.068-.01-.013,0-.061-.009-.017,0-.057-.008-.018,0-.056-.008-.022,0-.052-.008-.022,0-.052-.008-.023,0-.054-.008-.019,0-.055-.008-.02,0-.062-.009-.01,0-.3-.044h0l-.067-.01-.017,0-.058-.009-.018,0-.054-.008-.024,0-.052-.008-.022,0-.052-.008-.022,0-.053-.008-.022,0-.05-.008-.025,0-.053-.008-.019,0-.057-.009-.017,0-.067-.01h-.007l-.151-.023h0l-.074-.011h-.009l-.064-.01-.018,0-.054-.008-.025,0-.049-.008-.023,0-.05-.008-.025,0-.049-.008-.024,0-.049-.008-.026,0-.051-.008-.02,0-.056-.009-.019,0-.067-.01h0l-.224-.035-.011,0-.064-.01-.014,0-.059-.009-.019,0-.057-.009-.017,0-.055-.009-.022,0-.053-.009-.02,0-.053-.008-.022,0-.056-.009-.016,0-.06-.01-.014,0-.068-.011h-.005l-.074-.012h0l-.3-.049-.01,0-.064-.01-.014,0-.059-.01-.017,0-.057-.009-.015,0-.058-.01-.018,0-.057-.01-.015,0-.059-.01-.016,0-.063-.011-.009,0-.068-.011h-.006l-.374-.063h0l-.068-.012-.011,0-.063-.011-.013,0-.059-.01-.019,0-.056-.01-.017,0-.058-.01-.015,0-.06-.01-.014,0-.059-.01-.015,0-.065-.011h-.008l-.3-.052h0l-.072-.012-.01,0-.063-.011-.015,0-.056-.01-.023,0-.052-.009-.02,0-.056-.01-.017,0-.059-.01-.014,0-.059-.01-.015,0-.064-.011h-.008l-.069-.012h-.006l-.3-.053-.01,0-.063-.011-.014,0-.059-.011-.017,0-.057-.01-.017,0-.056-.01-.019,0-.054-.01-.019,0-.055-.01-.018,0-.059-.011-.013,0-.063-.012-.01,0-.371-.068h0l-.068-.013-.014,0-.06-.011-.013,0-.06-.011-.014,0-.06-.011-.012,0-.061-.011-.013,0-.061-.011-.012,0-.064-.012-.009,0-.52-.1h0l-.069-.013-.008,0-.065-.012-.012,0-.059-.011-.017,0-.057-.011-.015,0-.063-.012-.009,0-.067-.013h-.006l-.446-.086h0l-.072-.014h0l-.068-.013-.008,0-.064-.012-.013,0-.06-.012-.013,0-.06-.012-.014,0-.061-.012-.012,0-.062-.012-.011,0-.442-.088-.01,0-.063-.013-.011,0-.062-.012-.013,0-.061-.012-.013,0-.06-.012-.015,0-.059-.012-.015,0-.059-.012-.014,0-.062-.013-.011,0-.069-.014h0l-.3-.06-.008,0-.065-.013-.011,0-.061-.013-.016,0-.056-.012-.017,0-.057-.012-.016,0-.059-.012-.014,0-.058-.012-.016,0-.059-.012-.013,0-.063-.013-.009,0-.369-.077h0l-.069-.015-.015,0-.059-.013-.012,0-.06-.013-.013,0-.061-.013-.012,0-.061-.013-.013,0-.065-.014h-.006l-.071-.015h0l-.443-.1h-.007l-.067-.014-.007,0-.065-.014-.011,0-.06-.013-.016,0-.055-.012-.02,0-.055-.012-.016,0-.059-.013-.014,0-.064-.014-.007,0-.07-.015h0l-.44-.1-.009,0-.065-.014-.008,0-.064-.014-.011,0-.064-.014-.008,0-.065-.014-.009,0-.066-.015h-.006l-.068-.015h0l-.442-.1h0l-.071-.016h-.006l-.065-.015-.011,0-.063-.014-.009,0-.063-.014-.011,0-.064-.015-.008,0-.065-.015-.009,0-.07-.016h0l-.512-.118-.009,0-.064-.015-.009,0-.064-.015-.009,0-.065-.015-.008,0-.063-.015-.01,0-.067-.016h0l-.513-.121h0l-.072-.017h0l-.072-.017h0l-.07-.017h0l-.068-.016-.007,0-.069-.016h0l-.658-.159-.007,0-.066-.016-.008,0-.064-.015-.01,0-.066-.016h0l-.07-.017h0l-.658-.162h0l-.069-.017-.007,0-.067-.017h0l-.068-.017h-.006l-.071-.018h0l-.073-.018h0l-.582-.147-.008,0-.066-.017h-.005l-.067-.017-.006,0-.068-.017h0l-.07-.018h0l-.582-.15h0l-.07-.018h0l-.071-.019h0l-.07-.018h0l-.068-.018-.006,0-.58-.152h0l-.145-.038h0l-.144-.038h0l-.726-.194h0l-.069-.019h0l-.067-.018-.007,0-.068-.018h0l-.07-.019h0l-.723-.2h0l-.069-.019h0l-.071-.02h0A194.636,194.636,0,0,1,65,340.344ZM7.351,206.594A187.145,187.145,0,0,0,66.114,331.867l-4.8,5.1-.056-.053,0,0-.05-.047-.01-.01-.042-.04-.012-.011-.04-.038-.016-.015-.036-.034-.017-.016L61,336.663l-.019-.018-.033-.032-.018-.017-.034-.032-.02-.019-.033-.031-.018-.017-.033-.031-.021-.019-.032-.031-.019-.018-.032-.031-.022-.021-.03-.029-.021-.02-.032-.03-.021-.02-.032-.03-.02-.019-.031-.03-.023-.022-.03-.028-.021-.02-.033-.031-.02-.019-.033-.032L60.3,336l-.034-.032-.019-.019-.038-.036L60.2,335.9l-.042-.04-.01-.01-.094-.09-.011-.01-.209-.2-.008-.007-.045-.043-.008-.008-.044-.042-.01-.01-.042-.041-.012-.011-.038-.037-.02-.019-.032-.03-.021-.02-.031-.03-.02-.019-.032-.031-.02-.02-.03-.029-.023-.022-.03-.029-.021-.02-.032-.031-.019-.019L59.259,335l-.019-.018-.031-.03-.023-.022-.029-.028-.022-.021-.03-.029-.021-.021-.032-.031-.02-.019-.031-.03-.021-.021-.031-.03-.02-.02-.033-.032-.018-.018-.033-.032-.019-.019-.029-.028-.023-.022-.029-.028-.023-.022-.037-.036-.014-.013-.05-.049h0l-.156-.153h0l-.049-.048-.014-.014-.036-.036-.019-.018-.033-.032-.017-.017-.034-.034-.017-.017-.034-.034-.018-.018-.033-.032-.019-.019-.033-.033-.016-.016-.035-.035-.018-.018L58,333.77l-.02-.02-.03-.029-.023-.022-.03-.029-.02-.019-.032-.032-.02-.02-.031-.03-.02-.02-.031-.031-.02-.02-.032-.032-.019-.018-.033-.032-.019-.019-.031-.031-.021-.02-.029-.029-.023-.022-.029-.029-.022-.022-.031-.031-.02-.02-.033-.033-.018-.018-.033-.033-.018-.018-.039-.039-.011-.011L57.227,333l-.01-.01-.046-.046-.083-.083-.024-.024-.021-.021-.029-.029-.021-.021-.03-.03-.02-.02-.031-.031-.02-.02-.032-.032-.018-.018-.032-.032-.021-.021-.029-.029-.024-.024-.026-.026-.024-.024-.028-.028-.021-.021-.03-.03-.021-.021-.031-.031-.02-.02-.031-.031-.019-.019-.032-.033-.019-.019-.031-.031-.021-.021-.03-.03-.021-.021-.028-.029-.023-.023-.029-.029L56.231,332l-.029-.03-.021-.021-.031-.032-.019-.019-.033-.034-.017-.018-.035-.035-.016-.016-.035-.035-.016-.016-.036-.036-.015-.015-.038-.039-.012-.012-.048-.049,0,0-.153-.156,0,0-.046-.047-.011-.011-.038-.039-.02-.02-.03-.03-.022-.023-.028-.029-.022-.023-.029-.029-.02-.02-.031-.032-.019-.019-.032-.033-.018-.018-.033-.033L55.254,331l-.033-.034-.017-.017-.033-.034-.018-.019-.032-.033-.018-.019-.032-.033-.02-.02-.032-.033L55,330.743l-.034-.035-.016-.017-.035-.037-.014-.014-.036-.037-.015-.015-.035-.036-.016-.016-.034-.035-.017-.018-.034-.035-.016-.016-.034-.035-.017-.018-.038-.04-.01-.011-.045-.046-.006-.006-.252-.262,0,0-.045-.047-.016-.016-.035-.036-.014-.014-.036-.038-.013-.014-.038-.04-.01-.01-.038-.04-.018-.019L54,329.7l-.02-.021-.029-.031-.02-.021-.03-.031-.021-.022-.027-.028-.024-.025-.027-.028-.022-.023-.028-.029-.02-.021-.031-.033-.018-.019-.03-.032-.02-.021-.031-.032-.018-.019-.031-.033-.018-.02-.032-.034-.017-.018-.03-.032-.02-.021-.034-.036-.014-.015-.038-.04-.011-.012-.041-.043-.009-.009-.039-.041-.011-.012-.042-.044-.007-.008-.3-.318-.006-.006-.043-.045-.013-.013-.037-.04-.011-.012-.038-.041-.014-.015-.034-.037-.016-.017-.033-.035-.017-.018-.033-.036-.014-.014-.036-.038-.015-.016-.035-.037-.014-.016-.034-.036-.018-.019L52.4,328l-.016-.018-.032-.034-.019-.02-.03-.032-.019-.02-.029-.031-.021-.023-.03-.033-.016-.018-.034-.036-.016-.018-.034-.036-.014-.015-.034-.037-.016-.017-.037-.04-.01-.011-.04-.044-.009-.01-.045-.049,0,0-.044-.048-.006-.006-.3-.32-.006-.007-.043-.046-.008-.009-.039-.043-.014-.015-.037-.04-.01-.011-.037-.041-.014-.016-.035-.038-.015-.016-.033-.036-.017-.019-.033-.036-.016-.018-.031-.034-.019-.021-.03-.033-.019-.02-.029-.032-.019-.021-.031-.034-.017-.019-.03-.032-.02-.022-.03-.032-.019-.021-.029-.032-.02-.021-.03-.033-.018-.02-.029-.032-.02-.022-.029-.032-.019-.021-.029-.032-.02-.022-.033-.036-.014-.016-.035-.039L50.557,326l-.037-.041-.012-.013-.244-.269,0,0-.044-.049-.007-.008-.041-.045-.013-.014-.035-.039-.015-.016-.034-.037-.016-.018-.032-.036-.016-.018-.032-.036-.017-.019-.031-.034-.017-.019-.031-.035-.019-.021-.03-.033-.017-.019-.032-.036-.016-.018-.032-.036-.015-.017-.032-.036-.017-.019-.032-.035-.016-.017-.033-.037-.016-.018-.034-.038-.013-.014-.034-.039-.015-.017-.034-.038-.013-.015-.034-.039-.014-.016-.037-.041-.01-.012L49.3,324.6l-.012-.014-.046-.052h0l-.046-.052,0,0-.29-.327,0,0-.045-.051,0,0-.046-.052,0,0-.046-.052,0,0-.043-.049-.013-.014-.036-.041-.012-.013-.036-.041-.012-.014-.036-.041-.012-.014-.035-.04-.014-.016-.035-.039-.013-.015-.034-.039-.013-.015-.035-.04-.013-.015-.033-.038-.016-.018-.033-.037-.014-.016-.035-.039-.012-.014-.037-.042-.011-.013-.035-.04-.013-.015-.035-.04-.012-.014-.039-.045-.007-.008-.043-.049,0-.005-.041-.047-.007-.008L47.889,323l0,0-.239-.275,0,0-.043-.049-.016-.018-.031-.036-.016-.019-.032-.037-.013-.015-.035-.04-.012-.014-.036-.041-.011-.013-.035-.041-.014-.016-.034-.039-.012-.014-.036-.041-.013-.015-.034-.039-.014-.017-.032-.037-.016-.019-.032-.037-.014-.016-.033-.038-.015-.017-.032-.037L47.02,322l-.033-.038-.014-.017-.034-.04-.012-.014-.035-.04-.013-.015-.033-.039-.014-.016-.032-.038-.015-.017-.034-.04-.012-.014-.035-.04-.013-.015-.039-.045-.008-.009-.046-.053h0l-.189-.222,0,0-.043-.051-.005-.006-.041-.049-.01-.011-.037-.044-.011-.013-.035-.041-.013-.016-.034-.04-.012-.014-.034-.041-.014-.016-.032-.038-.016-.018-.03-.036-.017-.02-.031-.037-.015-.017-.032-.038-.014-.017-.034-.04-.012-.014-.035-.041-.011-.013-.037-.043-.01-.012-.036-.042-.012-.014-.034-.041-.012-.015-.034-.04-.013-.016-.034-.041-.012-.014-.034-.041-.013-.015-.035-.042-.011-.013-.038-.045-.008-.01-.041-.049,0-.006-.042-.051,0-.005L45.324,320h0l-.234-.281h0l-.044-.053-.009-.01L45,319.6l-.012-.014-.034-.041-.013-.015-.032-.039-.017-.021-.029-.035-.016-.02-.029-.035-.018-.021-.028-.034-.017-.021-.029-.035-.019-.022-.027-.033-.018-.022-.028-.033-.019-.023-.027-.032-.019-.023-.027-.033-.019-.023-.028-.034-.016-.02-.031-.037-.015-.018-.033-.04-.012-.015-.034-.041-.013-.015-.033-.041-.012-.015-.035-.042-.011-.014-.038-.047-.007-.008-.037-.045-.01-.012-.043-.052,0,0-.278-.34h0l-.044-.054-.011-.013-.036-.044-.007-.009-.038-.047-.008-.01-.039-.048-.006-.008-.038-.046-.013-.015-.034-.041-.011-.014-.034-.042-.012-.015-.034-.042-.012-.015-.031-.039-.016-.019-.031-.038-.014-.017-.032-.04-.013-.016-.034-.042-.011-.014-.033-.041-.013-.016-.035-.043-.01-.013-.035-.044-.01-.013-.036-.045-.009-.011-.034-.042-.013-.016-.037-.046L43,317.165l-.043-.054,0,0-.366-.456,0,0-.043-.054,0,0-.042-.052-.007-.009-.037-.047-.009-.011-.036-.045-.011-.014-.034-.042-.013-.016-.032-.04-.016-.02-.03-.038-.013-.016-.033-.041-.013-.016-.032-.041-.013-.016-.031-.039-.016-.02-.03-.038-.013-.017-.031-.04-.014-.018-.03-.038-.014-.018-.03-.038-.015-.019-.032-.041-.011-.014-.034-.043-.011-.014-.035-.045-.009-.011-.034-.043-.012-.015-.037-.048-.006-.007-.039-.05-.006-.008-.041-.052,0,0-.041-.052,0-.005-.18-.229-.006-.008-.04-.05,0,0-.041-.053-.01-.013-.034-.044-.011-.014-.032-.041-.014-.018-.032-.041-.01-.013-.033-.043-.013-.017-.032-.04-.014-.018-.03-.038-.016-.02-.03-.039L41,314.631l-.03-.039-.015-.019-.03-.039-.014-.018-.029-.038-.015-.019-.031-.04-.012-.016-.031-.041-.013-.017-.031-.04-.014-.017-.03-.039-.014-.018-.032-.041-.012-.016-.032-.041-.012-.016-.033-.043-.011-.014-.034-.045L40.51,314l-.038-.049-.006-.008-.042-.054,0,0-.267-.347-.005-.007-.039-.05-.007-.01-.037-.048-.009-.012-.034-.045-.011-.014-.033-.043-.013-.017-.031-.041-.013-.017-.03-.04-.015-.019-.029-.038-.014-.018-.03-.039-.015-.02-.028-.037-.015-.02-.028-.037-.016-.021-.029-.038-.014-.018-.029-.038-.016-.021-.027-.036-.015-.02-.029-.038-.016-.02-.03-.04-.012-.016-.03-.04-.015-.02-.029-.038-.014-.019-.028-.037-.016-.021-.032-.042-.01-.013-.033-.044-.011-.015-.041-.054v0l-.043-.057v0l-.088-.117,0-.006-.04-.053,0-.006L39,312.025l-.011-.015-.033-.044-.009-.013-.033-.044-.014-.019-.03-.04-.013-.017-.03-.04-.015-.02-.029-.039-.015-.019-.027-.036-.018-.024-.027-.036-.015-.02-.028-.038-.015-.02-.029-.039-.014-.019-.028-.037-.016-.022-.028-.038-.014-.018-.03-.04-.013-.017-.03-.041-.014-.018-.027-.037-.017-.022-.027-.037-.016-.021-.029-.039-.013-.018-.03-.041-.013-.018-.029-.039-.015-.02-.03-.04-.013-.017-.034-.046-.008-.011-.036-.049-.007-.01-.035-.047-.008-.011-.216-.293,0-.006-.039-.053,0-.005-.039-.052-.008-.011-.034-.047-.01-.014-.033-.045-.009-.013-.033-.046-.011-.015-.032-.043-.012-.016-.031-.043-.012-.016-.032-.043-.01-.014-.033-.045-.011-.015-.031-.042-.012-.017-.03-.04-.014-.02-.029-.039-.013-.018-.03-.041-.013-.017-.031-.043-.011-.015-.031-.043-.012-.016-.031-.043-.011-.015-.032-.044-.011-.015-.033-.045-.01-.013-.032-.044L37,309.308l-.035-.049-.006-.009-.038-.052,0-.007-.214-.3,0-.006-.037-.052-.013-.018-.03-.042-.013-.018-.029-.04-.016-.022-.026-.037-.015-.021-.027-.037-.014-.02-.029-.04-.014-.019-.027-.038-.016-.023-.026-.036-.017-.024-.024-.033-.018-.025-.025-.035-.016-.022-.026-.037-.015-.021-.027-.038-.015-.021-.027-.038-.015-.021-.028-.039-.014-.02-.027-.038-.015-.021-.026-.036-.017-.023-.024-.033-.018-.026-.023-.033-.018-.026-.024-.033-.018-.025-.025-.035-.017-.023-.028-.04-.013-.018-.032-.046-.009-.013-.036-.051-.006-.008-.039-.055,0,0-.084-.119,0,0-.04-.057-.006-.009-.036-.05-.009-.012-.033-.047-.011-.016-.03-.043-.012-.018-.029-.041-.015-.022-.026-.037-.016-.023-.025-.035-.018-.026-.023-.033-.018-.026-.024-.034-.018-.026-.024-.034-.017-.024-.025-.036-.016-.023-.025-.036-.016-.023-.025-.036-.016-.023-.025-.035L35,306.494l-.024-.035-.017-.025-.024-.035-.017-.024-.026-.037-.015-.022-.028-.04-.013-.018-.028-.04-.014-.02-.027-.039-.014-.02-.027-.038-.015-.022-.026-.037-.015-.022-.025-.036-.017-.024-.028-.04-.013-.018-.124-.179-.007-.01-.034-.05-.012-.018-.028-.041-.016-.023-.025-.037-.016-.024-.024-.035-.018-.026-.024-.034-.016-.023-.025-.036-.015-.022-.026-.038-.015-.022-.025-.036-.018-.026-.023-.033-.018-.027-.023-.033-.018-.027-.023-.033-.019-.028-.021-.03-.02-.029-.022-.032-.017-.025-.024-.035-.017-.024-.024-.035-.017-.026-.022-.032-.019-.028-.023-.033-.018-.026-.023-.033-.018-.027-.023-.034-.018-.026-.021-.031-.02-.03-.021-.03-.019-.029-.024-.035-.017-.024-.026-.038-.015-.022-.022-.032-.019-.028-.02-.03-.02-.029-.023-.034-.044-.065-.013-.019-.038-.056v0l-.026-.038-.016-.023-.018-.027-.022-.033-.019-.028-.021-.032-.02-.03-.02-.029-.022-.032-.019-.028-.02-.03-.02-.03-.02-.03-.02-.03-.02-.03-.02-.029-.021-.032-.019-.029-.019-.029-.021-.032-.02-.03-.019-.029-.021-.031-.019-.029-.021-.031-.02-.03-.019-.029-.021-.031-.02-.03-.02-.03-.019-.029-.02-.029-.021-.032-.019-.029-.02-.029-.022-.032-.019-.029-.022-.032-.018-.026-.022-.033-.019-.028-.023-.035-.016-.023-.026-.04-.014-.021-.03-.045-.01-.015-.035-.052-.005-.008-.08-.121-.009-.014-.031-.047-.01-.016-.029-.043-.016-.025-.024-.036-.018-.027-.021-.032-.021-.032-.019-.029-.02-.03-.019-.029-.021-.031-.02-.03-.02-.031-.018-.027-.022-.034-.019-.028-.019-.03-.02-.031-.019-.029-.022-.033-.018-.027-.021-.032-.019-.029-.021-.032-.019-.029-.019-.03-.02-.03-.022-.033-.018-.027-.021-.032-.019-.029-.021-.032-.018-.028-.02-.031-.02-.03-.019-.03-.02-.031-.018-.028-.021-.032-.018-.028-.021-.033-.015-.024-.024-.037-.017-.025-.023-.035L31.3,301l-.023-.036-.014-.022-.092-.142-.011-.016-.021-.032-.019-.029L31.1,300.7l-.021-.033-.017-.027-.022-.034-.02-.03-.019-.03-.02-.031-.019-.029-.022-.034-.017-.027-.021-.033-.017-.027-.024-.037-.014-.022-.023-.037-.016-.025-.023-.035-.017-.026-.021-.033-.017-.027-.023-.036-.016-.025-.022-.034L30.653,300l-.022-.034-.017-.027-.02-.032-.019-.03-.021-.032-.018-.028-.02-.032-.018-.029-.021-.033-.018-.028-.019-.031-.019-.03L30.4,299.6l-.016-.025-.022-.034-.016-.026-.023-.037-.014-.021-.024-.038-.017-.026-.023-.036-.014-.021-.024-.038-.016-.024-.04-.063-.022-.034-.063-.1-.013-.021-.022-.035-.016-.026-.019-.031-.02-.032-.019-.03-.018-.029-.02-.032-.019-.03-.019-.03-.02-.031-.017-.028-.022-.035-.016-.026-.021-.033-.019-.03-.02-.032-.018-.029-.02-.031-.018-.029-.021-.033-.018-.029-.019-.03-.02-.032-.019-.031-.019-.03-.019-.03-.019-.031-.02-.031-.019-.031-.016-.026-.023-.037-.015-.024-.023-.036-.016-.025-.022-.035-.017-.027-.022-.035-.015-.024-.023-.036-.018-.029-.019-.031-.022-.035-.016-.026-.022-.035-.017-.027-.014-.022-.085-.138-.015-.023-.016-.026-.021-.035-.019-.03L29,297.371l-.019-.03-.019-.031-.017-.028-.021-.033-.02-.032-.018-.029-.022-.035-.016-.026-.023-.038-.015-.024-.021-.035L28.774,297l-.021-.034-.017-.027-.021-.034-.017-.027-.021-.035-.017-.028-.019-.031-.019-.031-.02-.033-.016-.026-.022-.036-.015-.025-.023-.037-.015-.024-.022-.036-.016-.026-.022-.037-.014-.022-.024-.039-.014-.023-.023-.038-.015-.025-.021-.035-.016-.026-.022-.037-.012-.02-.026-.043-.009-.014-.029-.048,0-.008-.032-.052-.009-.014-.029-.048h0l-.176-.29-.008-.014-.029-.048-.008-.013-.026-.043-.012-.02-.024-.04-.013-.021-.023-.038-.015-.025L27.8,295.4l-.015-.025-.021-.036-.016-.027-.021-.035-.015-.026-.022-.036-.016-.027-.022-.036-.014-.024-.022-.037-.016-.027-.02-.034L27.558,295l-.021-.035-.017-.028-.02-.034-.017-.028-.019-.032-.019-.032-.018-.03-.019-.031-.018-.031-.018-.029-.02-.034-.015-.025-.022-.037-.015-.026-.022-.036-.014-.024-.023-.038-.015-.025-.022-.037-.015-.025-.022-.037-.012-.02-.025-.042,0-.006-.171-.289-.007-.012-.026-.045-.01-.017-.022-.038-.015-.025-.022-.038-.014-.024-.022-.038-.014-.024-.022-.037-.014-.025-.022-.038-.014-.024-.023-.039-.013-.023-.023-.039-.014-.024-.022-.038-.015-.025-.021-.036-.015-.026-.022-.038-.014-.024-.022-.037-.015-.026-.022-.037-.015-.025-.021-.037-.014-.025-.023-.039-.013-.022-.022-.039-.015-.025-.022-.037-.015-.026-.02-.035-.016-.027-.022-.038-.011-.019-.025-.043-.009-.016-.027-.047-.007-.011-.029-.051,0-.006-.245-.424h0l-.03-.051-.007-.012-.03-.051-.006-.01-.028-.049-.008-.014-.026-.045-.01-.017-.024-.042-.012-.021-.024-.042-.011-.018-.025-.044-.011-.019-.025-.043-.011-.019-.025-.043-.011-.019-.026-.045-.009-.016-.026-.046-.01-.018-.025-.043-.012-.02-.024-.041-.012-.022-.024-.041-.011-.02-.025-.043-.011-.019-.025-.043-.011-.019-.025-.043-.011-.02-.025-.043-.01-.017-.026-.046-.009-.016-.025-.045-.014-.024-.021-.037-.014-.025-.022-.039v0L25,290.6v0l-.033-.059v0l-.029-.051-.007-.013-.024-.043-.011-.02-.024-.043-.011-.019-.025-.045-.009-.017-.025-.045-.01-.018-.024-.043-.011-.02-.025-.044-.01-.019-.025-.045-.009-.017-.026-.046-.01-.018-.024-.042-.012-.022-.023-.042-.012-.021-.024-.043-.01-.018-.025-.045-.009-.017-.025-.045-.011-.019-.025-.044-.01-.018-.025-.044-.01-.018-.026-.046-.008-.015-.026-.046-.011-.019-.025-.045-.009-.016-.026-.047-.008-.014-.028-.05v0l-.033-.06v0L24,288.8h0l-.033-.06v0l-.028-.051-.008-.014-.027-.049-.007-.013-.026-.048-.009-.016-.026-.048-.008-.014-.026-.047-.01-.018-.025-.045-.009-.017-.025-.046-.01-.018-.025-.046-.008-.015-.026-.047-.009-.017-.025-.047-.008-.015-.026-.048-.008-.015-.026-.049-.007-.012-.027-.051-.007-.013-.027-.05-.006-.012-.028-.052-.006-.01-.029-.053,0-.008-.03-.055-.005-.01-.029-.054,0,0-.032-.059,0,0-.032-.059v0l-.231-.43,0-.007L23.022,287l-.007-.012-.027-.05-.007-.013-.027-.05-.008-.014-.024-.045-.011-.02-.024-.045-.009-.017-.024-.046-.01-.018-.025-.047-.008-.016-.025-.047-.009-.017-.025-.048-.008-.015-.025-.046-.01-.018-.025-.047-.008-.016-.025-.047-.009-.016-.025-.047-.008-.016-.025-.047-.008-.015-.027-.05,0-.009-.028-.053-.007-.012-.028-.053,0-.006-.029-.056-.005-.01c-.13-.246-.261-.5-.39-.743l0-.006-.031-.059,0,0-.028-.053-.007-.013-.026-.049-.007-.014-.024-.046-.01-.02-.024-.047-.008-.015-.026-.049-.008-.015-.025-.049-.007-.014-.025-.048-.009-.017-.025-.048-.007-.013-.026-.05-.008-.015-.025-.049-.008-.015-.025-.048-.009-.018-.024-.047-.007-.014-.026-.051-.006-.011-.027-.053,0-.009-.028-.054-.006-.011-.028-.054,0,0-.322-.63h0l-.027-.053-.006-.013-.028-.054,0-.008-.028-.055,0-.009-.027-.053-.006-.011-.025-.049-.009-.017-.025-.048-.007-.014-.025-.049-.008-.015-.024-.048-.008-.017-.023-.045-.011-.021-.023-.045-.008-.017-.025-.049-.007-.014-.026-.052-.005-.01-.026-.052-.008-.015-.025-.05-.006-.012-.026-.052-.006-.011-.027-.054,0-.009-.027-.053-.007-.015-.026-.052,0-.005-.03-.059v0l-.315-.632,0,0-.03-.061v0l-.028-.057,0-.009-.027-.055,0-.01-.025-.05-.009-.017-.024-.049-.007-.014-.025-.05-.007-.015-.025-.051-.006-.012-.025-.05-.008-.017-.023-.048-.008-.017-.023-.047-.009-.018-.023-.048-.008-.016-.024-.048-.009-.018-.024-.049-.006-.011-.026-.053-.005-.01-.027-.055,0-.006-.029-.059v0c-.125-.256-.248-.508-.372-.765v0l-.029-.06,0-.005-.027-.057,0-.008-.028-.059,0-.005-.028-.058,0-.007-.028-.058,0-.006-.028-.057,0-.008-.027-.055,0-.01-.026-.053-.006-.013-.025-.053-.005-.011-.025-.053-.006-.012-.025-.053-.006-.012L19,279.054l-.006-.012-.026-.054,0-.007-.027-.057,0-.008-.027-.057,0-.008-.027-.056,0-.01c-.121-.255-.242-.509-.362-.764v0l-.059-.125,0-.005-.027-.057,0-.008-.025-.054-.006-.013-.026-.055,0-.009-.027-.057,0-.008-.027-.057,0-.008-.026-.056,0-.01-.027-.058,0,0-.029-.061v0l-.028-.061,0-.005-.027-.058,0-.009-.027-.057,0-.005-.028-.06,0,0-.028-.06,0-.007-.027-.059,0,0c-.13-.28-.257-.556-.386-.838v0l-.029-.063v0l-.029-.063v0l-.027-.06,0-.007-.027-.059,0-.006-.027-.059,0-.006-.027-.059,0-.007-.025-.056-.005-.011-.025-.056,0-.008-.027-.059,0,0-.028-.063h0l-.029-.064v0c-.177-.39-.352-.779-.526-1.17h0l-.057-.128,0,0-.027-.062v0L16.664,274v0l-.028-.062v0l-.027-.061,0-.007-.026-.059,0-.006-.027-.06,0-.005-.027-.061,0,0-.027-.061,0,0c-.173-.392-.343-.781-.513-1.175v0l-.028-.065h0l-.027-.064v0l-.027-.063v0l-.027-.062,0,0-.027-.063v0l-.027-.063,0,0-.055-.129v0l-.112-.262h0c-.159-.373-.317-.745-.474-1.118h0l-.025-.061,0-.008-.026-.061v0l-.026-.063v0l-.027-.064v0l-.026-.062,0-.006-.026-.062h0l-.027-.065h0l-.055-.132h0q-.275-.661-.545-1.323h0l-.027-.066h0l-.026-.065v0l-.026-.063v0l-.025-.061,0-.008-.025-.061v0L14.2,268.2v0l-.053-.131v0c-.179-.443-.356-.884-.532-1.329h0l-.158-.4h0l-.026-.066h0l-.025-.065,0,0-.025-.063h0q-.249-.634-.492-1.269h0l-.051-.133v0l-.025-.066h0l-.025-.065v0l-.05-.132v0c-.188-.492-.371-.98-.555-1.474l0-.006-.023-.063v0l-.023-.063,0-.006-.023-.063v0l-.024-.064v0l-.049-.133h0L12,262.512h0l-.024-.066v0c-.133-.36-.263-.717-.394-1.078h0l-.024-.065v0l-.024-.065v0l-.023-.065v0l-.023-.063,0-.006-.023-.063v0l-.023-.064v0l-.023-.064v0l-.022-.062,0-.008-.022-.061,0,0-.023-.063,0,0-.023-.064v0l-.023-.065v0c-.161-.452-.319-.9-.477-1.353v0l-.023-.065v0l-.023-.065v0l-.023-.065v0l-.023-.066v0l-.023-.065v0l-.023-.066v0l-.047-.135h0c-.141-.408-.28-.815-.418-1.224v0l-.022-.064,0-.005-.021-.062,0-.007-.021-.063,0,0-.021-.062,0-.007-.02-.061,0-.009-.02-.06,0-.008-.021-.062v0l-.022-.064v0L10,256.81v0l-.021-.064,0-.005c-.122-.365-.241-.725-.36-1.091v0l-.044-.133,0-.005-.02-.062,0-.008-.019-.059,0-.011-.02-.061,0-.006-.021-.063,0-.006-.02-.063,0-.006-.02-.063,0-.007-.021-.064v0l-.021-.065,0-.005-.021-.065v0l-.021-.066v0c-.118-.366-.233-.728-.349-1.1v0l-.021-.067v0l-.021-.067v0l-.021-.065,0,0-.019-.061,0-.01-.019-.061,0-.007-.019-.061,0-.009-.019-.061,0-.007-.019-.059,0-.013L8.8,253.1l0-.007-.02-.063v0l-.042-.134,0-.005c-.114-.368-.226-.731-.338-1.1v0l-.02-.066v0l-.019-.063,0-.008-.019-.062,0-.007-.018-.059,0-.013-.017-.057,0-.011-.018-.058,0-.012-.018-.059,0-.009-.018-.059,0-.011-.018-.06,0-.008L8.19,251.1l0-.01-.018-.06,0-.008-.018-.061,0-.01-.018-.061v0c-.1-.323-.191-.644-.286-.968h0l-.018-.062,0-.01-.018-.06,0-.009-.017-.058,0-.013-.017-.057,0-.013-.016-.056,0-.014-.017-.058,0-.011-.017-.058,0-.013-.016-.057,0-.014L7.66,249.3l-.005-.018-.015-.053,0-.015-.016-.055,0-.015-.016-.056,0-.013-.016-.057,0-.014-.017-.058,0-.01-.017-.059,0-.015-.016-.056,0-.011-.017-.06,0-.007c-.052-.183-.1-.365-.156-.548v0l-.038-.133,0-.007-.018-.062,0-.008-.016-.059,0-.013-.016-.058,0-.012-.016-.056,0-.016L7.2,247.7l-.005-.018-.014-.05-.006-.023-.014-.05-.005-.019-.014-.051-.006-.021-.014-.05-.005-.019-.014-.051-.005-.019-.015-.053,0-.014-.016-.056,0-.015-.016-.056,0-.013-.015-.056,0-.018-.015-.053,0-.014-.016-.056,0-.013-.016-.058,0-.009-.017-.061,0-.007c-.05-.184-.1-.366-.15-.55v0l-.017-.063,0-.008-.016-.06,0-.01-.015-.057,0-.015-.014-.052-.005-.02-.014-.051-.006-.02-.013-.05-.005-.02-.013-.05-.006-.022-.013-.047-.007-.025L6.63,245.6l-.006-.024-.013-.048-.006-.022-.013-.049-.006-.024-.012-.044-.008-.028-.012-.045-.006-.024-.012-.047-.006-.023-.013-.049-.006-.023-.012-.047-.007-.026-.012-.047-.005-.02-.014-.052,0-.014-.015-.058,0-.007-.016-.062,0-.017-.015-.055,0-.007-.109-.415h0l-.014-.053-.005-.021L6.26,244.2l-.005-.021-.012-.048-.006-.025-.012-.048-.006-.022-.012-.048-.006-.025-.012-.047-.006-.023-.012-.048-.006-.024-.012-.048-.006-.022-.012-.048-.006-.025-.012-.046-.006-.024-.012-.047-.006-.025-.012-.047-.006-.023-.012-.048-.006-.024-.012-.047-.006-.024-.012-.048-.006-.024L6,243.207,6,243.182l-.012-.047-.007-.027-.011-.045-.006-.023-.012-.049-.005-.022-.012-.049-.005-.02-.013-.053,0-.012-.015-.06v0l-.087-.348h0l-.014-.056,0-.016-.013-.053,0-.019-.013-.051-.005-.022-.011-.045-.007-.027-.011-.044-.007-.028-.01-.042-.007-.03-.011-.044-.007-.028-.011-.043-.007-.029-.011-.043-.007-.029-.01-.043-.007-.029-.011-.045-.006-.026-.011-.045-.007-.027-.011-.045-.007-.027-.011-.044-.007-.027-.012-.047-.005-.022L5.53,241.3l-.006-.024-.011-.047-.007-.027-.011-.044-.007-.028-.011-.044-.006-.026-.011-.045-.007-.03-.01-.042-.008-.032-.01-.04-.007-.029-.011-.044,0-.018-.013-.053,0-.02-.058-.243-.005-.023-.01-.043-.007-.029L5.3,240.33l-.008-.034-.01-.04-.007-.03-.011-.044-.007-.028-.01-.042-.007-.03-.009-.04-.008-.034-.009-.036-.008-.035-.009-.038-.008-.035-.008-.036-.009-.037-.008-.034-.009-.039-.008-.034-.009-.037-.009-.037-.008-.035-.009-.037L5.1,239.5l-.009-.037-.008-.036-.009-.037-.008-.034-.009-.038-.008-.036-.008-.036-.008-.036-.008-.037-.008-.035-.009-.038L5,239.072l-.01-.043L4.985,239l-.01-.045-.007-.028-.01-.043-.008-.034-.009-.038-.007-.031-.01-.042,0-.019-.013-.055-.016-.068,0-.019-.012-.053-.007-.033-.009-.039-.008-.036-.008-.037-.007-.033-.009-.04-.008-.035-.009-.038L4.8,238.2l-.008-.037-.008-.036-.008-.037-.008-.034-.009-.039-.008-.034-.009-.039-.008-.033-.009-.038-.008-.036-.008-.037-.007-.033-.009-.04-.007-.033-.009-.04-.007-.032-.009-.041-.007-.033-.009-.041-.007-.03-.01-.044-.007-.03-.009-.042-.007-.03-.009-.041-.007-.033-.009-.041-.007-.03-.009-.043-.007-.032-.009-.042-.006-.029-.01-.044-.007-.03-.01-.046-.006-.025-.011-.049-.005-.025-.013-.06,0-.011-.011-.052-.005-.025-.031-.143,0-.015-.013-.059,0-.02-.011-.052-.005-.023-.011-.052,0-.015-.012-.057,0-.023-.011-.05-.005-.024-.01-.048-.006-.027-.01-.047-.006-.027-.01-.045-.006-.029-.01-.046-.006-.027-.01-.046-.006-.026-.011-.05,0-.023-.01-.049-.005-.025-.01-.048-.006-.026-.01-.045-.006-.028-.01-.047-.005-.025-.01-.047-.006-.026-.01-.048-.005-.024-.011-.051,0-.021-.012-.055,0-.019-.011-.053,0-.02-.011-.055,0-.018-.012-.057,0-.016-.013-.062,0-.011-.061-.3,0-.008-.013-.065,0-.019-.011-.054,0-.021-.011-.052-.005-.025-.01-.048,0-.024-.01-.051,0-.022-.01-.051,0-.022-.011-.052,0-.022-.01-.05,0-.024-.01-.049-.005-.026-.01-.048-.005-.025-.01-.048-.005-.027-.009-.046-.005-.026-.01-.048-.005-.026-.01-.05,0-.022-.01-.051,0-.024-.01-.052,0-.021-.011-.053,0-.021-.01-.053,0-.02-.01-.053,0-.022-.012-.059,0-.013-.013-.065,0-.008c-.039-.2-.078-.4-.116-.6v0l-.014-.072v0l-.013-.068,0-.015-.011-.058,0-.019-.011-.055,0-.019-.011-.055,0-.019-.01-.054,0-.021-.01-.054,0-.018-.011-.057,0-.015-.011-.06,0-.015-.011-.057,0-.018-.011-.057,0-.016-.011-.059,0-.014-.012-.061,0-.013-.011-.06,0-.015-.011-.061,0-.012-.012-.065v-.008l-.013-.07v0l-.014-.072v0c-.056-.3-.111-.6-.165-.9v0l-.013-.071v0l-.013-.07v0l-.012-.069v-.007l-.012-.067,0-.01-.012-.066v-.008l-.012-.067,0-.009L3.06,229.6v-.007l-.012-.066,0-.009-.012-.069v0l-.013-.07v-.005l-.026-.148h0a195.351,195.351,0,0,1-2.628-22.2ZM48.105,66.75l5.271,4.606A187.854,187.854,0,0,0,7,195q0,3.4.12,6.777l-7,.248c-.067-1.89-.107-3.782-.12-5.685H0c0-.053,0-.1,0-.153,0,0,0-.005,0-.007,0-.053,0-.1,0-.151,0,0,0,0,0-.007,0-.026,0-.046,0-.073,0,0,0,0,0,0,0-.026,0-.051,0-.077v0c0-.026,0-.045,0-.071,0,0,0-.006,0-.009,0-.053,0-.093,0-.145,0-.006,0-.011,0-.017,0-.053,0-.089,0-.142,0-.006,0-.012,0-.017,0-.026,0-.035,0-.062v-.01c0-.026,0-.044,0-.07,0-.006,0-.011,0-.016s0-.043,0-.056,0-.012,0-.018c0-.026,0-.042,0-.068v-.016c0-.013,0-.043,0-.056s0-.014,0-.02V195H0v-.075c0-.009,0-.017,0-.026s0-.029,0-.049,0-.023,0-.032,0-.03,0-.043,0-.021,0-.033,0-.03,0-.043,0-.025,0-.034v-.041c0-.012,0-.022,0-.034v-.076c0-.013,0-.031,0-.044s0-.018,0-.03,0-.033,0-.046,0-.022,0-.031v-.051c0-.006,0-.017,0-.023s0-.045,0-.065c0,0,0-.009,0-.012,0-.026,0-.05,0-.076,0-.006,0-.013,0-.019s0-.036,0-.056,0-.02,0-.029,0-.028,0-.047,0-.02,0-.029,0-.033,0-.046,0-.022,0-.031,0-.032,0-.045,0-.02,0-.032,0-.029,0-.043,0-.023,0-.035v-.075c0-.013,0-.031,0-.044v-.031c0-.02,0-.03,0-.05v-.275c0-.02,0-.034,0-.054v-.258c0-.013,0-.033,0-.046v-.03c0-.013,0-.032,0-.045v-.08c0-.009,0-.017,0-.026s0-.033,0-.053,0-.015,0-.024c0-.026,0-.039,0-.065v-.19c0-.02,0-.027,0-.046s0-.019,0-.031v-.12c0-.012,0-.02,0-.032V192.1c0-.009,0-.023,0-.032V192c0-.013,0-.032,0-.045v-.105c0-.026,0-.04,0-.066,0,0,0-.006,0-.009v-.152c0-.006,0-.019,0-.025v-.609l0-.154s0-.013,0-.016V190.2l0-.063v-.014l0-.073v-.561c0-.02,0-.026,0-.046v-.028l0-.056v-.02l0-.075v-.013l0-.062v-.559l0-.052v-.023l0-.075v0l0-.071v-.021l0-.054V188.3l0-.05v-.027l0-.048v-.029l0-.047v-.03l0-.045V188l0-.047v-.029l0-.048v-.027l0-.049v-.028l0-.061V187.7l0-.074V187.6l0-.05v-.032l0-.042v-.035l0-.04v-.034l0-.042v-.033l0-.043v-.032l0-.042v-.034l0-.043v-.032l0-.046v-.028l0-.055v-.02l0-.074v-.023l0-.053v-.024l0-.051v-.029l0-.045v-.032l0-.043v-.033l0-.043v-.031l0-.044v-.033l0-.042v-.033l0-.042v-.033l0-.048v-.026l0-.075v-.011l0-.065v-.018l0-.056v-.025l0-.052v-.023l0-.05v-.029l0-.047v-.029l0-.045v-.031l0-.045v-.03l0-.044,0-.031,0-.047v-.028l0-.06v-.014l0-.075v-.022l0-.053,0-.031,0-.042,0-.036,0-.039,0-.037,0-.038,0-.034,0-.042,0-.033,0-.044,0-.03,0-.046,0-.029,0-.049v-.025l0-.055V184.5l0-.075v-.013l0-.06,0-.032,0-.043,0-.031,0-.044,0-.031,0-.045,0-.031,0-.042,0-.034,0-.043,0-.031,0-.044,0-.03,0-.049v-.026l0-.05v-.026l0-.074h0l0-.075v-.016l0-.058,0-.026,0-.047,0-.031,0-.044,0-.03,0-.045,0-.031,0-.044,0-.032,0-.041,0-.035,0-.042,0-.03,0-.049,0-.026.009-.148,0-.025,0-.051,0-.026,0-.048,0-.031,0-.045,0-.032,0-.041,0-.034,0-.042,0-.032,0-.042,0-.034,0-.043,0-.031,0-.046,0-.028,0-.055v-.02l0-.074V182l0-.059,0-.025,0-.049,0-.03,0-.045,0-.031,0-.044,0-.032,0-.044,0-.03,0-.045,0-.032,0-.045,0-.028,0-.049,0-.026,0-.059v-.014l.005-.076v-.006l0-.069,0-.023,0-.051,0-.029,0-.047,0-.028,0-.045,0-.031,0-.045,0-.029,0-.045,0-.03,0-.045,0-.031,0-.04,0-.035,0-.042,0-.031,0-.053,0-.021.005-.073,0-.024,0-.051,0-.029,0-.046,0-.029,0-.045,0-.034,0-.039,0-.036,0-.037,0-.038,0-.036,0-.037,0-.037,0-.038,0-.036,0-.037,0-.039,0-.036.006-.072v-.017l0-.056,0-.029,0-.046,0-.033,0-.039,0-.037,0-.039,0-.034,0-.039,0-.035,0-.041,0-.033,0-.042,0-.032,0-.044,0-.031,0-.044,0-.03,0-.052,0-.048,0-.046,0-.034,0-.041,0-.032,0-.043,0-.034,0-.039,0-.034,0-.04,0-.035,0-.039,0-.034,0-.039,0-.037,0-.038,0-.035,0-.04,0-.036,0-.043,0-.029.006-.071,0-.031,0-.045,0-.031,0-.041,0-.037,0-.038,0-.036,0-.036,0-.038,0-.038,0-.037,0-.035,0-.039,0-.037,0-.036,0-.041,0-.032,0-.048,0-.026.007-.072,0-.032,0-.041,0-.036,0-.038,0-.037,0-.036,0-.037,0-.038,0-.036,0-.039,0-.032,0-.044,0-.031,0-.042,0-.031,0-.043,0-.032,0-.044,0-.029.005-.056,0-.039,0-.052,0-.039,0-.034,0-.038,0-.038,0-.035,0-.037,0-.038,0-.036,0-.037,0-.036,0-.037,0-.037,0-.036,0-.037,0-.037,0-.039,0-.034,0-.045,0-.029.007-.071,0-.039,0-.035,0-.039,0-.034,0-.039,0-.034,0-.041,0-.03,0-.042,0-.032,0-.04,0-.034,0-.039,0-.032,0-.043,0-.026,0-.046,0-.032,0-.04.007-.071,0-.028,0-.045,0-.033,0-.041,0-.032,0-.041,0-.033,0-.041,0-.034,0-.038,0-.037,0-.036,0-.038,0-.036,0-.036,0-.039,0-.036,0-.034,0-.04,0-.039.006-.055.005-.049,0-.037,0-.036,0-.041,0-.031,0-.042,0-.031,0-.039,0-.036,0-.037,0-.036,0-.037,0-.036,0-.037,0-.037,0-.035,0-.04,0-.035,0-.038,0-.035.008-.07,0-.037,0-.037,0-.036,0-.037,0-.036,0-.039,0-.034,0-.038,0-.036,0-.037,0-.036,0-.036,0-.038,0-.033,0-.04,0-.031,0-.042,0-.032,0-.041,0-.029.009-.074,0-.041,0-.032,0-.042,0-.034,0-.039,0-.037,0-.035,0-.039,0-.034,0-.039,0-.032,0-.042,0-.03.005-.043,0-.031,0-.041,0-.035,0-.037,0-.036.01-.08,0-.027.005-.043,0-.029L1.4,171.5l0-.03.005-.042,0-.03.005-.043,0-.031,0-.041,0-.033,0-.039,0-.035,0-.039,0-.032.005-.042,0-.03L1.463,171l0-.033,0-.039,0-.037.01-.08,0-.025.006-.045,0-.029.005-.04,0-.033.005-.042,0-.029.006-.044,0-.027.006-.045,0-.028.005-.044,0-.03.005-.043,0-.027.006-.046,0-.019.022-.171,0-.023.006-.046,0-.026L1.6,169.9l0-.028.005-.042,0-.032.005-.04,0-.032.005-.041,0-.031.006-.043,0-.028.006-.044,0-.03.006-.042,0-.026.006-.047v-.009l.017-.129h0l.006-.047,0-.026.006-.042,0-.03.006-.042,0-.031L1.719,169l0-.031.006-.043,0-.029.006-.043,0-.029.006-.045,0-.026.006-.046,0-.025.007-.049v-.011l.025-.181,0-.019.007-.049,0-.022.006-.047,0-.027.006-.044,0-.028.006-.044,0-.029.006-.044,0-.027.006-.045,0-.029.006-.043,0-.03.006-.042,0-.03.006-.044v0l.026-.186,0-.023.006-.045,0-.027.006-.044,0-.028.006-.044,0-.03.006-.041,0-.032.006-.041,0-.029.006-.043,0-.027.007-.047,0-.021.007-.05,0-.014.026-.182,0-.014.007-.048,0-.026.007-.047,0-.023.007-.048,0-.024.007-.048,0-.021.007-.05,0-.023.007-.048,0-.024.007-.048,0-.024.007-.048,0-.019.027-.179,0-.013.007-.048,0-.024.007-.045,0-.027.007-.045,0-.027.007-.043,0-.029.007-.044,0-.027.007-.043,0-.028.007-.045,0-.023.007-.049,0-.016.039-.254,0-.01.008-.052,0-.02.007-.048,0-.025.007-.048,0-.022.008-.05,0-.022.008-.049,0-.02.008-.051,0-.019.008-.053,0-.01.041-.259v-.009l.008-.052,0-.02.008-.051,0-.02.008-.049,0-.022.008-.049,0-.022.008-.048,0-.023.008-.049,0-.022.008-.048,0-.022.008-.052v0l.03-.189,0-.015.008-.047,0-.025.007-.043,0-.03.007-.042,0-.029.007-.043.005-.031.007-.041,0-.029.007-.043,0-.028.007-.044,0-.023.008-.049,0-.017.041-.248,0-.014.009-.053,0-.018.008-.05,0-.022.008-.049,0-.023.008-.046,0-.027.008-.046,0-.023L2.7,162.5l0-.022.008-.049,0-.02.009-.051,0-.014.031-.186v-.008l.009-.05,0-.022.008-.049,0-.021.008-.049,0-.023.008-.046,0-.025.008-.045,0-.026.008-.048,0-.018.009-.053,0-.017.009-.054v-.007l.044-.253,0-.018.008-.045,0-.028.008-.044,0-.027.008-.046,0-.023.009-.051,0-.019.009-.05,0-.024.008-.048,0-.02.009-.051,0-.013.058-.328v0l.01-.059,0-.014.01-.055,0-.015.01-.054,0-.017.01-.053,0-.017.01-.053,0-.017.01-.055v-.006l.06-.329,0-.01.01-.055,0-.016.009-.051,0-.02.009-.051,0-.019.009-.051,0-.02.009-.051,0-.017.01-.054,0-.011.049-.263v0l.011-.06,0-.01.01-.053,0-.018.01-.051,0-.018.009-.05,0-.021.009-.05,0-.018.01-.052,0-.017.01-.054,0-.013.011-.057v-.008l.063-.334h0l.012-.063v-.007l.012-.061,0-.009.011-.057,0-.015.011-.056,0-.011.011-.059v-.006l.078-.4v0l.012-.061,0-.009.011-.057,0-.015.011-.055,0-.015.011-.055,0-.015.011-.057,0-.008.012-.062v0l.08-.4v-.005l.012-.061,0-.009.012-.059,0-.011.012-.058,0-.011.012-.058,0-.011c.035-.175.072-.356.108-.532V155.8l.027-.133v0c.046-.223.093-.45.139-.673v-.007l.013-.063v0l.013-.062,0-.007.013-.062v-.006l.013-.062v0l.084-.4v-.006l.013-.061,0-.008.013-.059,0-.01.013-.059,0-.008.013-.061v0c.039-.18.076-.355.115-.535v0l.014-.065v0l.014-.065v0c.049-.225.1-.445.147-.67v-.006l.014-.062v-.006l.014-.061,0-.008.014-.062h0c.04-.18.08-.359.12-.538h0l.015-.067h0l.015-.066v0l.015-.065v0c.046-.2.091-.4.138-.6h0c.052-.224.1-.447.156-.671h0l.015-.063V150.4l.015-.063v0l.015-.064v0A194.247,194.247,0,0,1,41.8,74.346h0l.082-.1h0l.371-.469,0,0,.038-.048,0-.006.038-.048,0,0,.038-.047,0-.006.038-.048h0l.2-.256,0-.005.037-.046.005-.006.035-.043.009-.011.034-.043.007-.009.034-.042.01-.012.034-.042.007-.009.035-.044.007-.009.036-.045,0-.005.2-.247.009-.011.032-.04.012-.014.03-.038.013-.016.031-.039.012-.015.03-.037.015-.019.029-.036.012-.015.032-.039.008-.01.162-.2h0l.037-.046.006-.007.03-.037.016-.02.027-.033L43.681,72l.029-.035.015-.018.029-.036.013-.016.031-.037.014-.017.03-.037.013-.015.031-.038.015-.018.029-.035.013-.016.057-.07.015-.019.027-.033.016-.02.027-.033.017-.021.025-.03.02-.024.026-.031.018-.022.025-.03.02-.024.025-.03.02-.025.023-.028.021-.026.024-.029.018-.022.025-.031.017-.021.062-.075.007-.009.034-.041.009-.011.028-.034.018-.021.025-.03.019-.023.023-.028.023-.028.022-.026.022-.026.023-.028.022-.027.022-.027.022-.027.022-.026.025-.03.02-.024.024-.029.021-.025.044-.053.008-.009.038-.046.013-.016.031-.037.018-.021.028-.033.018-.022.027-.032.018-.021.027-.033.018-.022.027-.033.017-.02.029-.034.017-.021.034-.041L45.325,70l.042-.05,0,0,.093-.111,0,0,.044-.053.005-.006.039-.047.011-.013.035-.041.012-.015.033-.039.013-.016.034-.041.011-.013.035-.042.01-.012.039-.046.007-.008.043-.051,0,0,.14-.166,0,0,.042-.049.009-.011.036-.043.011-.013.036-.042.011-.013L46.166,69l.01-.012.037-.044.009-.011.04-.047,0-.006.283-.332h0L46.6,68.5l0,0,.044-.051,0,0,.045-.053v0l.475-.554h0C47.48,67.469,47.793,67.108,48.105,66.75ZM180.648.52l.508,6.982A187.138,187.138,0,0,0,56.6,67.766l-5.152-4.739a196.251,196.251,0,0,1,19.518-18.5l0,0c.527-.435,1.053-.864,1.584-1.294l0,0,.112-.09,0,0,.055-.044h0l.053-.043.006,0,.111-.089h0L73,42.866h0q.457-.367.915-.73h0l.056-.045h0l.055-.043.007-.006.05-.04.008-.006.048-.038.01-.008.049-.039.007-.005.05-.039.008-.006.05-.04.006,0,.05-.039.009-.007.05-.039.007-.006.05-.039.008-.006.051-.04.006,0,.051-.04.006,0c.269-.211.536-.42.806-.63h0l.056-.044h0l.055-.042.007-.005.051-.039.006,0,.051-.039.009-.007.048-.037.01-.008.047-.037.011-.009.047-.036.01-.008.046-.036.012-.009.047-.036.009-.007.047-.037L76,40.507l.047-.036.009-.007.047-.037.011-.009.049-.038.007-.006.049-.038.01-.008.051-.039,0,0,.052-.04.006,0,.111-.085,0,0,.463-.354.009-.007.05-.038.005,0,.052-.039.01-.008.049-.037.008-.006.048-.037.014-.011.045-.034.013-.01.044-.034.014-.011.045-.034.013-.01.042-.032.019-.014.04-.03.017-.013.04-.03.018-.014.041-.031.016-.012.04-.03.019-.014.041-.031.016-.012.043-.032.014-.011.044-.033.015-.011.041-.031.017-.013.042-.031.016-.012.044-.033.013-.01.048-.036.01-.008.051-.038.007,0,.408-.306.009-.007.048-.036.014-.01.045-.033.011-.008.048-.035.013-.009.044-.033.018-.013.039-.029.022-.016.037-.027.02-.015.038-.029.02-.015.038-.028.02-.015.038-.028.021-.016.036-.027.021-.015.038-.028.021-.016.036-.026.023-.017.035-.026.024-.018.034-.025.023-.017.035-.026.024-.018.034-.025.023-.017.036-.027.023-.017.039-.029.018-.013.042-.031.016-.012.045-.033.013-.009.043-.032.016-.012.351-.257.014-.01.044-.032.019-.014.037-.027.025-.018.034-.025.024-.017.034-.024.024-.018.035-.026.022-.016.035-.026.023-.017.036-.026.022-.016.035-.026.025-.018.033-.024.026-.019.032-.023.026-.019.035-.026.022-.016.036-.026.022-.016.037-.027.021-.015.037-.027.022-.016.038-.027.022-.016.035-.025.025-.018.032-.023.028-.02.029-.021.029-.021.031-.022.028-.02.029-.021.029-.021.032-.023.026-.018.039-.028.019-.014.044-.031.015-.011.047-.034.012-.008.059-.042.015-.011.043-.031.03-.021.028-.02.028-.02.032-.023.024-.017.035-.025.024-.017.035-.025.026-.019.032-.023.028-.02.03-.021.033-.024.024-.017L82.081,36l.023-.017.036-.025.022-.016.035-.025.024-.017.035-.025.023-.017.034-.024.026-.018.033-.024.025-.018.033-.023.026-.018.033-.024.024-.017.035-.025.022-.016.037-.026.021-.015.037-.026.024-.017.035-.024.026-.018.032-.023.025-.018.035-.025.021-.015.037-.026.021-.014.039-.028.014-.009.045-.032.009-.006.331-.232.01-.007.044-.031.015-.011.041-.029.018-.013.043-.03.015-.01.043-.03.017-.012.039-.027.021-.015.034-.024.026-.018.034-.024.024-.016.036-.025.023-.016.036-.025.022-.015.037-.026.022-.015L84,34.656l.02-.014.04-.028.018-.012.041-.028.02-.014.037-.026.025-.017.034-.024.023-.016.038-.026.021-.014.038-.026.021-.014.038-.027.019-.013.042-.029.012-.008.047-.033.01-.007.048-.033.015-.011.043-.03.016-.011.045-.031h0l.349-.239h0l.048-.033.012-.008.049-.033.009-.006.049-.034.01-.007.046-.031.015-.01.041-.028.019-.013.042-.029.017-.011.044-.03.014-.01.045-.031.014-.01.042-.028.019-.013.041-.028.017-.012.044-.03.014-.009.046-.031.013-.009.046-.031.014-.009.047-.032.01-.007.05-.034.008-.005.052-.035.007,0,.051-.034.011-.008.049-.033.008-.005.052-.035,0,0q.407-.274.817-.547l.006,0,.055-.036,0,0,.051-.034.01-.007.05-.034.008-.005.049-.033.012-.008.049-.032.009-.006.05-.033.011-.007.049-.033.009-.006.049-.032.013-.008.048-.032.01-.006.05-.033.008-.006.052-.034.006,0,.053-.035.007,0,.053-.035,0,0c.335-.221.667-.439,1-.658h0l.057-.037,0,0,.055-.036.005,0,.055-.036,0,0L89,31.3l.008-.005.053-.035,0,0,.053-.035.007,0,.054-.035,0,0,.053-.034.008-.005L89.3,31.1l.008-.005.051-.033.01-.006.053-.034h0l.058-.037h0c.357-.23.713-.458,1.072-.686h0l.117-.074,0,0,.057-.036h0l.057-.036,0,0,.117-.074h0L91.034,30h0c.4-.252.8-.5,1.2-.751l0,0,.239-.148h0l.059-.036h0l.059-.036h0l.119-.073h0A193.839,193.839,0,0,1,180.648.52ZM195,0V7q-4.541,0-9.031.213L185.638.221q3.706-.175,7.448-.212H195Z" fill="#ffffff69"/></svg>