<svg xmlns="http://www.w3.org/2000/svg" width="261.987" height="261.978" viewBox="0 0 261.987 261.978"><path d="M131,0h2.062c.018,0,.031,0,.049,0h1.317l.058,0c.018,0,.029,0,.047,0l.058,0h.048l.105,0h.059l.058,0h.047l.057,0h.049l.057,0h.048l.058,0h.04l.056,0h.05l.055,0h.05l.056,0,.051,0,.054,0,.049,0,.057,0,.048,0,.057,0,.048,0,.057,0,.048,0,.057,0,.047,0,.059,0,.047,0,.058,0,.047,0,.058,0h0l.058,0,.047,0h0l.058,0,.094,0h.01l.1,0,.056,0h0l.058,0,.048,0,.058,0,.047,0,.058,0,.048,0,.057,0,.048,0,.056,0,.041,0,.055,0,.05,0,.055,0h.01l.04,0,.056,0,.048,0,.056,0,.048,0h.012l.054,0,.041,0,.056,0,.048,0,.057,0,.048,0,.057,0,.047,0,.057,0,.047,0h.012l.094.005h.009l.095.005h.011l.048,0,.056,0,.048,0,.048,0h.007l.045,0h0l.048,0h.007l.045,0h0l.049,0h.007l.044,0h.006l.049,0h0l.044,0H139l.048,0h.006l.044,0h.007l.048,0h.006l.044,0h.006l.048,0h.006l.043,0h.008l.048,0h0l.042,0h.01l.048,0h0l.047,0h.006l.049,0h0l.046,0h.009l.049,0h0l.047,0h.009l.1.006h.009l.1.007h.006l.1.007h.007l.1.007h.007l.1.007h.008l.1.007h.006l.1.007h.008l.047,0h0l.05,0h.006l.1.007h.007l.045,0h0l.048,0h.008l.044,0h0l.048,0h.007l.043,0h.006l.047,0h.007l.042,0h.008l.047,0h.008l.042,0h.008l.049,0h0l.048,0h0l.049,0h0l.046,0h.006l.05,0h0l.049,0h0l.05,0h0l.047,0h.006l.1.008h0l.1.008h.006l.1.008h.007l.1.008h.006l.1.008h.006l.047,0h0l.05,0h0l.1.008h0l.048,0h0l.05,0h0l.047,0h0l.049,0h.006l.045,0h0l.049,0h0l.045,0h.005l.048,0h.005l.043,0h.009l.046,0h.008l.042,0h.007l.048,0h0l.044,0h.008l.048,0h0l.046,0h.006l.1.009h.008l.048,0h0l.046,0h.008l.1.009h.008l.1.009h.008l.095.009h.01l.1.009h.007l.1.009h.009l.095.009h.008l.046,0h0l.048,0h.009l.045,0h0l.048,0h.008l.045,0h0l.048,0h.008l.045,0h0l.048,0h.008l.042,0h.007l.047,0h.008l.043,0h0l.049,0h0l.047,0h0L144.6.7h0l.046,0h0l.049.005h0l.047,0h.006l.049.005h0l.045,0h.008l.1.01h.006l.049.005h0l.047.005h.006l.1.01h.007l.1.01h.007l.1.01h.006l.1.011h.005l.1.011h0l.1.011h0l.048.005h0l.049.006h.005l.1.011h0l.049.005h0l.049.006h.005l.046.005h0l.05.006h0l.049.006h0l.051.006h0l.05.006h0l.1.012h0l.1.012h0l.1.012h0l.1.012h0l.1.012h0l.1.012h0l.1.012h0l.1.012h.005l.1.012h.005l.1.012h0l.1.012h0l.1.012h0l.1.013h0l.1.013h0l.1.013h0l.1.013h0l.664.087h0l.392.053L148.4,5.182A128.675,128.675,0,0,0,131,4V0Zm22.885,1.992q5.262.927,10.373,2.267h0l.033.009h0l.065.017h0l.031.008h.005l.1.025.007,0,.094.025.007,0,.03.008h.005l.058.015.008,0,.03.008.01,0,.047.013.016,0,.025.007.016,0,.041.011.018,0,.025.007.016,0,.025.007.009,0,.049.013.018,0,.023.006.018,0,.04.011.019,0,.022.006.022.006.035.01.02.005.024.007.017,0,.034.009.024.007.022.006.021.006.02.005.038.01.015,0,.028.007.018,0,.033.009.018,0,.031.008.016,0,.031.009.011,0,.04.011.015,0,.033.009.01,0,.042.012.011,0,.034.009.01,0,.043.012.008,0,.037.01.01,0,.088.024.009,0,.041.011h0l.046.013.006,0,.044.012h0l.047.013h0l.043.012.006,0,.092.026h.005l.093.026h0l.095.027h0l.242.069h0c1.522.432,3.028.888,4.527,1.373l-1.231,3.806a126.558,126.558,0,0,0-16.919-4.2Zm22.182,5.966h0l.13.048h0l.131.048h0l.063.023,0,0,.128.047.006,0,.062.023h0l.064.024.005,0,.058.022.008,0,.124.046.01,0,.124.046.01,0,.055.02.008,0,.062.023.006,0,.056.021.011,0,.123.046.011,0,.054.02.009,0,.061.023.007,0,.055.021.01,0,.121.046.015.006.054.02.006,0,.061.023.012,0,.05.019.013.005.059.023.007,0,.052.02.016.006.053.02.007,0,.059.023.014.005.046.018.016.006.058.022.011,0,.049.019.016.006.056.022h0l.057.022.018.007.046.018.013.005.058.022.014.006.047.018.015.006.058.023.008,0,.051.02.017.007.049.019.01,0,.058.023.016.006.045.018.016.006.059.023.006,0,.052.021.017.007.049.019.01,0,.056.022.019.008.042.017.017.007.056.022.015.006.044.018.019.008.049.019.015.006.049.02.02.008.042.017.017.007.055.022.019.007.041.016.019.008.056.022.012,0,.046.018.02.008.043.017.015.006.055.022.02.008.04.016.02.008.055.022.015.006.043.017.021.009.042.017.019.008.052.021.02.008.041.017.018.007.055.023.015.006.044.018.019.008.052.021.01,0,.051.021.019.008.044.018.015.006.055.023.018.007.042.017.017.007.056.023.011,0,.047.02.019.008.046.019.012,0,.056.023.017.007.044.018.016.007.057.024.009,0,.048.02.018.008.051.021.006,0,.058.024.016.007.046.019.013.005.058.024.012,0,.049.021.013.006.118.049.014.006.05.021.01,0,.059.025.01,0,.052.022.011,0,.06.026h0l.056.024.014.006.056.024h0l.06.025.012.005.05.021.011,0,.059.025.008,0,.052.022.013.005.119.051.011,0,.052.022.008,0,.06.026.006,0,.054.023.01,0,.119.051.012.005.055.024,0,0,.06.026.01,0,.053.023.009,0,.061.026h0l.058.025.011,0,.12.052.009,0,.054.024.008,0,.121.053.009,0,.121.053.009,0,.056.025,0,0,.062.027,0,0,.058.025.007,0,.122.054.008,0,.06.027h0l.063.028,0,0,.058.026,0,0,.123.055.008,0,.121.054.007,0,.058.026,0,0,.124.056.006,0,.124.056,0,0,.189.085h0l.126.057h0l.127.058h0l.19.087h0l.127.058h0q3.032,1.39,5.98,2.927l0,0,.121.063h0l.183.1,0,0,.12.063,0,0,.058.031h0l.061.032h0l.058.031.006,0,.117.062.01.005.056.03h0l.058.031.009,0,.05.027.009,0,.057.03h0l-1.88,3.531a126.735,126.735,0,0,0-15.916-7.114Zm20.787,9.773q.609.355,1.214.716h0l.117.07.006,0,.115.069.008,0,.055.033h0l.058.035.006,0,.051.031.008,0,.057.034,0,0,.052.031.01.006.11.066.013.008.043.026.013.008.052.032.012.008.044.026.013.008.053.032.009.006.044.027.018.011.044.027.009.005.051.031.019.012.036.022.018.011.048.03.021.013.032.02.022.014.042.026.025.015.032.019.024.015.03.018.033.02.035.022.024.015.029.018.024.015.044.027.028.017.023.014.029.018.025.015.047.029.022.014.03.018.022.014.051.032.019.012.031.02.019.012.1.065.018.011.032.02.014.009.06.037.017.011.032.02.015.01.066.041.008.005.034.021.015.009.111.069.011.007.037.023,0,0,.079.05h0l.041.026,0,0,.12.076.008.005.118.075,0,0,.287.183,0,0,.122.078h0q2.578,1.646,5.072,3.407h0l.12.085h0l.159.113,0,0,.114.081.008.006.111.079.008.006.037.026h0l.077.055,0,0,.036.025.01.007.11.079.008.006.109.078.011.008.034.024.01.007.066.047.008.006.033.024.014.01.1.075.013.01.033.024.009.007.059.043.018.013.029.021.018.013.053.038.016.012.03.022.019.014.047.035.021.015.028.02.021.015.027.02.023.017.045.033.021.015.027.02.022.016.042.031.025.018.025.018.025.018.024.018.043.032.021.016.028.021.022.016.038.028.025.018.03.022.023.017.031.023.019.014.044.032.018.013.035.026.016.012.046.034.017.013.034.025.017.012.048.035.011.008.039.029.016.012.041.03.009.007.049.037.013.01.04.03.011.008.05.038.008.006.043.032.012.009.1.078.008.006.1.079.008.006.048.036,0,0,.054.041h0l.053.04,0,0,.108.082,0,0,.109.082,0,0,.054.041h0l.111.084h0l.111.084h0q.782.594,1.555,1.2l-2.467,3.148a127.7,127.7,0,0,0-14.43-9.792Zm18.759,13.258.183.155h0l.107.091.008.007.1.088.008.007.033.028.01.008.055.047.015.013.028.024.016.014.052.044.013.011.027.023.02.017.026.022.026.022.037.032.021.018.024.021.025.021.036.031.025.022.022.019.028.024.018.015.042.037.018.016.03.026.018.015.044.038.013.011.035.03L216.8,32l.045.039.008.007.039.034.016.014.038.033.008.007.046.04.013.011.038.033.011.009.046.041.011.009.038.034.012.01.048.042,0,0,.046.04.01.009.047.041h0l.049.043.009.007.044.038.006.005.05.044,0,0,.046.041.007.006.1.088.005,0,.1.089,0,0,.26.231h0l.1.093h0q1.286,1.145,2.541,2.324l0,0,.1.094,0,0,.152.143h0l.1.095,0,0,.1.094,0,0,.1.095,0,0,.048.046,0,0,.1.094,0,0,.1.093.007.007.1.092.006.005.045.043,0,0,.049.047,0,0,.045.043.007.007.094.091.009.008.043.041,0,0,.046.044.009.009.038.037.01.009.045.043.009.009.036.035.013.013.044.042.007.007.038.037.014.014.037.036.008.007.043.041.016.015.031.031.014.013.042.041.014.013.031.03.016.016.04.039.014.013.033.032.016.015.032.032.013.013.04.039.017.017.028.027.018.017.039.038.018.018.026.025.019.019.033.033.024.024.024.024.021.021.025.024.029.029.026.026.022.022.021.021.022.022.037.036.023.023.019.019.024.023.022.022.037.036.02.02.024.023.018.018.042.042.017.017.025.025.018.017.047.047.013.013.027.026.014.014.027.027.007.007.055.055.013.013.028.028.01.01.055.055.008.008.03.03.009.009.095.095.007.007.1.1.005.005.136.137,0,0,.1.1,0,0q2.236,2.261,4.363,4.631l-2.977,2.672a128.241,128.241,0,0,0-12.509-12.153Zm16.169,16.317h0l.223.269v0l.089.107h0l.044.054h0l.044.054h0l.042.051,0,.005.084.1.006.008.083.1.006.008.037.045,0,.006.041.051.005.006.036.044.007.009.082.1.008.009.038.047,0,0,.041.05.008.01.034.042.008.009.04.049.007.008.033.041.01.013.039.048,0,0,.035.044.012.014.033.041.006.008.039.048.011.014.032.039.008.01.039.048.01.012.03.037.013.016.036.044.01.012.03.037.014.018.027.034.012.015.036.045.014.017.025.032.014.018.036.045.012.015.027.034.014.018.034.043.011.014.029.036.015.019.028.035.011.013.036.045.015.019.025.032.014.017.035.045.014.018.025.031.015.019.032.041.012.016.029.037.015.019.025.032.013.017.035.044.015.019.025.031.014.018.035.045.012.016.026.034.015.019.032.041.013.016.028.036.016.02.025.032.013.017.034.044.016.02.023.03.015.019.034.044.015.019.023.03.016.02.027.035.02.026.024.031.017.021.024.03.014.018.034.044.016.02.021.027.017.022.033.042.016.021.022.028.017.022.026.034.02.026.024.032.016.021.024.032.013.017.034.044.016.02.023.03.015.019.034.044.015.019.024.031.015.019.032.042.011.014.03.039.014.019.025.033.013.017.035.045.014.018.024.031.014.019.035.045.012.016.026.034.014.019.032.041.01.014.03.04.013.018.028.037.01.013.036.047.012.016.027.036.011.014.036.048.009.012.029.038.012.016.034.045.007.009.033.044.012.015.029.039.009.012.037.049.01.013.029.038.01.014.037.049.007.01.031.041.011.015.037.05h0l.037.05.01.014.032.043.006.008.037.05.009.013.03.041.008.011.037.05.007.01.031.042.01.013.076.1.009.012.033.044.006.008.038.051.007.009.033.044.007.009.039.052,0,0,.036.048.007.01.077.1.008.011.035.048,0,0,.038.052.007.01.034.046.005.007.039.054,0,0,.037.05.006.008.079.107,0,.006.08.11v0l.039.053,0,0,.08.11,0,0,.08.111,0,0,.081.111h0l.04.056h0l.081.113v0l.081.113h0q2.566,3.567,4.895,7.309L238.912,64a127.846,127.846,0,0,0-10.205-14.141Zm13.085,18.879a130.524,130.524,0,0,1,7.815,16.2l-3.714,1.485a126.883,126.883,0,0,0-7.575-15.7l3.474-1.982Zm9.582,20.877.008.022,0,.006.016.044,0,.005.014.04,0,.007.031.088,0,.008.031.087,0,.008.015.042v0l.016.045,0,.005.015.042v0l.033.094h0l.033.094h0q.969,2.769,1.817,5.593h0l.028.095v0l.028.094v0l.014.046h0l.014.046,0,.006.012.041v0l.014.046v0l.013.043,0,.007.027.09,0,.007.012.042v0l.013.045,0,.008.011.039,0,.007.013.045v.005l.012.039,0,.01.013.044v0l.012.04,0,.013.011.038v0l.012.042,0,.013.01.034,0,.01.012.041,0,.014.009.031,0,.013.012.041,0,.011.01.033,0,.013.011.038,0,.011.01.036,0,.015.009.03,0,.014.011.039,0,.016.008.026.005.018.011.038,0,.016.007.024.006.02.009.031.006.022.008.027.006.02.007.025.006.022.009.033.005.018.007.026,0,.017.01.036.006.023.006.02.006.02.009.03.007.026.006.023.006.02.008.027.008.027.007.025.006.021.006.021.008.029.008.028.006.022.005.019.007.024.007.023.009.033.006.021.006.022.005.019.011.04,0,.016.007.025,0,.016.012.045,0,.014.007.026,0,.014.024.088,0,.01.025.091,0,.008.008.029,0,.008.015.054,0,.01.008.028,0,.009.025.092,0,.008.026.094,0,.006.008.031v0l.055.2h0l.055.2h0q1.007,3.737,1.8,7.56l-3.917.809a126.471,126.471,0,0,0-4.7-16.788l3.768-1.341Zm5.761,22.235q.708,4.247,1.141,8.582v0l.006.063v0l0,.031v.007l.006.064v0l0,.03v.012l.005.055v.009l0,.029v.012l.006.06v0l0,.028v.016l.009.09v.014l0,.028h0l.006.06,0,.017,0,.026,0,.022,0,.037,0,.019,0,.023,0,.032,0,.025,0,.025,0,.022,0,.03,0,.027,0,.023,0,.023,0,.027,0,.029,0,.026,0,.021,0,.028,0,.028,0,.026,0,.023,0,.024,0,.029,0,.029,0,.022,0,.024,0,.028,0,.031,0,.02,0,.029v.017l0,.04,0,.019,0,.028v.017l0,.04,0,.02,0,.029v.015l0,.043v.014l0,.032v.014l0,.042v.016l0,.032v.015l0,.043v.01l0,.037v.012l0,.045v.009l0,.038v.013l0,.045v0l0,.041v.013l0,.042v.008l0,.041v.013l0,.042v0l0,.046v.012l0,.04v.007l0,.046v.011l0,.044v0l0,.047v.01l0,.04v.008l0,.047v.007l0,.041v.009l0,.046v.009l0,.039v.011l0,.046v.008l0,.039v.011l0,.045v.01l0,.037v.013l0,.046v0l0,.043v.011l0,.047v0l0,.045v.01l.007.095v.009l.007.094v.011l.007.094v.009l.007.1v.007l0,.047h0l0,.049v.007l0,.045v0l0,.048v.008l0,.044v0l0,.049v.006l0,.044v.006l0,.049v0l0,.045v.006l0,.049v0l0,.048v.006l0,.049v0l0,.047v.006l.006.1v.006l.006.1v.008l.006.1v.007l0,.047v0l0,.049v.005l.006.1v.006l0,.046v0l0,.049v.006l0,.045v.006l0,.049v0l0,.044v.008l0,.048v.005l0,.044v.008l0,.048v0l0,.044v.009l0,.048v0l0,.044v.01l0,.047v0l0,.043v.014l0,.045v0l0,.044v.013l0,.044v0l0,.046v.013l0,.043v0l0,.046v.012l0,.041v.006l0,.045v.015l0,.034v.013l0,.042v.017l0,.03V124l0,.041v.066l0,.04v.066l0,.039v.067l0,.04v.065l0,.032v.1l0,.037v.066l0,.041v.063l0,.043v.063l0,.041v.062l0,.053v.052l0,.093v.012l0,.1v.007l0,.1v.009l0,.1v.007q.035.851.059,1.7l-4,.114a128.106,128.106,0,0,0-1.682-17.359Zm-2.216,22.869,4,.036q-.012,1.319-.05,2.632h0l0,.1v.041l0,.059v.05l0,.057v.5l0,.043v.061l0,.045v.06l0,.047v.005l0,.043v.009l0,.048v0l0,.044v.009l0,.049h0l0,.049v.005l0,.1v0l0,.1h0l0,.1h0a131.639,131.639,0,0,1-1.275,13.651l-3.958-.579A128.478,128.478,0,0,0,257.995,132.168Zm-2.134,22.171,3.933.73q-.138.742-.284,1.479v.005l-.019.094v.007l-.019.095v0l-.008.042,0,.008-.009.045,0,.008-.007.037,0,.013-.009.043v.006l-.008.038,0,.014-.008.037v.007l-.008.042,0,.017-.006.03,0,.014-.008.04,0,.019-.005.026,0,.019-.008.039,0,.02,0,.022,0,.023,0,.017-.009.044,0,.016-.005.025,0,.016-.01.05,0,.01-.006.027,0,.014-.019.09,0,.011-.02.095v.007l-.007.032v0l-.014.068h0l-.007.033v0q-.98,4.69-2.289,9.253v0l-.028.1v0l-.027.095,0,.007-.008.029,0,.009-.016.055,0,.007-.008.029,0,.008-.017.059v0l-.008.027,0,.013-.013.045,0,.016-.007.023-.005.018-.007.023-.007.024-.009.03-.007.023-.006.02-.008.027-.005.017-.01.036,0,.015-.009.032,0,.011-.012.041,0,.014-.009.032,0,.011-.012.042,0,.008-.011.037,0,.009-.026.089,0,.008-.013.044h0l-.014.046,0,.005-.012.042v0l-.014.047h0l-.014.048h0l-.029.1h0q-.583,1.95-1.226,3.876l-3.794-1.266A126.529,126.529,0,0,0,255.861,154.339Zm-5.981,21.445,3.743,1.411q-.786,2.084-1.64,4.134h0l-.054.129h0l-.081.194h0l-.054.128v0l-.054.128h0l-.081.192,0,0-.053.126,0,.006-.026.061h0l-.027.064h0l-.025.06,0,.008-.052.122,0,.008-.052.122,0,.008-.024.055,0,.008-.027.062h0l-.025.059,0,.011-.024.056,0,0-.026.059-.005.012-.022.05,0,.01-.026.059,0,.009-.022.05-.006.015-.05.116-.007.015-.021.049,0,.01-.025.057-.006.014-.02.045-.007.015-.025.057,0,.008-.022.05-.008.017-.02.045-.006.013-.024.055-.007.016-.019.043-.008.017-.024.055-.007.015-.019.042-.009.02-.02.045-.006.013-.023.053-.009.02-.018.04-.008.018-.024.054-.009.02-.016.036-.011.024-.019.043-.011.025-.018.039-.011.025-.014.032-.011.024-.023.05-.01.023-.015.034-.011.024-.021.047-.011.024-.016.035-.011.025-.016.036-.01.023-.022.048-.011.024-.015.034-.011.024-.022.049-.012.025-.014.03-.012.027-.015.033-.018.04-.014.031-.013.029-.012.026-.013.029-.021.046-.014.031-.011.025-.014.03-.013.028-.023.05-.01.023-.015.033-.01.023-.022.048-.014.03-.014.03-.011.024-.014.031-.011.023-.025.054-.011.024-.014.031-.01.023-.025.055-.01.022-.015.031-.011.023-.051.11-.01.021-.015.032-.011.024-.025.053-.011.023-.015.032-.011.023-.023.049-.012.026-.016.034-.009.02-.016.035-.005.011-.033.07-.007.015-.017.036-.008.016-.031.067-.007.014-.016.035-.008.018-.017.036h0l-.037.077-.009.019-.016.034-.008.018-.031.064-.007.014-.017.036-.008.017-.055.116-.007.015-.018.037,0,.009-.035.074-.005.011-.018.038-.006.012-.057.12-.006.013-.058.12-.006.012-.018.037-.007.014-.034.07-.005.011-.018.036-.007.015-.057.118-.006.012-.019.039,0,0-.04.082,0,0-.019.039-.006.012-.059.12-.005.011-.019.04v0l-.039.081,0,.01-.019.039-.005.01-.06.122,0,.009-.061.124,0,.007-.02.041,0,0-.042.085h0l-.02.041,0,.008-.061.124,0,.008-.064.128v0l-.02.041,0,.009-.062.124,0,.007-.064.128v0l-.087.174,0,.006-.065.128v0l-.066.132h0l-.021.042,0,.006-.064.127,0,.005-.065.128v0l-.021.041,0,.007-.064.125,0,.006-.065.127,0,0-.022.043h0l-.066.129,0,.007-.065.126,0,0-.066.128,0,0-.021.042,0,0-.065.125,0,.007-.065.126,0,0-.021.041,0,.006-.065.126,0,0-.066.126,0,0-.022.042h0l-.067.128,0,.008-.064.122,0,.008-.064.122,0,.008-.021.039,0,.007-.064.121-.006.011-.064.12,0,.009-.02.039,0,.009-.064.121,0,.008-.064.121-.005.01-.021.039,0,0-.042.078,0,.007-.02.038-.007.013-.062.115-.007.013-.02.037,0,0-.041.075-.007.013-.019.036-.006.012-.043.079h0l-.02.037-.008.014-.062.114-.007.014-.019.035-.008.015-.037.068,0,.009-.008.015-3.513-1.913A126.783,126.783,0,0,0,249.88,175.783Zm-9.659,20.062,3.438,2.045q-1.219,2.049-2.509,4.047v0l-.105.163,0,.006-.075.116-.005.008-.024.037h0l-.049.076-.007.01-.023.036-.006.01-.046.07,0,.006-.023.035-.009.014-.07.107-.01.016-.022.033-.006.009-.04.061-.012.019-.02.03-.013.02-.031.047-.016.024-.018.027-.017.026-.016.024-.029.044-.016.024-.019.028-.015.023-.024.036-.02.03-.02.03-.015.023-.022.033-.013.02-.029.044-.013.02-.022.033-.013.02-.031.047-.012.018-.023.035-.013.019-.032.049-.008.012-.026.039-.013.019-.027.04-.007.011-.033.05-.011.016-.026.039-.009.013-.034.05-.009.013-.028.041-.009.013-.035.052,0,.005-.032.048-.009.013-.032.047,0,.006-.036.053-.007.011-.031.047-.005.008-.037.055,0,0-.034.051-.006.009-.074.109-.006.009-.074.109-.006.008-.034.05,0,0-.038.056v0l-.036.053,0,.006-.076.111,0,.005-.077.112,0,0-.037.054,0,0-.077.113,0,0-.078.113,0,0-.079.114h0q-1.6,2.314-3.291,4.554h0l-.085.112h0l-.127.167h0l-.084.111v0l-.084.11,0,0-.041.053,0,0-.083.108,0,0-.082.107,0,.006-.081.106-.005.007-.036.047,0,.006-.04.052,0,.006-.036.046-.007.009-.079.1-.008.01-.036.046,0,.005-.04.051-.007.009-.034.044-.007.009-.04.051,0,.006-.034.044-.01.013-.077.1-.01.013-.033.042-.007.009-.038.048-.01.013-.03.038-.01.013-.037.048-.009.012-.029.038-.013.016-.032.041-.011.014-.032.04-.013.016-.029.036-.011.014-.036.046-.013.017-.025.032-.015.019-.035.044-.014.018-.024.03-.017.021-.025.032-.022.028-.023.03-.02.025-.019.024-.019.024-.032.04-.02.025-.017.022-.02.026-.02.025-.032.041-.017.021-.021.027-.014.018-.042.052-.011.014-.024.03-.012.015-.019.023-3.126-2.5A127.749,127.749,0,0,0,240.221,195.845ZM227.2,213.915l3.029,2.613-.007.008-.037.043,0,0-.04.046-.011.012-.037.043,0,.005-.043.05-.006.007-.04.046,0,0-.089.1,0,0-.09.1,0,0q-3,3.446-6.237,6.677h0l-.1.1,0,0-.1.1,0,0-.045.045,0,0-.1.094-.005.005-.094.093-.007.007-.093.092-.008.007-.04.039-.008.008-.045.045-.007.007-.039.038-.01.01-.045.044,0,0-.043.042-.011.011-.038.037-.008.008-.044.043-.012.012-.035.034-.012.012-.043.042-.012.011-.033.033-.014.014-.043.042-.007.007-.037.036-.015.015-.035.034-.009.009-.042.041-.016.015-.031.03-.014.014-.042.041-.014.014-.03.03-.017.016-.034.033-.022.022-.029.028-.018.017-.03.029-.017.017-.038.036-.018.017-.028.027-.018.017-.04.038-.018.017-.026.025-.02.019-.032.031-.026.025-.024.024-.022.021-.025.024-.027.026-.03.028-.021.021-.024.023-.021.02-.038.036-.021.02-.023.022-.021.02-.03.029-.028.027-.025.023-.021.02-.023.022-.036.035-.022.021-.023.022-.021.02-.031.03-.029.027-.024.023-.019.018-.025.023-.02.019-.042.04-.017.016-.027.025-.015.014-.049.047-.013.012-.028.026-.015.014-.046.044-.017.016-.026.024-.017.016-.026.025-.013.012-.05.047-.016.015-.027.025-.015.014-.048.045-.015.014-.026.025-.017.016-.049.045-.013.013-.026.025-.017.016-.026.024-.02.019-.042.039-.017.016-.026.025-.019.018-.041.038-.019.018-.025.024-.019.018-.045.042-.016.015-.027.025-.016.015-.027.025-.013.012-.049.045-.018.017-.025.023-.019.017-.043.04-.019.017-.025.023-.018.017-.043.04-.019.017-.026.024-.018.017-.025.023-.037.034-.025.023-.02.018-.025.023-.023.021-.038.035-.02.018-.025.023-.022.02-.033.03-.028.025-.022.02-.023.021-.022.02-.038.035-.022.02-.024.022-.021.019-.036.032-.022.02-.028.025-.019.017-.031.028-.021.019-.035.032-.018.017-.03.027-.016.015-.042.038-.016.015-.03.027-.018.016-.043.039-.011.01-.034.031-.017.015-.039.035-.008.007-.043.039-.015.014-.036.032-.01.009-.046.041-.011.01-.038.034-.011.01-.046.041-.009.008-.04.036-.01.009-.1.086-.009.008-.046.041h0l-.05.045-.006,0-.045.041-.005,0-.1.089,0,0-.1.091h0l-.315.279-2.645-3A128.252,128.252,0,0,0,227.2,213.915Zm-15.964,15.533,2.529,3.1q-3.985,3.252-8.22,6.188l0,0-.16.111h0l-.119.082,0,0-.116.08-.007,0-.116.08,0,0-.038.026-.007,0-.073.05,0,0-.036.024-.01.007-.11.075-.011.007-.036.024,0,0-.07.048-.013.009-.032.022-.015.01-.063.042-.01.007-.032.022-.017.011-.1.069-.02.013-.03.02-.024.016-.043.029-.024.016-.027.018-.024.016-.043.029-.025.017-.027.018-.023.016-.026.018-.043.029-.026.018-.025.017-.026.018-.026.017-.042.028-.026.017-.025.017-.029.019-.029.02-.038.025-.022.015-.03.02-.021.014-.046.031-.02.013-.032.021-.022.015-.041.028-.021.014-.034.023-.023.015-.034.023-.016.011-.048.032-.019.012-.035.023-.018.012-.048.032-.017.011-.037.024-.018.012-.049.032-.011.007-.043.028-.017.011-.04.026-.013.009-.049.033-.017.011-.039.025-.014.009-.051.033-.012.008-.042.027-.014.009-.106.069-.013.008-.048.032-.005,0-.054.035-.01.007-.048.031-.007,0-.056.036,0,0-.053.035-.007,0-.112.073-.006,0-.114.074,0,0-.056.036h0l-.116.075,0,0-.117.075h0q-1.3.837-2.627,1.644L197,239.523A127.805,127.805,0,0,0,211.237,229.448Zm-18.42,12.519,1.95,3.493q-1.925,1.075-3.889,2.086h0q-4.583,2.359-9.368,4.363h0l-.13.054h0l-.193.08h0l-.127.053,0,0-.062.026h0l-.064.027h0l-.06.025-.007,0-.123.051-.01,0-.059.024h0l-.061.025-.011,0-.052.021-.009,0-.062.025h0l-.057.023-.013.005-.057.023h0l-.059.024-.016.006-.046.019-.015.006-.057.023-.014.006-.044.018-.02.008-.052.021-.013.005-.049.02-.021.008-.041.016-.018.007-.053.021-.022.009-.037.015-.023.009-.05.02-.025.01-.035.014-.026.01-.032.013-.042.017-.032.013-.03.012-.027.011-.029.012-.041.016-.039.016-.024.01-.033.013-.025.01-.054.021-.024.009-.033.013-.023.009-.071.028-.008,0-.036.014-.019.007-.037.014-.009,0-.076.03-.012,0-.04.016-.009,0-.13.051-.008,0-.161.063-1.451-3.728A126.834,126.834,0,0,0,192.818,241.967Zm-20.32,9.1,1.306,3.781a130.03,130.03,0,0,1-17.366,4.684l-.772-3.925A126.5,126.5,0,0,0,172.5,251.067Zm-21.6,5.385.622,3.951a131.593,131.593,0,0,1-16.765,1.544l-.1,0-.1,0-.106,0h-.84l-.078-4A128.267,128.267,0,0,0,150.894,256.451Zm-39.6.029a128.3,128.3,0,0,0,17.376,1.5l-.072,4a131.806,131.806,0,0,1-17.92-1.546ZM89.68,251.128a126.5,126.5,0,0,0,16.838,4.515l-.767,3.926a130.056,130.056,0,0,1-17.373-4.659Zm-20.334-9.07a126.834,126.834,0,0,0,15.783,7.406l-1.445,3.73A130.383,130.383,0,0,1,67.4,245.553ZM50.908,229.566a127.8,127.8,0,0,0,14.248,10.054l-2.077,3.419a131.281,131.281,0,0,1-11.106-7.552h0l-.111-.084h0l-.055-.042h0l-.11-.084,0,0-.108-.082-.006,0-.106-.081-.006,0-.051-.039h0l-.108-.083-.006,0-.1-.081-.008-.006-.051-.039h0l-.052-.04-.009-.007-.043-.033-.01-.008-.05-.038-.009-.007-.042-.033-.012-.009-.05-.039,0,0-.047-.036-.014-.011-.045-.035,0,0-.05-.038-.014-.011-.037-.029-.015-.011-.047-.036-.014-.011-.036-.028-.017-.013-.044-.034-.013-.01-.039-.031-.017-.013-.035-.027-.015-.012-.045-.035-.018-.014-.031-.024-.019-.015-.044-.034-.019-.015-.029-.023-.021-.017-.033-.026-.027-.022-.03-.024-.023-.018-.026-.021-.025-.02-.038-.03-.024-.019-.024-.019-.024-.019-.036-.028-.03-.024-.021-.016-.027-.021-.02-.016-.048-.038-.018-.014-.029-.023-.017-.013-.056-.044-.011-.009-.029-.023-.017-.013-.1-.079-.011-.009-.033-.026-.007-.006-.07-.056h0l-.036-.029-.005,0-.109-.087-.006,0-.11-.089,0,0q-.311-.25-.621-.5Zm-15.987-15.51a128.246,128.246,0,0,0,12.285,12.379l-2.64,3h0l-.048-.042-.01-.008-.046-.041,0,0-.05-.044L44.4,229.3l-.046-.041,0,0-.1-.09,0,0-.1-.09,0,0q-4.025-3.568-7.748-7.454h0l-.1-.1h0l-.144-.151,0,0-.093-.1-.006-.006-.091-.1-.007-.007-.043-.045,0,0-.045-.048-.008-.008-.038-.04L35.809,221l-.044-.046-.006-.006-.037-.04-.012-.013-.039-.041,0,0-.042-.045-.013-.014-.032-.034-.012-.012-.04-.043-.014-.015-.029-.031-.015-.016-.039-.042-.014-.015-.028-.03-.017-.018-.031-.033-.02-.021-.029-.031-.02-.021-.023-.025-.018-.019-.036-.039-.021-.022-.021-.022-.021-.022-.036-.038-.021-.022-.02-.021-.022-.024-.019-.021-.04-.043-.015-.016-.026-.028-.011-.012-.059-.064h0l-.028-.03-.011-.012-.089-.1-.009-.009-.03-.032h0l-.064-.069,0,0L34.6,219.7l0,0-.1-.106,0,0q-1.321-1.438-2.6-2.914Zm-13.046-18.05a127.759,127.759,0,0,0,9.944,14.325l-3.122,2.5q-3.147-3.929-5.992-8.1h0l-.083-.121h0l-.192-.283,0,0-.079-.117,0,0-.109-.161v0l-.08-.119,0-.006-.079-.118,0,0-.081-.121h0l-.026-.038,0-.007-.076-.114-.005-.008-.077-.116,0,0-.026-.039h0l-.052-.078,0,0-.025-.038,0-.007-.075-.113-.007-.011-.073-.111-.007-.011-.023-.036-.005-.008-.049-.075v0l-.025-.038,0-.007-.075-.114-.007-.01-.073-.111-.007-.011-.023-.035-.006-.01-.044-.068-.006-.009-.023-.035-.007-.011-.071-.109-.011-.016-.022-.033,0,0-.046-.072-.008-.012-.022-.035-.008-.012-.042-.064-.008-.012-.022-.033-.01-.015-.069-.106-.011-.016-.021-.032-.008-.012-.038-.06-.011-.018-.02-.031-.012-.019-.033-.051-.014-.022-.018-.029-.014-.021-.028-.044-.017-.027-.018-.029-.014-.022-.019-.029-.016-.025-.028-.044-.016-.024-.017-.027-.017-.027-.025-.039-.018-.029-.017-.027-.016-.025-.016-.025-.029-.045-.015-.023-.018-.029-.015-.024-.025-.04-.017-.027-.02-.031-.014-.023-.021-.033-.017-.026-.025-.04-.013-.021-.021-.033-.013-.02-.03-.048-.012-.019-.022-.036-.012-.019-.031-.05-.008-.013-.024-.039-.013-.02-.025-.04-.008-.013-.031-.05-.011-.018-.025-.039-.008-.014-.032-.051-.009-.015-.025-.04-.01-.016-.032-.052-.005-.008-.028-.045-.01-.016-.027-.044-.006-.01-.033-.053-.008-.013-.028-.045-.007-.011-.033-.054L19.5,199.8l-.029-.047-.007-.011-.068-.111-.005-.009-.069-.112-.005-.009-.032-.052,0,0-.036-.058v0l-.034-.056,0,0-.071-.117,0,0-.072-.119h0q-.312-.511-.619-1.026Zm-9.689-20.048A126.785,126.785,0,0,0,19.47,191.8l-3.51,1.918q-1.451-2.655-2.781-5.384l0,0-.086-.176v0l-.063-.13,0-.005-.061-.126,0-.008-.02-.041v0l-.042-.087h0l-.02-.042,0-.007-.059-.124-.005-.011-.019-.04h0l-.039-.081-.005-.011-.018-.038,0-.01-.057-.121-.007-.014-.056-.117-.008-.016-.017-.035-.008-.017L12.539,187l-.007-.015-.016-.035-.009-.019-.053-.112-.01-.02-.016-.033-.008-.018-.028-.061-.009-.019-.015-.033-.01-.021-.025-.053-.012-.025-.014-.031-.011-.023-.015-.031-.014-.03-.02-.043-.014-.029-.013-.028-.013-.029-.02-.042-.014-.031-.014-.029-.012-.026-.013-.029-.022-.047-.013-.028-.013-.027L12.072,186l-.014-.031-.02-.043-.014-.03-.013-.028L12,185.843l-.012-.026-.023-.049-.012-.026-.014-.03-.012-.027-.02-.044-.011-.024-.017-.037-.011-.024-.016-.036-.009-.02-.023-.051-.011-.023-.016-.034-.01-.022-.024-.052-.008-.018-.018-.04-.009-.021L11.7,185.2l-.009-.02-.022-.049-.009-.019-.019-.042-.007-.016L11.611,185l-.007-.014-.02-.044-.008-.017-.026-.057,0,0-.024-.053-.007-.016-.021-.047,0-.011-.025-.056-.008-.017-.02-.044-.007-.015-.026-.058,0-.005-.023-.052-.007-.015-.023-.052,0-.005-.026-.059,0-.011-.022-.05,0-.01-.027-.06,0-.005-.024-.054-.005-.012-.053-.118,0-.011-.025-.056,0,0-.027-.061,0-.007-.024-.054,0-.008-.053-.121,0-.01-.026-.059h0l-.027-.062,0-.006-.025-.058,0,0-.055-.125,0,0-.055-.126v0l-.084-.192h0l-.056-.129h0q-1.187-2.747-2.252-5.558ZM6.173,154.523a126.524,126.524,0,0,0,4.384,16.872l-3.793,1.271q-2.028-6.048-3.472-12.348v0l-.023-.1v0l-.022-.1v-.006l-.022-.1v0l-.007-.031,0-.009-.013-.058v0l-.007-.03,0-.01-.021-.092,0-.01-.006-.029,0-.008-.011-.051,0-.017-.006-.025,0-.016-.01-.044,0-.016-.006-.026,0-.013-.011-.052,0-.01-.006-.026,0-.016-.019-.085,0-.017-.005-.025,0-.019-.009-.04,0-.018-.005-.024,0-.022-.007-.033,0-.022-.005-.024,0-.019L3,159.025l0-.019-.005-.025,0-.018-.005-.023-.008-.037,0-.02-.005-.024,0-.02-.006-.028-.006-.029-.005-.025,0-.019-.006-.028,0-.023-.007-.031,0-.018-.006-.028,0-.015-.009-.04,0-.016-.006-.029,0-.015-.009-.041,0-.012-.007-.031,0-.016-.009-.042v-.005l-.008-.039,0-.013-.008-.037,0-.008-.009-.042,0-.014-.007-.035,0-.01-.009-.044,0-.01-.008-.038,0-.008L2.786,158v0l-.009-.041,0-.009-.019-.092,0-.009-.009-.043v0l-.01-.048v0l-.009-.045v0l-.01-.048v0L2.7,157.6v0l-.02-.1h0l-.02-.1v0c-.146-.712-.285-1.424-.419-2.14ZM4.007,132.355a128.445,128.445,0,0,0,1.366,17.386l-3.957.585q-.372-2.513-.647-5.055v0l-.011-.1v0l-.011-.1v0l0-.047v0l-.005-.049v-.005l0-.045v0l-.005-.048v-.006l0-.043V144.8l0-.047v-.007l0-.04v-.01l0-.046v-.008l0-.038V144.6l0-.044v-.01l0-.037v-.014l0-.043v-.013l0-.031,0-.018,0-.037,0-.018,0-.031,0-.018,0-.038v-.015l0-.032,0-.019,0-.032,0-.021,0-.032,0-.019,0-.029,0-.026,0-.029,0-.021,0-.027,0-.026,0-.03,0-.022,0-.023,0-.03,0-.029,0-.023,0-.023,0-.026,0-.033,0-.022,0-.021,0-.039,0-.02,0-.027,0-.016-.005-.056v0l0-.027v-.016l0-.026v0l-.005-.058,0-.016,0-.026v-.011l0-.052v-.014l0-.028v0l-.005-.057v-.016l0-.026v-.013l0-.052v-.011l0-.03v-.006l-.005-.059v-.009l0-.031v0l-.006-.065v0l-.009-.1V142.7l0-.032v0l-.005-.062V142.6l0-.031v-.008L.5,142.5v0l0-.032v-.006l-.009-.1v0l-.009-.1v0l-.008-.1v0l-.008-.1v0l-.008-.1v0l-.008-.1v0l-.008-.1v0q-.057-.7-.106-1.4h0q-.035-.491-.065-.983v0l-.006-.1v0l-.006-.1v-.006l-.006-.1h0l-.006-.1v-.007l-.006-.1v0l-.006-.1V138.7l-.006-.1V138.6l-.006-.1v-.009l-.005-.1v-.008l0-.031v-.008l0-.056v-.01l0-.031v-.008l0-.055v-.012l0-.029v-.013l0-.047v-.061l0-.046v-.06l0-.043v-.063l0-.039v-.066l0-.037v-.091l0-.039v-.066l0-.039v-.066l0-.04v-.065l0-.042v-.014l0-.033v-.015l0-.043V137.1l0-.035v-.013l0-.045V137l0-.041v-.01l0-.047V136.9l0-.041v-.011l0-.047h0l0-.047v-.009l0-.1v-.005l0-.1v-.005l0-.1v0l0-.1h0c-.052-1.3-.085-2.616-.1-3.929ZM1.758,109.489l3.947.652A128.127,128.127,0,0,0,4.047,127.5l-4-.108a131.652,131.652,0,0,1,1.709-17.906ZM7.485,87.245l3.77,1.336a126.478,126.478,0,0,0-4.67,16.794l-3.919-.8,0-.009,0-.023.006-.031.005-.026.005-.024,0-.02.006-.027.006-.028.006-.028,0-.018.006-.03,0-.013.009-.041,0-.016.006-.029,0-.016.009-.042,0-.012.007-.034,0-.012.009-.045v0L2.784,104l0-.011.019-.091,0-.007.009-.043v0l.01-.047,0-.007.009-.042v0l.021-.1h0A129.951,129.951,0,0,1,7.485,87.245Zm9.551-20.892,3.477,1.977a126.879,126.879,0,0,0-7.552,15.714l-3.716-1.48,0-.01.019-.047.009-.023.016-.041.009-.022.017-.042.006-.016.022-.055.008-.019.017-.044.006-.015.023-.058,0-.01.02-.05.006-.015.023-.057v0l.024-.06,0-.012.021-.052,0-.009.025-.062,0,0,.023-.057,0-.01.05-.123,0-.007.051-.126v0l.026-.063h0l.053-.13h0q1.514-3.691,3.244-7.267h0l.153-.315v0l.061-.125h0l.092-.187v0l.06-.123,0,0,.061-.123h0l.03-.061v0l.061-.124,0,0,.061-.123,0,0,.03-.06h0l.061-.123,0,0,.06-.121,0-.006.061-.121v0l.029-.058,0,0,.061-.121,0-.007.061-.121,0,0,.03-.059v0l.061-.121,0-.006.061-.12,0-.007.061-.12v0l.03-.058,0,0,.062-.121,0,0,.062-.122h0l.031-.06v0l.062-.121,0,0,.062-.121,0,0,.063-.122h0l.031-.06,0,0,.063-.122,0,0,.064-.122h0l.031-.06v0l.063-.122,0,0,.064-.122v0Q15.929,68.3,17.036,66.354Zm13.057-18.9,3.08,2.553A127.842,127.842,0,0,0,22.989,64.163l-3.4-2.108A131.4,131.4,0,0,1,30.093,47.455ZM46.238,31.114l2.59,3.049A128.245,128.245,0,0,0,36.337,46.334l-2.981-2.668.329-.366h0l.093-.1,0,0,.093-.1h0l.044-.049,0,0,.09-.1.006-.006.088-.1.008-.009.039-.043,0,0,.043-.047.009-.01.035-.039.01-.01.043-.047.006-.006.037-.04.012-.013.038-.041.006-.007.039-.043.014-.016.029-.031.014-.015.039-.042.015-.016.028-.03.016-.017.038-.041.016-.017.025-.027.019-.021.026-.028.026-.028.025-.027.021-.023.021-.023.026-.029.028-.031.023-.025.018-.019.023-.025.023-.024.034-.036L35,41.863l.023-.025.017-.018.041-.044.017-.018.024-.026.015-.016.05-.054.007-.008.027-.028.013-.014.086-.092.012-.013.027-.029.01-.01.055-.058.006-.007.03-.032.006-.007.093-.1.007-.007.094-.1.005-.005.1-.1,0,0,.033-.035h0l.1-.1.005-.006.1-.1,0,0,.1-.106h0q1.863-1.956,3.8-3.835h0l.247-.238h0l.1-.1.006-.006.1-.095.007-.006.1-.094.008-.008.03-.029.01-.009.059-.056.006-.006.028-.027.015-.014.089-.085.015-.014.027-.026.013-.012.051-.048.014-.014.027-.026.016-.015.045-.043.017-.016.026-.024.018-.017.041-.039.021-.02.025-.023.019-.017.025-.024.021-.02.038-.036.021-.02.024-.023.021-.019.037-.035.023-.022.023-.021.024-.023.02-.019.039-.037.02-.018.026-.025.018-.017.041-.039.015-.014.031-.029.018-.016.036-.033.013-.012.04-.037.015-.014.036-.033.01-.009.046-.042.01-.009.037-.035.011-.011.046-.043.006-.006.041-.038.011-.01.094-.087.01-.009.045-.041,0,0,.049-.046.005,0,.046-.043,0,0,.1-.092,0,0,.1-.093,0,0Q44.282,32.776,46.238,31.114Zm18.74-13.285L67,21.282A127.718,127.718,0,0,0,52.582,31.1L50.11,27.95q1.145-.9,2.313-1.777l0,0,.115-.086,0,0,.036-.027.008-.006.108-.08.01-.008.106-.079.012-.009.032-.024.012-.009.056-.042.017-.013.029-.021.018-.013.053-.039.016-.012.028-.02.021-.016.027-.02.031-.023L53.2,25.6l.023-.017.025-.019.029-.021.033-.024.03-.022.024-.018.027-.02.021-.016.044-.032.023-.017.028-.021.021-.016.045-.033.017-.013.032-.024.02-.015.034-.025.025-.018.036-.027.019-.014.034-.025.016-.011.048-.035.014-.01.039-.028.014-.01.049-.036.009-.007.042-.03.015-.011.047-.034,0,0,.05-.036.014-.01.043-.031.008-.006.051-.037.01-.007.044-.032.011-.008.052-.037.005,0,.047-.034.011-.008.1-.075.01-.007.046-.033.007-.005.053-.038.007,0,.047-.034.008-.006.107-.077.007-.005.109-.078.005,0,.11-.079,0,0,.053-.038,0,0,.111-.079,0,0,.111-.079,0,0L55.4,24h0l.057-.04h0l.053-.037.006,0,.11-.077.005,0,.11-.078,0,0,.167-.118,0,0,.111-.078,0,0,.112-.079h0l.056-.039h0l.113-.079,0,0,.111-.077.005,0,.112-.077,0,0,.055-.038h0l.113-.078,0,0L56.836,23l.006,0,.112-.077,0,0,.053-.036,0,0,.111-.076.006,0,.109-.075.008-.006.052-.036h0l.054-.037.009-.006.048-.033.006,0,.055-.037,0,0,.05-.034.009-.006.109-.074.008-.005.052-.035h0l.056-.038.005,0,.049-.033.009-.006.054-.037,0,0,.05-.034.011-.007.106-.071.013-.009.046-.031.007,0,.053-.035.012-.008.043-.029.012-.008.051-.034.01-.007.043-.029.014-.009.052-.034h0l.053-.035.014-.009.042-.028.012-.008.051-.034.014-.009.039-.026.016-.011.05-.033.012-.008.039-.026.019-.013.039-.026.016-.011.045-.029.019-.013.035-.023.017-.012.048-.031.019-.013.034-.022.019-.013.046-.03.022-.014.03-.02.025-.016.027-.018.039-.026.027-.018.027-.018.024-.016.027-.018.043-.028.026-.017.023-.015.028-.019.022-.015.048-.031.022-.015.029-.019.022-.014.05-.032.02-.013.03-.019.021-.014.1-.066.018-.012.031-.02.014-.009.061-.039.015-.009.033-.021.014-.009.067-.044.006,0,.035-.023.012-.008.112-.072.009-.006.037-.024h0l.076-.049.009-.006.037-.024.007,0,.116-.074.008-.005.118-.076,0,0Q62.806,19.1,64.978,17.829Zm20.773-9.8,1.382,3.754a126.748,126.748,0,0,0-15.906,7.138l-1.885-3.528q1.08-.577,2.171-1.134h0l.185-.094h0l.12-.061.008,0,.119-.06.007,0L72.008,14l.006,0,.06-.03h0l.056-.028.01-.005.115-.058.013-.007.046-.023.012-.006.056-.028.012-.006.046-.023.016-.008.055-.028,0,0,.05-.025.018-.009.043-.021.014-.007.053-.027.017-.009.04-.02.018-.009.051-.025.02-.01.036-.018.024-.012.035-.017.02-.01.049-.024.025-.012.031-.015.025-.012.049-.024.023-.012.031-.015.027-.013.03-.015.041-.02.031-.015.029-.014.027-.013.027-.013.047-.023.026-.013.029-.014.027-.013.029-.014.046-.022.025-.012.029-.014.026-.012.048-.024.026-.013.031-.015.022-.011.032-.015.022-.01.056-.027.021-.01.032-.016.021-.01.059-.029.017-.008.033-.016.022-.01.032-.015.025-.012.052-.025.021-.01.034-.016.016-.008.065-.031.015-.007.035-.017.017-.008.115-.055.016-.008.037-.018.006,0,.076-.036.012-.006.037-.018.015-.007.118-.056.013-.006.038-.018h0l.081-.038.01,0,.039-.019.009,0,.124-.058.011-.005.125-.059.006,0,.132-.062h0l.042-.02.007,0,.125-.059.01,0,.129-.06h0l.043-.02.005,0,.128-.06.007,0,.129-.06,0,0,.177-.082.006,0,.129-.059,0,0,.177-.081,0,0,.128-.059.008,0,.131-.06h0l.044-.02,0,0,.13-.059.008,0,.128-.058.007,0,.043-.019h0l.134-.06,0,0,.132-.059,0,0,.133-.059h0l.043-.019.005,0,.127-.056.012-.005.127-.056.006,0,.04-.018.011,0,.123-.054.012-.006.122-.054.012-.005.04-.017.007,0,.081-.036,0,0,.04-.017.013-.006.119-.052L78.6,10.9l.036-.016.014-.006.068-.03.017-.007.035-.015.018-.008.074-.032.006,0,.035-.015.02-.009.035-.015.012-.005.067-.029.02-.009.033-.014.024-.01.054-.023.024-.01.032-.014.024-.01.031-.013.032-.014.045-.019.025-.011.031-.013.024-.01.054-.023.024-.01.03-.013.027-.012.028-.012.049-.021.027-.012.028-.012.029-.012.034-.014.04-.017.032-.013.028-.012.031-.013.024-.01.05-.021.025-.011.034-.015.023-.01.052-.022.02-.008.037-.016.023-.01.039-.016.024-.01.047-.02.022-.009.037-.015.021-.009.053-.022.02-.008.037-.016.023-.01.047-.019.015-.006.049-.021.02-.008.042-.018.016-.007.056-.023.017-.007.042-.017.019-.008.056-.023.011,0,.048-.02L80.96,9.9l.045-.019.013-.005.057-.023.015-.006.047-.019.014-.006.059-.024.007,0,.052-.021.015-.006.057-.023h0l.06-.024.013-.005.051-.021.008,0,.06-.025.009,0,.052-.021.011,0,.121-.049.01,0,.057-.023h0l.063-.026h0l.059-.024.006,0,.125-.051.007,0,.127-.051h0l.2-.078h0Q84.058,8.648,85.751,8.025Zm22.173-6,.7,3.938a126.555,126.555,0,0,0-16.912,4.228l-1.236-3.8A130.072,130.072,0,0,1,107.924,2.026ZM130.806,0l.006,4a128.64,128.64,0,0,0-17.4,1.208l-.549-3.962c1.3-.18,2.605-.341,3.919-.483h0l.1-.011h0l.1-.011h0l.1-.011h0l.1-.01h.006l.047,0h0l.049-.005h0l.046,0h0l.047,0h.009l.041,0h.008l.045,0h.013l.035,0h.012l.042,0,.046,0,.018,0,.04,0,.045,0,.019,0,.039,0,.046,0,.019,0,.039,0,.044,0,.048,0,.035,0,.02,0,.05,0,.033,0,.02,0,.025,0,.016,0,.045,0,.017,0,.041,0,.049,0,.041,0h.012l.054-.005h.008l.031,0h.006l.061-.006h.006l.032,0h.005l.061-.006h.007l.031,0h.007l.1-.009h.006l.1-.009h.006l.1-.009h0Q124.846.012,130.806,0Z" transform="translate(-0.007)" fill="#ffffff69"/></svg>