<svg xmlns="http://www.w3.org/2000/svg" width="366" height="366" viewBox="0 0 366 366"><g transform="translate(-552 -1817)"><path d="M183,47C108.009,47,47,108.009,47,183s61.009,136,136,136,136-61.009,136-136S257.991,47,183,47m0-47A183,183,0,1,1,0,183,183,183,0,0,1,183,0Z" transform="translate(552 1817)" fill="#e65050"/><path d="M183,47C108.009,47,47,108.009,47,183s61.009,136,136,136,136-61.009,136-136S257.991,47,183,47m0-47A183,183,0,1,1,0,183,183,183,0,0,1,183,0Z" transform="translate(552 1817)" fill="#5078e6"/><g transform="translate(-585 -33)"><g transform="translate(-133 31)"><path d="M183,1a183.35,183.35,0,0,0-36.68,3.7A181,181,0,0,0,81.243,32.082,182.534,182.534,0,0,0,15.3,112.158,181.077,181.077,0,0,0,4.7,146.32a183.785,183.785,0,0,0,0,73.361,181,181,0,0,0,27.385,65.077A182.535,182.535,0,0,0,112.158,350.7a181.077,181.077,0,0,0,34.162,10.6,183.785,183.785,0,0,0,73.361,0,181,181,0,0,0,65.077-27.385A182.535,182.535,0,0,0,350.7,253.842a181.079,181.079,0,0,0,10.6-34.162,183.785,183.785,0,0,0,0-73.361,181,181,0,0,0-27.385-65.077A182.534,182.534,0,0,0,253.842,15.3,181.079,181.079,0,0,0,219.68,4.7,183.35,183.35,0,0,0,183,1m0-1A183,183,0,1,1,0,183,183,183,0,0,1,183,0Z" transform="translate(1270 1819)" fill="#c7c7c7"/><path d="M137,1a137.014,137.014,0,0,0-27.41,2.763A135.249,135.249,0,0,0,60.962,24.226,136.4,136.4,0,0,0,11.687,84.063,135.309,135.309,0,0,0,3.763,109.59a137.337,137.337,0,0,0,0,54.82,135.249,135.249,0,0,0,20.463,48.628,136.4,136.4,0,0,0,59.837,49.275,135.309,135.309,0,0,0,25.527,7.924,137.337,137.337,0,0,0,54.82,0,135.249,135.249,0,0,0,48.628-20.463,136.4,136.4,0,0,0,49.275-59.837,135.309,135.309,0,0,0,7.924-25.527,137.337,137.337,0,0,0,0-54.82,135.249,135.249,0,0,0-20.463-48.628,136.4,136.4,0,0,0-59.837-49.275A135.309,135.309,0,0,0,164.41,3.763,137.014,137.014,0,0,0,137,1m0-1A137,137,0,1,1,0,137,137,137,0,0,1,137,0Z" transform="translate(1316 1865)" fill="#c7c7c7"/><path d="M152,5a148.113,148.113,0,0,0-29.631,2.987A146.169,146.169,0,0,0,69.814,30.1,147.444,147.444,0,0,0,16.55,94.783a146.223,146.223,0,0,0-8.563,27.587,148.483,148.483,0,0,0,0,59.262A146.169,146.169,0,0,0,30.1,234.186a147.444,147.444,0,0,0,64.68,53.264,146.223,146.223,0,0,0,27.587,8.563,148.483,148.483,0,0,0,59.262,0A146.169,146.169,0,0,0,234.186,273.9a147.444,147.444,0,0,0,53.264-64.68,146.223,146.223,0,0,0,8.563-27.587,148.483,148.483,0,0,0,0-59.262A146.169,146.169,0,0,0,273.9,69.814a147.444,147.444,0,0,0-64.68-53.264,146.223,146.223,0,0,0-27.587-8.563A148.113,148.113,0,0,0,152,5m0-5A152,152,0,1,1,0,152,152,152,0,0,1,152,0Z" transform="translate(1301 1850)" fill="#c7c7c7"/></g><path d="M-1903,254h-5V210.468a139.826,139.826,0,0,1-25.371-2.866,138.307,138.307,0,0,1-25.955-8.119,139.023,139.023,0,0,1-23.489-12.789A140.017,140.017,0,0,1-2001.5,171.54l-31.228,31.228-3.535-3.535L-2005.039,168a140.006,140.006,0,0,1-15.22-18.786,139.012,139.012,0,0,1-12.816-23.612,138.324,138.324,0,0,1-8.1-26.1,139.889,139.889,0,0,1-2.8-25.511H-2088V69h44.022a139.906,139.906,0,0,1,2.769-25.351,138.323,138.323,0,0,1,8.009-25.961,139.006,139.006,0,0,1,12.676-23.514,139.993,139.993,0,0,1,15.054-18.73l-31.794-31.672,3.529-3.542,31.785,31.663a140.024,140.024,0,0,1,18.744-15.32,139.041,139.041,0,0,1,23.587-12.929,138.305,138.305,0,0,1,26.089-8.211,139.815,139.815,0,0,1,25.53-2.9V-111h5v43.514a139.815,139.815,0,0,1,25.983,2.806,138.133,138.133,0,0,1,26.078,8.1,138.935,138.935,0,0,1,23.612,12.822,140.248,140.248,0,0,1,18.809,15.245l31.25-31.25,3.536,3.535-31.25,31.25a140.467,140.467,0,0,1,21.775,29.44,136.858,136.858,0,0,1,12.7,31.753A139.612,139.612,0,0,1-1766.022,69H-1723v5h-43.023a139.893,139.893,0,0,1-2.807,25.534,138.326,138.326,0,0,1-8.114,26.115,139.024,139.024,0,0,1-12.837,23.626,140,140,0,0,1-15.24,18.79l31.284,31.164-3.529,3.542-31.293-31.173a139.994,139.994,0,0,1-18.782,15.2,139.01,139.01,0,0,1-23.6,12.8,138.315,138.315,0,0,1-26.076,8.087,139.925,139.925,0,0,1-25.987,2.8Zm-2.465-48.5h.465a133.131,133.131,0,0,0,94.69-39.185A133.116,133.116,0,0,0-1771,71.5a133.552,133.552,0,0,0-16.58-64.618A135.475,135.475,0,0,0-1810.2-23.165l-.065-.065A133.092,133.092,0,0,0-1905-62.5h-.491a133.1,133.1,0,0,0-94.688,39.675A133.174,133.174,0,0,0-2039,71.5a133.124,133.124,0,0,0,39.248,94.753A133.156,133.156,0,0,0-1905.5,205.5h.03Z" transform="translate(3225.5 1961.5)" fill="#c7c7c7"/></g></g></svg>