<svg xmlns="http://www.w3.org/2000/svg" width="244" height="244" viewBox="0 0 244 244"><path d="M122,0h2.751l.068,0h.5l.06,0h.057l.066,0h.066l.059,0h.057l.054,0h.018l.061,0,.057,0h.056l.076,0,.058,0h.056l.064,0,.069,0,.057,0h.057l.054,0h.079l.057,0h.056l.054,0h.017l.062,0,.057,0,.039,0h.017l.054,0h.02L127,.1h.056l.052,0h.009l.049,0h.021l.058,0,.037,0h.019l.054,0h.017l.04,0h.021l.058,0,.039,0h.017l.054,0h.019l.06,0,.035,0h.023l.055,0,.054,0,.056,0,.056,0,.072,0h.021l.041,0h.023l.057,0,.036,0h.021l.054,0h.017l.062,0,.057,0,.056,0,.075,0,.058,0,.032,0h.023l.039,0,.03,0,.065,0,.057,0,.056,0,.075,0,.057,0,.057,0,.056,0,.078,0,.029,0,.028,0,.028,0,.028,0,.064,0,.068,0,.056,0,.029,0,.027,0,.072,0,.033,0,.029,0,.026,0,.03,0,.027,0,.028,0,.078,0,.027,0,.03,0,.025,0,.029,0,.027,0,.05,0,.028,0,.031,0,.024,0,.03,0,.026,0,.03,0,.026,0,.049,0,.029,0,.03,0,.025,0,.031,0,.025,0,.03,0,.028,0,.049,0,.027,0,.03,0,.024,0,.031,0,.024,0,.031,0,.028,0,.051,0,.024,0,.032,0,.023,0,.032,0,.023,0,.057,0,.023,0,.031,0,.024,0,.031,0,.023,0,.032,0,.024,0,.054,0,.026,0,.03,0,.025,0,.03,0,.026,0,.03,0,.026,0,.053,0,.024,0,.031,0,.025,0,.031,0,.023,0,.112.009.056,0,.054,0h.017l.072.006L132,.4l.021,0,.033,0,.054,0,.02,0,.064.005.052,0,.021,0,.033,0,.021,0,.033,0h.011l.072.006h.018l.033,0,.021,0,.033,0,.021,0,.115.01.02,0,.033,0,.022,0,.032,0,.021,0,.064.006h.017l.033,0,.022,0,.032,0,.022,0,.032,0h.017L133.11.5l.02,0,.034,0,.02,0,.034,0,.019,0,.117.011.018,0,.034,0,.019,0,.034,0,.017,0,.119.011.018,0,.035,0,.018,0,.035,0h.015l.075.007h.01l.038,0h.015l.037,0h.015l.123.012h.014l.035,0,.019,0,.035,0,.016,0,.12.012.017,0,.035,0,.017,0,.036,0h.014l.074.007h.012l.034,0,.02,0,.034,0,.019,0,.036,0h.01l.078.008h.011l.037,0,.016,0,.037,0,.015,0,.125.013h.012l.038,0,.015,0,.037,0h.013l.126.013h.012l.038,0,.015,0,.039,0h0l.132.014h.013l.039,0h.012l.132.015h0l.041,0h.011l.041,0h.009l.134.015h0l.041,0h.011l.041,0h0l.134.015h.009l.04,0h.011l.181.021h.007l.043.005h.007l.183.022h.007l.045.005h0l.142.017h0l.045.005h0l.188.023h0l.047.006h0l.188.023h0l.235.03h0l.235.03h0l.188.024h0l.237.031h0l.236.031h0l.663.091h0a121.143,121.143,0,0,1,28.966,7.8h0l.429.176h0l.168.069h0l.211.088,0,0,.211.088h0l.166.07.006,0,.038.016.006,0,.122.051h0l.036.015.011,0,.035.015.01,0,.118.05,0,0,.036.015.011,0,.036.015,0,0,.118.05.01,0,.036.015.009,0,.16.068.009,0,.036.015.01,0,.116.05.006,0,.035.015.012,0,.035.015.008,0,.114.049.01,0,.034.015.013.005.034.015.012.005.111.048.012.005.033.014.015.006.033.014,0,0,.076.033.006,0,.033.014.016.007.031.014.014.006.108.047.013.006.032.014.016.007.031.014.015.007.106.047.014.006.032.014.015.007.031.014.014.006.06.027.015.007.028.013.019.009.028.012.021.009.026.012.022.01.049.022.019.009.028.012.02.009.028.013.02.009.027.012.024.011.046.02.021.01.026.011.023.01.026.012.023.01.035.016.032.014.025.011.024.011.024.011.024.011.025.011.026.012.035.016.031.014.021.01.027.012.023.01.025.011.024.011.033.015.033.015.025.012.024.011.024.011.024.011.025.011.023.011.044.02.023.01.025.012.024.011.026.012.022.01.03.014.024.011.039.018.02.009.029.013.021.01.029.013.02.009.035.016.027.013.032.015.021.01.029.013.021.01.03.014.019.009.046.021.016.007.033.015.019.009.03.014.019.009.033.015.015.007.046.022.017.008.032.015.018.009.032.015.018.008.043.02,0,0,.048.022.017.008.032.015.018.009.033.015.015.007.048.022.009,0,.039.018.019.009.031.015.017.008.035.017.014.006.048.023.011.005.037.017.017.008.033.016.016.007.041.019.007,0,.049.023.012.006.037.017.016.008.035.017.014.006.1.047.012.006.037.018.015.007.039.019.01,0,.05.024h0l.048.023.012.006.037.018.014.007.044.021,0,0,.051.025,0,0,.046.022.009,0,.042.02.008,0,.1.049.006,0,.044.021.01,0,.041.02.009,0,.1.049.007,0,.044.021.008,0,.045.022,0,0,.1.049.008,0,.044.021.007,0,.152.074.008,0,.045.022.005,0,.1.051h0l.048.023.007,0,.048.024h0l.1.051,0,0,.047.023,0,0,.155.077h0l.051.025h0l.156.077,0,0,.208.1h0l.157.079h0q2.094,1.054,4.14,2.185,1.3.721,2.589,1.472h0l.15.088h0l.048.028,0,0,.147.087.005,0,.044.026,0,0,.145.086.008,0,.041.024.007,0,.1.056.009.005.038.023.011.007.04.024.006,0,.1.057.01.006.037.022.011.006.041.024.006,0,.047.028.007,0,.039.024.011.007.037.022.011.007.093.056.01.006.036.022.013.008.035.021.012.007.092.056.013.008.033.02.014.009.035.021.011.007.046.028,0,0,.04.024.015.009.032.019.015.009.038.023.008,0,.046.028.012.007.033.02.017.01.03.018.016.01.036.022.01.006.044.027.017.01.028.017.019.011.029.018.016.01.042.026.013.008.032.02.019.012.025.016.021.013.025.016.019.012.042.026.015.009.03.019.019.011.026.016.021.013.027.017.018.011.042.026.019.012.025.015.021.013.024.015.022.013.029.018.023.014.032.02.021.013.024.015.022.014.022.014.022.014.029.018.032.02.023.014.023.014.022.014.022.014.024.015.022.014.04.025.023.014.021.013.024.015.021.013.024.015.02.012.044.028.02.012.023.015.022.014.024.015.019.012.025.016.017.011.048.03.018.011.025.016.019.012.025.016.02.013.024.015.021.013.045.028.017.011.026.017.017.011.027.017.015.009.1.061.014.009.028.018.014.009.028.018.015.01.055.035.011.007.028.018.016.01.026.017.018.012.026.017.013.008.053.034.015.01.026.017.019.012.025.016.016.01.094.06.015.01.028.018.015.01.027.018.015.01.058.038.008.005.028.018.014.009.029.019.014.009.029.019.011.007.059.038.01.006.028.018.015.01.028.018.015.01.027.018.011.007.058.038.011.007.03.019.012.008.03.02.011.007.1.064.013.008.028.018.015.01.029.019.009.006.1.066.011.007.03.02.01.007.1.066.01.007.028.018.015.01.027.018.014.009.1.064.012.008.028.019.015.01.028.019.012.008.1.064.014.009.028.019.014.009.028.019.011.008.062.042.005,0,.029.02.013.009.028.019.014.009.1.068,0,0,.03.02.013.009.03.02.01.007.1.066.012.008.029.02.011.008.031.021.008.005.1.068.011.007.029.02.013.008.03.02.008.006.064.043.005,0,.03.02.012.008.03.02.01.007.1.071,0,0,.032.022.01.007.03.02.011.007.1.068.008.005.031.021.012.008.03.021.006,0,.1.069.012.008.03.02.01.007.031.021h0l.069.047.006,0,.031.021.01.007.031.021.009.006.1.07.007,0,.031.021.01.007.032.022.005,0,.1.071.01.007.03.021.011.008.03.021.007,0,.1.07.01.007.03.021.01.007.106.074h0l.032.022.01.007.031.022.006,0,.1.073.005,0,.033.023.007,0,.034.024h0l.107.075.007,0,.032.023.008.006.14.1.009.006.031.022.008.005.1.074,0,0,.032.023.009.006.031.022.008.005.1.072.008.006.029.021.012.009.03.021,0,0,.1.074.007.005.032.023.006,0,.142.1.006,0,.033.024.005,0,.108.078h0l.034.024.007,0,.033.024,0,0,.1.075.006,0,.033.024.006,0,.142.1,0,0,.034.024.005,0,.141.1.007.005.033.024,0,0,.1.075.008.006.032.023.007.005.033.024h0L194,23.5l0,0,.033.024.007,0,.14.1.007.005.033.024,0,0,.106.078,0,0,.032.024.007.005.031.023.007.005.1.075.006,0,.031.023.008.006.137.1.009.007.031.023.007.005.139.1.007.005.032.024.005,0,.1.078h0l.033.024.007.005.14.1,0,0,.033.025.006,0,.141.106,0,0,.033.025.006,0,.138.1.007.006.032.024,0,0,.107.081h0l.035.026,0,0,.143.109,0,0,.034.026,0,0,.141.108,0,0,.034.026,0,0,.142.109,0,0,.179.138h0l.144.111h0l.18.139,0,0,.035.027h0l.143.112,0,0,.322.252,0,0,.034.027,0,0,.141.111h0A122.7,122.7,0,0,1,219.762,49l0,0,.108.144h0l.136.182,0,0,.135.182,0,0,.107.144,0,0,.026.035,0,0,.106.144,0,0,.026.035,0,0,.1.143,0,.007.1.14.006.008.023.032,0,.007.1.14,0,.007.023.032.005.007.1.139.006.008.023.032,0,0,.075.1,0,.006.023.031.007.009.022.031,0,.007.073.1.005.008.022.031.006.009.1.137.008.011.022.03.006.008.072.1,0,.007.022.03.007.01.021.03.007.01.069.1.008.011.02.029.009.012.021.03,0,.007.07.1.008.012.02.029.009.012.02.029,0,.007.045.064,0,.006.021.03.008.012.02.028.01.014.067.1.007.011.019.028.011.015.019.027.009.012.067.1.008.011.021.03.007.01.021.031,0,.007.043.062.006.009.02.028.009.013.019.028.01.014.019.028,0,.007.04.057.01.015.018.026.012.017.018.026.012.017.017.024.014.02.03.043.013.018.017.024.012.018.017.025.013.019.03.044.012.018.017.024.013.019.016.023.013.019.017.025.011.016.031.046.013.018.016.023.014.021.015.023.014.02.016.023.018.026.022.031.017.024.014.021.015.022.015.022.013.019.026.038.017.025.015.022.014.02.016.024.014.02.016.023.014.021.025.036.017.024.016.023.013.02.016.024.013.019.016.023.012.018.031.046.012.018.016.023.014.02.015.022.016.024.013.02.024.035.018.026.014.021.015.023.014.021.016.023.013.019.031.046.011.016.016.024.014.02.015.023.013.02.016.024.013.02.027.041.014.021.016.023.013.02.016.023.014.02.016.023.017.026.024.035.014.02.016.024.013.02.015.023.015.022.014.021.026.039.015.023.014.021.016.024.013.02.015.023.014.021.026.04.014.022.016.025.012.018.016.025.013.02.016.024.013.02.027.04.014.022.015.023.014.021.016.024.012.018.017.026.008.012.034.052.011.017.017.026.011.017.01.016-1.673,1.1a120.6,120.6,0,0,0-42.5-39.431A119.451,119.451,0,0,0,122,2V0ZM226.775,59.463a121.31,121.31,0,0,1,12.715,29.554q1.429,5.1,2.42,10.376v0l.017.094h0l.017.093v0l.035.188v0c.031.168.062.338.092.506v0l.034.188v0l.016.092v0l.016.09v.006l.016.092v0l.005.03v0l.01.057v0l.005.03v0l.01.059v0l.005.029v.007l.01.057v0l.005.029v.006l.016.09v0l.016.09v.005l.015.09v0l.015.091v0l.015.088,0,.011,0,.027v0l.009.056v.006l0,.029v.006l.009.055v.007l0,.028v.009l.009.054v0l0,.029v.005l.015.09v.008l.014.086,0,.012.014.084,0,.01.014.084,0,.011.014.084,0,.012,0,.027v.006l.008.05,0,.012,0,.027v.006l.008.052,0,.01,0,.026,0,.013.007.047v.009l0,.027v.009l.008.05v.008l0,.027,0,.012.007.045,0,.012,0,.025,0,.013.007.044,0,.013,0,.024,0,.017,0,.022.005.032,0,.024,0,.017,0,.022.005.032,0,.024,0,.017,0,.023,0,.017.006.04,0,.014,0,.025,0,.011.007.046,0,.014,0,.025v.01l.007.048,0,.012,0,.025,0,.013.007.044,0,.014,0,.024,0,.016.006.039,0,.017,0,.023,0,.018.006.038,0,.017,0,.024,0,.014.006.042,0,.015,0,.022,0,.018.005.036,0,.018,0,.023,0,.016,0,.024,0,.033,0,.021,0,.02,0,.022,0,.034,0,.021,0,.019,0,.023,0,.019.005.035,0,.021,0,.021,0,.027,0,.026,0,.022,0,.021,0,.023,0,.03,0,.022,0,.021,0,.021,0,.029,0,.024,0,.02,0,.025,0,.016.005.036,0,.018,0,.025,0,.016.005.036,0,.019,0,.023,0,.018.005.036,0,.018,0,.023,0,.018,0,.035,0,.02,0,.022,0,.018.005.036,0,.017,0,.025,0,.017.005.037,0,.015,0,.027,0,.017,0,.028,0,.025,0,.025,0,.017,0,.027,0,.026,0,.025,0,.018,0,.029,0,.016,0,.033,0,.018,0,.023,0,.028,0,.026,0,.019,0,.022,0,.026,0,.029,0,.019,0,.023,0,.019,0,.035,0,.02,0,.021,0,.02,0,.035,0,.02,0,.021,0,.02,0,.036,0,.017,0,.023,0,.02,0,.029,0,.024,0,.023,0,.02,0,.026,0,.026,0,.024,0,.018,0,.031,0,.02,0,.027,0,.02,0,.025,0,.023,0,.028,0,.02,0,.022,0,.026,0,.027,0,.021,0,.02,0,.026,0,.029,0,.02,0,.023,0,.018,0,.036,0,.018,0,.025,0,.016,0,.037,0,.017,0,.024,0,.018,0,.036,0,.017,0,.025,0,.017,0,.038,0,.013,0,.03,0,.015,0,.034,0,.017,0,.028,0,.016,0,.034,0,.015,0,.032,0,.016,0,.03,0,.017,0,.033,0,.017,0,.028,0,.015,0,.038,0,.015,0,.028,0,.015,0,.038,0,.015,0,.029,0,.015,0,.038,0,.016,0,.026,0,.017,0,.038,0,.015,0,.027,0,.016,0,.039,0,.013,0,.028,0,.017,0,.036,0,.017,0,.026,0,.018,0,.034,0,.019,0,.026,0,.019,0,.028,0,.023,0,.027,0,.019,0,.026,0,.02,0,.031,0,.017,0,.029v.013l0,.039,0,.015,0,.029v.013l0,.038,0,.017,0,.027,0,.016,0,.037,0,.016,0,.027,0,.015,0,.038,0,.016,0,.026,0,.017,0,.037,0,.015,0,.027,0,.017,0,.037,0,.015,0,.028,0,.016,0,.037,0,.014,0,.029,0,.016,0,.033,0,.016,0,.031,0,.016,0,.031,0,.015,0,.034,0,.016,0,.028,0,.018,0,.035,0,.015,0,.031v.011l0,.04v.013l0,.031v.013l0,.039,0,.016,0,.026,0,.016,0,.037,0,.018,0,.024,0,.019,0,.037,0,.016,0,.026,0,.018,0,.038v.015l0,.027,0,.018,0,.036,0,.015,0,.028,0,.016,0,.033,0,.017,0,.03,0,.017,0,.03v.015l0,.034,0,.016,0,.031v.012l0,.039,0,.017,0,.028v.014l0,.039v.015l0,.029v.014l0,.039v.015l0,.031v.012l0,.04v.015l0,.029v.014l0,.04v.012l0,.031v.014l0,.04v.01l0,.033v.014l0,.039v.012l0,.031v.014l0,.036v.014l0,.034v.014l0,.035v.009l0,.038v.015l0,.029,0,.018,0,.034,0,.017,0,.026v.017l0,.037v.017l0,.029v.013l0,.039v.014l0,.03v.013l0,.04v.013l0,.032v.011l0,.043v.007l0,.036v.013l0,.04v.01l0,.034v.012l0,.042v.006l0,.036v.013l0,.038v.011l0,.035v.014l0,.04v0l0,.041v.015l0,.033v.009l0,.041v.013l0,.033v.01l0,.04v.014l0,.034v.009l0,.042v.011l0,.035v.009l0,.041v.013l0,.031v.014l0,.041v.01l0,.033v.013l0,.041v.01l0,.036v.01l0,.042v.008l0,.035v.012l0,.038v.012l0,.035v.012l0,.039v0l0,.042v.013l0,.035v.008l0,.042v.011l0,.036v.008l0,.043v.01l0,.036V113l0,.042v.01l0,.036v.009l0,.042v.01l0,.034v.012l0,.042v.006l0,.037v.011l0,.042v.008l0,.035v.013l0,.042v0l0,.041v.009l0,.044h0l0,.042v.011l.006.086v.012l0,.04v0l0,.043v.011l0,.038v.005l0,.043v.01l0,.037v.007l0,.043v.011l0,.036v.008l0,.043v.011l0,.035v.011l0,.041v.011l0,.034v.01l0,.043v.006l0,.039v.01l0,.043v.007l0,.037v.01l0,.044v0l0,.042v.01l.005.087v.01l0,.04v0l0,.044v.01l0,.038v.007l0,.043v.01l0,.037v.008l0,.042v.012l0,.031v.014l0,.04V115l0,.034v.011l0,.043v.007l0,.038v.01l0,.043v.007l0,.037v.012l0,.042v0l0,.038v.013l0,.042v0l0,.038v.013l0,.042h0l0,.043v.012l0,.041v0l0,.044v.011l0,.038v.006l0,.042v.013l0,.034v.01l0,.041v.013l0,.034v.01l0,.042v.012l0,.033v.013l0,.042v.009l0,.035v.012l0,.042v.01l0,.036v.01l0,.043v.006l0,.037v.012l0,.041v.009l0,.036v.013l0,.04v0l0,.043v.012l0,.035v.009l0,.042v.012l0,.037v.007l0,.043v.009l0,.038v.008l0,.044v.008l0,.039v.007l0,.044v.056l0,.043v.007l0,.038v.011l0,.043v.056l0,.044v0l0,.042v.008l0,.045h0l0,.042v.012l0,.087v.01l0,.043h0l0,.045v.054l0,.045v.054l0,.045v.053l0,.046v.053l0,.045v.3h0v.053l0,.09v.843l0,.086v1.485c0,.016,0,.027,0,.044v.055c0,.016,0,.027,0,.044v.1c0,.016,0,.025,0,.042v.012c0,.033,0,.054,0,.087v.012c0,.008,0,.029,0,.037s0,.005,0,.008v.055c0,.008,0,.026,0,.035s0,.006,0,.008v.092s0,0,0,.006,0,.028,0,.044v.009c0,.016,0,.023,0,.04,0,0,0,0,0,.005,0,.016,0,.028,0,.045s0,.006,0,.008,0,.022,0,.038,0,.006,0,.009,0,.027,0,.044,0,.006,0,.009,0,.025,0,.037,0,.006,0,.009v.044s0,.005,0,.008,0,.021,0,.038,0,.007,0,.011v.05c0,.012,0,.025,0,.038s0,.008,0,.012,0,.026,0,.043,0,0,0,.006,0,.026,0,.038v.012c0,.016,0,.027,0,.043s0,.035,0,.053v.018c0,.012,0,.024,0,.036s0,.016,0,.02v.034c0,.008,0,.012,0,.021v.054c0,.011,0,.022,0,.033s0,.016,0,.02v.036c0,.008,0,.009,0,.018v.053c0,.018,0,.036,0,.053s0,.008,0,.016v.111c0,.011,0,.022,0,.033v.021c0,.011,0,.022,0,.033s0,.017,0,.021,0,.024,0,.037,0,.012,0,.016v.053q0,.027,0,.054v.1c0,.008,0,.013,0,.022s0,.022,0,.032v.074c0,.012,0,.022,0,.033v.126s0,.008,0,.012v.06c0,.011,0,.022,0,.033v.054c0,.008,0,.013,0,.021v.107c0,.012,0,.024,0,.036v2.473l0,.053v.285l0,.044v.009l0,.053v.285l0,.043v.01l0,.054v.006l0,.047v.231l0,.041v.012l0,.107v.014l0,.037v.072l0,.035v.018l0,.037v.016l0,.041v.012l0,.107v.011l0,.042v.017l0,.037v.018l0,.036v.017l0,.038v.015l0,.042v.011l-.005.108v0l0,.048v.013l0,.04v.016l0,.037v.017l0,.038v.015l0,.04v.012l0,.05v0l0,.055v0l0,.051v.011l0,.041v.015l0,.038v.016l0,.037v.017l0,.038v.014l0,.045v.007l-.006.107v.013l0,.04v.014l0,.039v.016l0,.037v.017l0,.035v.018l0,.039v.013l-.006.106v.012l0,.04v.017l0,.036v.016l0,.037v.017l0,.037v.016l0,.039v.014l-.007.106v.01l0,.043v.014l0,.038v.016l0,.038v.015l0,.039v.014l0,.042v.01l0,.052h0l0,.055v0l0,.049v.013l0,.039v.015l0,.038v.016l0,.038v.014l0,.041v.013l0,.051h0l0,.055h0l0,.053v.009l0,.044v.013l0,.04v.014l0,.039v.015l0,.041v.012l0,.049v0l-.008.108v.011l0,.042v.013l0,.04v.015l0,.038v.015l0,.039v.014l0,.046v.006l-.008.109v0l0,.049v.012l0,.042v.013l0,.039v.015l0,.039v.014l0,.043v.009l-.008.108v0l0,.051v.01l0,.042v.015l0,.038v.014l0,.039v.015l0,.043v.009l-.013.161v.01l0,.044v.013l0,.038v.017l0,.037v.015l0,.041v.011l0,.049v0l-.009.107v.009l0,.043v.014l0,.038v.017l0,.036v.017l0,.039v.013l0,.048v0l-.01.109v0l0,.05v.007l0,.045v.012l0,.041v.013l0,.041v.012l0,.047v.006l-.015.161v.01l0,.043v.012l0,.04v.015l0,.039v.013l0,.042v.01l-.015.16v.008l0,.044v.013l0,.04v.015l0,.039v.013l0,.043v.01l0,.05v0l-.011.107v.008l0,.044v.013l0,.039,0,.015,0,.038v.014l0,.041v.011l0,.048v0l-.011.108v0l0,.048v.011l0,.041v.013l0,.04v.013l0,.041v.012l0,.045v.007l-.011.107v.005l0,.047v.011l0,.041v.014l0,.039,0,.015,0,.038,0,.015,0,.04v.011l-.011.106v0l-.005.047,0,.015,0,.038,0,.015,0,.037,0,.016,0,.037,0,.015,0,.04v.012l-.006.05v0l-.006.054h0l-.006.051,0,.014,0,.037,0,.018,0,.034,0,.018,0,.035,0,.017,0,.037,0,.015,0,.043v.01l-.012.1,0,.016,0,.036,0,.019,0,.032,0,.021,0,.032,0,.02,0,.032,0,.02,0,.036,0,.015-.012.1,0,.016,0,.035,0,.019,0,.032,0,.02,0,.031,0,.022,0,.031,0,.02,0,.034,0,.017-.012.1,0,.017,0,.034,0,.02,0,.032,0,.021,0,.03,0,.022,0,.029,0,.023,0,.03,0,.021,0,.04v.01l-.006.052,0,.015,0,.036,0,.021,0,.03,0,.021,0,.031,0,.021,0,.031,0,.02,0,.032,0,.02-.005.04v.01l-.007.051,0,.015,0,.037,0,.02,0,.031,0,.022,0,.03,0,.023,0,.028,0,.024,0,.028,0,.023,0,.028,0,.023-.006.042,0,.025,0,.033,0,.023,0,.028,0,.024,0,.027,0,.025,0,.026,0,.024,0,.028,0,.024,0,.029,0,.022,0,.032,0,.037,0,.032,0,.023,0,.028,0,.025,0,.026,0,.026,0,.023,0,.028,0,.023,0,.027,0,.024,0,.026,0,.025-.008.061,0,.012,0,.03,0,.021,0,.028,0,.023,0,.028,0,.022,0,.028,0,.022,0,.029,0,.022,0,.028,0,.023-.016.111,0,.014,0,.032,0,.019,0,.032,0,.017,0,.033,0,.017,0,.033,0,.015-.005.035,0,.013-.019.129v0l-.005.037,0,.013-.005.036,0,.013-.005.035,0,.015-.005.035,0,.015,0,.034,0,.014-.025.167,0,.014-.005.035,0,.014-.005.035,0,.015-.005.034,0,.015-.005.035,0,.015-.025.169,0,.011-.006.037,0,.013-.005.035,0,.014-.005.036,0,.013-.005.036,0,.014-.027.177v0l-.006.041v.008l-.006.039,0,.01-.006.04v.008l-.006.041v.007l-.036.23v0l-.007.043v.007l-.007.042v.005l-.007.044v0l-.045.281h0l-.008.047h0l-.007.046v0l-.054.328h0l-.008.046h0a121.113,121.113,0,0,1-6.494,23.819h0l-.017.043h0l-.117.3h0l-.016.042v0l-.1.258v0l-.016.04,0,0-.015.038,0,.007-.015.038,0,.005-.016.04h0l-.067.169,0,0-.015.039,0,.005-.015.038,0,.007-.015.037,0,.007-.015.038v0l-.067.168v0l-.015.038,0,.006-.015.036,0,.009-.015.036,0,.007-.015.036,0,.008-.067.166h0l-.016.04,0,0-.015.037,0,.008-.015.036,0,.008-.015.037,0,.007-.068.167h0l-.015.037,0,.009-.014.033-.005.013-.013.032-.005.013-.013.032-.005.013-.014.034v0l-.051.125v0l-.015.037,0,.007-.014.035,0,.01-.014.034,0,.011-.014.033,0,.012-.014.035v0l-.067.162,0,.01-.014.033,0,.012-.014.033-.005.013-.013.03-.006.015-.013.031,0,.009-.066.158,0,.008-.014.033-.005.013-.013.031-.006.014-.013.031-.006.015-.013.031,0,.01-.015.035v0l-.05.119,0,.009-.013.031-.006.015-.012.029-.007.017-.012.027-.008.018-.012.028-.007.016-.012.029-.006.013-.047.112,0,.006-.013.031-.006.015-.012.029-.007.015-.012.029-.007.017-.012.029-.006.014-.013.031,0,.01-.051.119h0l-.015.034,0,.011-.014.032-.006.013-.013.029-.007.017-.012.029-.006.015-.013.03-.006.013-.064.149-.006.014-.013.03-.006.014-.013.03-.007.016-.012.029-.007.015-.013.029-.006.014-.014.031v0l-.05.115-.006.013-.013.029-.007.016-.012.028-.007.017-.013.029-.006.015-.013.03-.006.013-.014.032,0,.006-.049.112-.005.012-.013.029-.007.016-.012.027-.008.018-.012.028-.006.015-.014.031-.006.013-.014.031-.005.012-.047.105-.006.013-.012.028-.008.018-.011.025-.009.02-.012.026-.008.018-.012.027-.008.017-.013.028-.007.016-.013.029-.006.014-.025.057-.007.016-.012.027-.008.018-.011.026-.009.021-.011.024-.009.02-.011.025-.009.02-.011.026-.008.017-.013.028-.006.014-.024.053-.009.02-.011.025-.009.02-.011.024-.01.022-.011.024-.009.02-.011.025-.009.019-.012.027-.008.017-.013.028-.005.011-.049.107-.005.012-.013.028-.008.017-.012.027-.008.017-.013.028-.008.016-.013.028-.007.015-.013.029-.006.013-.048.105-.005.012-.012.027-.009.019-.012.026-.009.019-.012.026-.009.019-.012.027-.008.017-.012.027-.008.017-.048.1,0,.008-.013.028-.008.017-.012.027-.008.017-.012.027-.009.018-.012.026-.008.018-.012.026-.009.019-.012.026-.006.014-.027.058-.007.014-.012.026-.009.019-.012.026-.008.018-.012.026-.008.018-.012.027-.008.018-.012.027-.008.017-.013.028,0,.007-.05.107-.007.015-.014.029-.007.014-.014.029-.008.016-.013.028-.008.016-.013.028-.008.017-.013.027-.007.015-.046.1-.009.019-.012.025-.009.02-.012.025-.009.019-.013.027-.009.018-.012.025-.009.02-.012.026-.008.017-.013.027,0,0-.031.066-.008.017-.013.026-.008.017-.013.027-.009.018-.013.026-.008.017-.013.027-.009.018-.013.027-.008.016-.013.028-.006.013-.026.053-.01.02-.012.025-.009.019-.012.025-.009.019-.013.027-.008.017-.013.027-.008.016-.014.029-.006.012-.015.031,0,.008-.032.067,0,.01-.015.03-.006.013-.015.03-.007.014-.014.029-.007.014-.014.029-.007.014-.015.03,0,.01-.013.027-1.8-.878a119.342,119.342,0,0,0,8.961-25.174,120.934,120.934,0,0,0-1.291-59.858A119.376,119.376,0,0,0,225.058,60.49Zm.87,119.5,1.76.951a122.161,122.161,0,0,1-13.089,19.477h0l-.115.14v0l-.027.032,0,.006-.026.032h0l-.085.1,0,0-.026.031,0,.006-.11.133-.007.008-.025.031,0,0-.082.1,0,.006-.025.03-.007.008-.025.03,0,0-.051.061-.006.007-.023.027-.01.012-.022.027-.01.012-.074.088-.01.012-.021.025-.012.014-.021.025-.013.015-.029.034-.021.025-.019.022-.015.018-.019.022-.015.018-.018.022-.018.021-.026.031-.021.024-.016.018-.019.022-.016.019-.019.022-.016.019-.031.036-.015.018-.019.022-.016.019-.019.023-.015.018-.022.026-.012.014-.033.038-.012.014-.023.027-.014.016-.022.026-.012.014-.03.035-.011.013-.027.032-.011.013-.024.028-.012.014-.026.03-.009.011-.034.04-.007.008-.028.032-.011.013-.025.029-.011.012-.033.038,0,0-.035.041-.01.011-.026.031-.01.011-.03.035,0,.006-.072.084-.007.008-.03.035-.006.007-.111.128,0,0-.036.042h0l-.114.131,0,0-.152.174h0q-.92,1.055-1.864,2.088a122.745,122.745,0,0,1-10.447,10.154h0l-.176.151h0l-.132.113h0l-.176.151h0l-.132.113h0l-.176.15h0l-.176.149,0,0-.132.112h0l-.043.036h0l-.133.112h0l-.312.261,0,0-.043.036h0l-.133.11,0,0-.178.147h0l-.27.222h0l-.044.036,0,0-.133.109,0,0-.041.033,0,0-.133.109,0,0-.134.109h0l-.042.034,0,0-.133.108,0,0-.041.034,0,0-.133.107,0,0-.041.033,0,0-.089.072,0,0-.041.033,0,0-.133.107,0,0-.042.034h0l-.091.072h0l-.044.035,0,0-.135.107h0l-.043.034,0,0-.134.106,0,0-.041.033,0,0-.09.072h0l-.044.035,0,0-.044.034h0l-.09.071,0,0-.042.033,0,0-.134.105-.006,0-.041.033,0,0-.09.071,0,0-.04.031-.007.005-.042.033h0l-.09.07-.006,0-.04.031-.005,0-.134.1-.005,0-.041.032,0,0-.09.07,0,0-.04.031-.006,0-.134.1-.006,0-.04.031-.005,0-.09.07h0l-.043.033-.005,0-.136.1,0,0-.043.033,0,0-.136.1,0,0-.043.033h0l-.092.07h0l-.043.033,0,0-.136.1,0,0-.041.031,0,0-.136.1,0,0-.043.033h0l-.138.1,0,0-.138.1h0l-.187.14h0l-.515.382h0l-.187.137h0l-.14.1h0q-.354.259-.708.515h0q-1.9,1.368-3.845,2.665a121.258,121.258,0,0,1-45.383,18.343h0l-.178.032h0l-.237.043h0l-.177.031h0l-.054.01h0l-.174.031h-.008l-.053.009h0l-.116.02h-.006l-.05.009-.011,0-.054.009h0l-.116.02h-.009l-.049.008-.01,0-.114.02h-.008l-.048.008-.012,0-.046.008-.011,0-.111.019-.015,0-.041.007-.016,0-.045.008-.011,0-.055.009-.013,0-.042.007-.018,0-.039.007-.016,0-.048.008h-.008l-.054.009-.017,0-.038.006-.02,0-.037.006-.019,0-.052.009-.015,0-.04.007-.02,0-.035.006-.022,0-.035.006-.02,0-.05.008-.024,0-.031.005-.024,0-.03,0-.024,0-.035.006-.032.005-.038.006-.025,0-.028,0-.027,0-.027,0-.028,0-.034.005-.043.007-.024,0-.031,0-.023,0-.031,0-.022,0-.062.01-.016,0-.032.005-.021,0-.032,0-.021,0-.032,0-.019,0-.063.01-.018,0-.033.005-.02,0-.033.005-.02,0-.116.018-.016,0-.035.005-.017,0-.037.006h-.008l-.127.019-.013,0-.039.006h-.009l-.136.02h0l-.042.006h-.009l-.042.006h-.006l-.136.02h0l-.044.006h-.005l-.187.027h0q-3.583.516-7.228.822l-.167-1.993a120.2,120.2,0,0,0,95.5-62.615ZM24.514,191.99a120.566,120.566,0,0,0,41.856,36.364A119.471,119.471,0,0,0,122,242c1.74,0,3.5-.038,5.233-.112l.086,2q-2.155.092-4.332.11h-2.9l-.109,0H118.9l-.068,0h-.172l-.065,0h-.176l-.054,0-.055,0h-.076l-.057,0h-.054l-.052,0h0l-.055,0h-.185l-.056,0h0l-.052,0h-.13l-.055,0-.056,0h-.009l-.046,0h-.073l-.055,0-.049,0h-.007l-.067,0-.044,0h-.016l-.04,0h-.016l-.056,0-.112,0-.055,0h-.018l-.038,0h-.018l-.054,0-.056,0h0l-.051,0h-.015l-.04,0h-.017l-.04,0h-.016l-.048,0h-.006l-.057,0h-.008l-.047,0h-.017l-.039,0h-.017l-.056,0-.111-.005h-.013l-.043,0h-.016l-.041,0h-.015l-.044,0h-.011l-.112-.006-.056,0-.057,0-.061,0h-.008l-.057,0h0l-.067,0-.042,0H115.4l-.055,0-.053,0h0l-.057,0h-.008l-.062,0-.041,0H115.1l-.055,0-.113-.006h-.01l-.044,0h-.017l-.04,0h-.016l-.055,0-.056,0h0l-.053,0h-.015l-.041,0h-.015l-.056,0-.046,0h-.009l-.055,0-.056,0h-.015l-.04,0h-.017l-.055,0-.112-.007H114.1l-.048,0-.056,0-.058,0h-.012l-.111-.007h-.011l-.045,0-.056,0h-.015l-.047,0h-.008l-.112-.008-.055,0h-.015l-.044,0H113.4l-.114-.008h0l-.052,0h-.013l-.044,0h-.013l-.045,0h-.01l-.113-.008h-.008l-.047,0h-.013l-.044,0h-.013l-.05,0h0l-.114-.009h-.008l-.047,0h-.012l-.046,0h-.01l-.053,0h0l-.114-.009H112.4l-.047,0h-.011l-.046,0h-.01l-.113-.009h0l-.051,0h-.011l-.045,0h-.012l-.05,0h0l-.115-.009h-.005l-.05,0h-.012l-.045,0h-.011l-.053,0h0l-.113-.01h-.011l-.046,0h-.01l-.049,0h-.007l-.17-.015h-.008l-.048,0h-.01l-.051,0h0l-.171-.015H111l-.049,0h-.008l-.054,0h0l-.115-.01h-.006l-.05,0H110.7l-.048,0h-.009l-.17-.016h0l-.051,0h-.008l-.052,0h0l-.172-.016h-.007l-.05,0h-.007l-.054-.005h0l-.172-.017h-.005l-.052-.005h-.006l-.172-.017h0l-.054-.005H109.6l-.054-.005h0l-.173-.018h0l-.054-.006h0l-.054-.006h0l-.172-.018h0l-.052-.006h-.006l-.172-.018h0l-.055-.006h-.007l-.052-.006h0l-.172-.019h0l-.053-.006h-.005l-.054-.006h0l-.172-.019h0l-.053-.006h0l-.229-.026h0l-.053-.006h0l-.172-.02h0l-.055-.006h0l-.054-.006h0l-.172-.02h0l-.052-.006h-.007l-.053-.006h0l-.171-.021h0l-.052-.006H107.1l-.171-.021h0l-.055-.007h0l-.054-.007h0l-.229-.029h0l-.287-.037h0l-.231-.03h0l-.057-.007h0l-.23-.03h0l-.288-.039h0l-.806-.112h0a121.457,121.457,0,0,1-54.322-22.021h0l-.042-.03,0,0-.176-.128,0,0-.042-.031h0l-.133-.1,0,0-.041-.03,0,0-.042-.031h0l-.132-.1,0,0-.038-.028-.007-.005-.039-.029,0,0-.088-.065,0,0-.039-.029-.007-.005-.037-.027-.006,0-.041-.03,0,0L49.328,220l-.007,0-.036-.027-.008-.006-.034-.025-.009-.007-.128-.1-.008-.006-.034-.025-.011-.008-.035-.026-.006,0-.085-.064-.01-.007-.03-.023-.016-.012-.027-.02-.014-.011-.029-.022-.012-.009-.041-.031,0,0-.038-.028-.015-.011-.026-.02-.017-.013-.025-.019-.017-.013-.028-.021-.012-.009-.04-.03-.015-.011-.027-.02-.016-.012-.025-.019-.017-.013-.025-.019-.017-.013-.025-.019-.016-.012-.038-.029-.018-.013-.023-.017-.021-.016-.02-.015-.021-.016-.019-.014-.022-.017-.019-.014-.039-.03-.018-.014-.022-.017-.019-.014-.022-.017-.017-.013-.023-.018-.017-.013-.023-.018-.009-.007-.052-.04-.014-.011-.024-.018-.016-.012-.025-.019-.014-.011-.025-.019-.012-.009-.1-.074,0,0-.03-.023-.009-.007-.029-.022-.009-.007-.03-.023,0,0-.105-.081,0,0-.032-.025-.007-.005-.032-.025,0,0-.139-.108,0,0-.032-.025-.006,0-.176-.137,0,0-.033-.026,0,0q-4.025-3.143-7.77-6.607h0l-.165-.153,0,0-.03-.028,0,0-.126-.117-.007-.006-.027-.025-.009-.009-.026-.024-.009-.009-.027-.025h0l-.095-.088-.008-.008-.025-.023-.013-.012-.023-.022-.012-.011L38.558,211h0l-.056-.052-.013-.012-.021-.02-.016-.015-.021-.02-.017-.016-.02-.019-.018-.017-.019-.018-.034-.032-.018-.017-.019-.018-.019-.018-.019-.018-.018-.017-.02-.019-.017-.016-.025-.024-.011-.011-.035-.033-.015-.014-.023-.022-.015-.014-.021-.02-.017-.016-.023-.022L38,210.473l-.037-.035h0l-.036-.035-.01-.01-.028-.026-.011-.011-.029-.028-.008-.007-.035-.033,0,0-.077-.073-.008-.008-.03-.029-.009-.008-.031-.03-.006-.006-.116-.111-.006-.005-.033-.032-.006-.006-.036-.035,0,0-.118-.114,0,0-.037-.035,0,0-.158-.152h0l-.039-.037h0l-.158-.154h0a122.7,122.7,0,0,1-10.687-11.847h0l-.136-.172,0,0-.032-.04,0,0-.135-.172,0,0-.031-.04,0,0-.1-.129v0l-.031-.04,0-.006-.029-.038,0,0-.1-.128,0-.006-.028-.036-.005-.007-.028-.036-.006-.007-.065-.084,0-.005-.028-.037-.006-.008-.026-.033-.008-.01-.028-.036,0,0-.065-.085-.006-.008-.025-.032-.01-.013-.023-.03-.008-.01-.028-.036,0-.006-.033-.043h0l-.031-.04-.007-.01-.025-.033-.008-.01-.024-.031-.009-.011-.027-.036,0-.005-.031-.041L25,196l-.022-.029-.011-.014-.021-.027-.012-.015-.022-.028-.009-.012-.029-.037,0,0-.031-.041-.009-.012-.021-.028-.012-.016-.02-.027-.011-.015-.02-.027-.011-.015-.03-.04-.006-.008-.025-.033-.011-.015-.02-.026-.012-.016-.019-.025-.013-.017-.02-.026-.011-.014-.03-.039-.012-.016-.019-.025-.014-.019-.016-.021-.015-.02-.017-.022-.014-.019-.019-.025-.012-.016-.029-.038-.013-.018-.017-.022-.015-.021-.015-.02-.015-.02-.017-.023-.013-.018L24.24,195l-.01-.013-.022-.03-.016-.021-.015-.02-.016-.021-.015-.02-.016-.021-.015-.02-.016-.021-.013-.018-.031-.041-.013-.018-.017-.022-.014-.018L24,194.67l-.011-.015-.019-.025-.009-.012-.067-.091-.01-.013-.02-.027-.01-.014-.02-.026-.009-.013-.02-.027-.007-.01-.07-.1-.007-.01-.021-.028-.009-.012-.021-.029-.005-.007-.075-.1,0,0-.023-.031-.006-.008-.023-.031-.006-.008L23.5,194l0,0-.1-.142,0-.005-.023-.031-.007-.009-.1-.141v0l-.025-.034,0,0-.025-.034,0,0-.313-.433ZM10.081,73.362l1.834.8A119.367,119.367,0,0,0,4.566,97.2,120.848,120.848,0,0,0,2,122a119.488,119.488,0,0,0,19.724,65.94l-1.67,1.1a121.278,121.278,0,0,1-18.482-47.4h0L1.55,141.5h0l-.017-.1h0l-.005-.034h0l-.016-.1h0l-.022-.137v0l-.021-.137v0l-.021-.138h0c-.02-.127-.039-.253-.058-.381v0l-.015-.1h0l0-.032v-.006l-.015-.1v-.005l0-.032v-.005l-.014-.1v-.007l0-.032v0l-.014-.1v-.009l0-.031h0l-.015-.1V139.8l-.014-.1v-.007l0-.029v-.01l-.014-.094v-.007l0-.03v-.009l-.013-.093v-.009l0-.028,0-.011-.008-.059v0l0-.03v-.009l0-.03v0l-.009-.065v0l0-.03v-.009l-.013-.1v-.006l0-.031v-.006l-.013-.1v-.007l0-.031v-.005l-.013-.1v-.009l0-.031h0l-.009-.067v0l0-.03v-.011l-.013-.1v0l0-.032v-.006l-.013-.1v0l0-.032v-.006l-.013-.1v-.01l0-.03v0l-.008-.062v0l0-.028,0-.012,0-.028v-.008l-.007-.055v-.011l0-.028v-.011l-.012-.091v-.011l0-.028V137.8L1,137.707v-.01l0-.029v-.006l-.012-.1v-.008l0-.031h0L.97,137.46v0l0-.029,0-.013,0-.028v0l-.008-.061v-.009l0-.028,0-.013-.011-.091v-.01l0-.028v-.012l-.007-.061h0l0-.027,0-.014,0-.026,0-.013-.006-.052v-.01l0-.026,0-.014,0-.026,0-.014-.006-.05v-.011l0-.028v-.011l-.011-.091v-.012l0-.028v-.01l-.011-.091V136.5l0-.028v-.011L.841,136.4h0l0-.03v-.011l0-.028v-.01l-.006-.049,0-.015,0-.026,0-.014-.01-.089v-.013l0-.027v-.013l-.01-.09v-.011l0-.028v-.012l-.006-.053v-.01l0-.026,0-.015,0-.026,0-.014,0-.044,0-.018,0-.024,0-.017,0-.025v-.012L.75,135.6l0-.016,0-.025,0-.015,0-.026h0l-.006-.059,0-.016,0-.025,0-.016-.006-.054v-.006l0-.025,0-.017,0-.025v-.012l-.006-.052V135.2l0-.025,0-.017,0-.025v-.013l-.005-.05v-.012l0-.026,0-.015,0-.027v0l-.006-.058v-.013l0-.026,0-.015-.009-.087,0-.015,0-.025,0-.016-.006-.055v0l0-.027,0-.015,0-.025,0-.016,0-.049v-.011l0-.027v-.013l0-.027v-.009l-.005-.05,0-.016,0-.025,0-.018,0-.023,0-.021,0-.039,0-.018,0-.024,0-.018,0-.04,0-.019,0-.025,0-.017,0-.025,0-.017,0-.041,0-.019,0-.024,0-.018,0-.025v-.015l0-.044,0-.017,0-.024,0-.018,0-.024,0-.019,0-.041,0-.018,0-.024,0-.018,0-.036,0-.024,0-.023,0-.02,0-.022,0-.023,0-.026,0-.032,0-.019,0-.023,0-.021,0-.022,0-.036,0-.02,0-.023,0-.019,0-.023,0-.02,0-.038,0-.021,0-.022,0-.018,0-.024,0-.036,0-.021,0-.021,0-.022,0-.019,0-.041,0-.017,0-.024,0-.02,0-.023,0-.02,0-.038,0-.02,0-.023,0-.019,0-.023,0-.023,0-.034,0-.022,0-.021,0-.024,0-.019,0-.037,0-.022,0-.02,0-.022,0-.024,0-.019,0-.039v-.017l0-.026,0-.019,0-.027,0-.021,0-.034v-.018l0-.026V132.2l0-.029,0-.027,0-.026,0-.02,0-.024,0-.019,0-.039V132l0-.024,0-.021,0-.025v-.016l0-.04v-.018l0-.025,0-.02,0-.025v-.017l0-.039v-.018l0-.025v-.019l0-.027,0-.027,0-.026,0-.021,0-.022,0-.02,0-.033,0-.022,0-.027v-.019l0-.024v-.02l0-.039v-.016l0-.026v-.02l0-.028v-.014l0-.041v-.015l0-.028v-.017l0-.029,0-.021,0-.034v-.016l0-.026v-.019l0-.031,0-.021,0-.03v-.019l0-.024v-.019l0-.037v-.019l0-.027v-.018l0-.025V130.7l0-.039v-.017l0-.026V130.6l0-.026v-.016l0-.039V130.5l0-.027v-.017l0-.032v-.019l0-.033v-.016l0-.028v-.017l0-.04v-.012l0-.029v-.019l0-.028v-.015l0-.041v-.013l0-.031v-.015l0-.032v-.013l0-.04v-.016l0-.027v-.018l0-.028v-.023l0-.031v-.019l0-.026v-.016l0-.039v-.013l0-.033v-.017l0-.027v-.017l0-.04v-.014l0-.029v-.018l0-.028v-.014l0-.04v-.018l0-.025v-.018l0-.03v-.013l0-.041v-.016l0-.027v-.018l0-.039V129.2l0-.038v-.018l0-.027V129.1l0-.04V129l0-.027v-.016l0-.041V128.9l0-.03v-.017l0-.031v-.013l0-.041v-.061l0-.029v-.023l0-.032v-.061l0-.036v-.018l0-.029v-.061l0-.04v-.106l0-.038v-.109l0-.037v-.062l0-.035v-.017l0-.032v-.062l0-.04v-.1l0-.041v-.1l0-.041v-.11l0-.035v-.06l0-.042v-.1l0-.044v-.1l0-.042v-.059l0-.038v-.006l0-.043v-.058l0-.044v0l0-.041v-.059l0-.044v-.1l0-.044v-.1l0-.044v-.1h0v-1.721c0-.033,0-.056,0-.089v-.058l0-.088v-.652c0-.008,0-.026,0-.034v-.059c0-.016,0-.027,0-.044v-.293s0-.01,0-.013,0-.027,0-.035v-.2s0-.006,0-.009v-.095c0-.016,0-.025,0-.042s0-.01,0-.015,0-.022,0-.03v-.06c0-.016,0-.027,0-.043v-.013c0-.008,0-.025,0-.033v-.012c0-.016,0-.028,0-.044s0,0,0,0,0-.024,0-.041,0-.009,0-.014V122.4s0-.005,0-.01,0-.023,0-.036v-.013c0-.008,0-.028,0-.036s0-.006,0-.009,0-.027,0-.044,0-.008,0-.011V122.2s0-.01,0-.014v-.044c0-.016,0-.027,0-.043s0-.009,0-.014,0-.024,0-.032v-.014c0-.016,0-.027,0-.044H0c0-.017,0-.033,0-.05v-.017c0-.011,0-.022,0-.033s0-.01,0-.018,0-.021,0-.032,0-.011,0-.019V121.8c0-.008,0-.013,0-.021s0-.02,0-.029,0-.013,0-.021,0-.019,0-.029,0-.015,0-.023,0-.018,0-.027v-.023c0-.009,0-.018,0-.027v-.072c0-.009,0-.019,0-.028v-.023c0-.009,0-.018,0-.027v-.05c0-.008,0-.015,0-.023v-.049c0-.009,0-.018,0-.027s0-.014,0-.023v-.05c0-.009,0-.018,0-.027s0-.015,0-.023V121c0-.008,0-.017,0-.025s0-.017,0-.025v-.05c0-.008,0-.017,0-.025s0-.017,0-.026v-2.444c.005-.18.011-.355.017-.535h0l0-.047v0l0-.045v-.546l0-.04v-.008l0-.041v-.008l0-.04v-.01l0-.039v-.009l0-.04v-.009l0-.04v-.009l0-.04v-.01l0-.04v-.006l0-.043v0l0-.045v0l0-.045v-.005l0-.045v0l0-.047h0c.013-.293.026-.584.041-.876v0l0-.1h0l.005-.1h0l0-.048h0l0-.047v0l0-.047h0l0-.047v0l0-.047h0l0-.048h0q.3-5.574,1.1-11.007v0l.006-.044v0l.007-.044v0l.007-.045v0l.007-.045v0l.006-.043v-.006l.006-.042v0l.006-.043v0l.007-.044v0l.006-.043V103.8l.006-.042v0l.007-.044v0l.007-.044v0l.007-.044v-.006l.006-.042v0l.006-.043v0l.007-.044h0l.007-.047v0c.027-.174.053-.342.08-.515v0l.006-.038,0-.011.005-.035,0-.013.005-.033,0-.015,0-.031,0-.018,0-.027,0-.021,0-.027,0-.021,0-.027,0-.02,0-.027,0-.021,0-.025,0-.024,0-.025,0-.023,0-.024,0-.024,0-.024,0-.024,0-.022,0-.027,0-.022,0-.025,0-.022,0-.026,0-.023,0-.026,0-.02.005-.031,0-.016.005-.033,0-.014.005-.033,0-.015.006-.035,0-.011.006-.037,0-.011.006-.037,0-.011.006-.035,0-.014.006-.039v-.008l.007-.043v0l.008-.046v0l.008-.047v0q.407-2.417.908-4.8A121.061,121.061,0,0,1,7.635,79.425h0l.016-.043v0l.016-.043h0l.016-.043v0l.016-.042v0l.015-.041,0,0,.015-.041v0l.015-.041,0,0,.015-.041v0l.015-.04,0,0,.016-.041v0l.016-.043h0l.017-.044h0l.017-.045h0Q8.9,76.07,10.081,73.362ZM106.4.988l.253,1.984A119.346,119.346,0,0,0,51.467,24.906a120.515,120.515,0,0,0-37.5,44.786l-1.8-.873a122.388,122.388,0,0,1,26.688-36.1l0,0,.13-.121,0,0,.031-.029,0,0,.1-.091h0l.029-.027.008-.007.029-.027,0,0,.092-.085.008-.007.028-.026.008-.007.094-.087,0,0,.028-.026.01-.009.027-.025.008-.008.09-.083.007-.007.028-.025.01-.009.027-.025.006-.006.089-.082.011-.01.026-.024.011-.01.026-.023,0,0,.055-.05.011-.01.024-.022.014-.013.024-.022.014-.013.083-.076.011-.01.025-.023.013-.012.026-.023.005,0,.056-.051.008-.007.024-.022.015-.014.023-.021.014-.013.08-.072.017-.015.022-.02.017-.015.022-.02.016-.015.037-.033.02-.018.02-.018.018-.017.021-.019.019-.017.02-.018.021-.019.035-.031.018-.016.021-.019.018-.016.021-.019.018-.016.02-.018.034-.031.022-.02.017-.015.022-.019.018-.016.021-.018.021-.019.031-.028.022-.02.019-.017.021-.019.018-.016.023-.02.017-.015.036-.032.018-.016.021-.018.02-.018.02-.018.02-.017.021-.018.027-.024L41.3,30.5l.018-.016.022-.019.019-.017.021-.018.018-.016.026-.023.027-.023.023-.02.019-.016.02-.018.02-.017.022-.019.017-.015.037-.033.015-.013.024-.021.018-.016.022-.019.018-.016.031-.027.011-.01.034-.03.016-.014.024-.021.017-.014L41.867,30l.014-.012.039-.034.011-.009.029-.025.015-.013L42,29.888l.014-.012.031-.027.01-.008.039-.034.011-.009.03-.026.013-.011.03-.026.011-.01.04-.034.008-.007.033-.028.013-.012.028-.024.014-.012.031-.026.009-.008.04-.034.011-.009.031-.026.013-.011.029-.025.012-.011.038-.032,0,0,.04-.034.013-.011.028-.024.013-.011.031-.026.01-.009.041-.035,0,0,.036-.031.013-.011L42.8,29.2l.012-.01.037-.031,0,0,.041-.035.01-.008.031-.027.013-.011.031-.027.009-.008.083-.071.01-.008.032-.027.011-.009.037-.032,0,0,.043-.036,0,0,.038-.032.009-.007.034-.029.009-.007.084-.071.007-.006.035-.03.009-.008.035-.03.007-.006.085-.071.008-.007.034-.029.009-.007.039-.033,0,0,.043-.036,0,0,.038-.032.009-.007.037-.031.005,0,.086-.072.005,0,.037-.031.007-.006.086-.072,0,0,.041-.034.006-.005L44.1,28.1l0,0,.087-.073,0,0,.04-.033.005,0,.041-.034,0,0,.087-.072.005,0,.04-.033,0,0,.131-.108.006,0,.041-.034h0l.09-.074h0l.041-.034.006-.005.131-.107,0,0,.041-.033,0,0,.089-.072h0l.042-.034.005,0,.041-.034h0l.089-.072,0,0,.042-.034h0l.134-.108,0,0,.043-.035h0l.135-.109,0,0,.135-.108h0l.043-.035,0,0,.134-.108,0,0,.135-.107,0,0,.043-.035h0l.135-.108,0,0,.181-.143h0l.136-.108h0l.044-.034,0,0,.321-.252h0l.137-.107,0,0,.044-.034h0l.137-.106,0,0,.136-.106,0,0,.043-.033,0,0,.137-.106,0,0,.137-.106,0,0,.044-.034h0l.138-.106h0l.184-.141,0,0,.184-.141h0l.139-.106h0l.326-.246h0l.185-.139,0,0,.327-.244h0l.14-.1h0l.046-.034h0l.139-.1,0,0,.184-.136,0,0,.14-.1h0l.044-.032,0,0,.138-.1,0,0,.043-.031,0,0,.093-.068,0,0,.043-.031.005,0,.044-.032h0l.091-.066.007-.005.04-.029.005,0,.092-.066,0,0,.04-.029.008-.006.041-.029,0,0,.091-.066.008-.006.038-.027.008-.006.044-.032h0l.046-.033.006,0,.038-.027.011-.008.035-.025.01-.007.088-.063.012-.009.033-.023L51.1,22.7l.035-.025.009-.006.044-.032.007,0,.037-.026.013-.009.033-.023.011-.008.041-.03,0,0,.045-.032.009-.006.034-.024.015-.01.031-.022.013-.009.043-.031.005,0,.038-.027.014-.01.029-.021.016-.011.032-.023.011-.008.042-.03.014-.01.029-.021.017-.012.026-.018.018-.013.034-.024.015-.011.036-.025.017-.012.026-.019.018-.012.028-.02.016-.011.041-.029.015-.01.028-.02.019-.013.026-.018.019-.013.026-.018.021-.015.037-.026.018-.012.027-.019.019-.013.026-.018.018-.013.033-.023.023-.016.029-.02.018-.013.025-.018.019-.013.027-.018.017-.012.04-.028.019-.013.024-.017.02-.014.024-.016.021-.014.028-.019.025-.017.03-.021.021-.015.022-.015.021-.015.023-.016.02-.014.035-.024.026-.018.022-.015.024-.016.02-.014.022-.015.023-.016.035-.024.025-.017.023-.016.02-.014.023-.015.022-.015.022-.015.022-.015.041-.028.019-.013.024-.017.018-.013.026-.018.015-.01.088-.06.021-.014.023-.015.019-.013.025-.017.017-.011.045-.03.019-.013.025-.017.018-.012.025-.017.017-.012.026-.018.018-.012.043-.029.019-.013.025-.017.018-.012.025-.017.016-.011.064-.043h0l.028-.019.015-.01.028-.019.014-.01.028-.019.011-.008.058-.039.01-.007.029-.019.013-.009.028-.019.014-.009.1-.064.012-.008.028-.018.015-.01.029-.019.008-.005.1-.066.013-.009.029-.019.012-.008.1-.065.01-.007.03-.02.013-.008.029-.019.01-.007.1-.067.009-.006.031-.021.011-.007.031-.02,0,0,.07-.046,0,0,.032-.021.01-.007.032-.021.008-.006.1-.068.007,0,.033-.021.009-.006.033-.022,0,0,.108-.071.008-.005.033-.021.008-.005.108-.07,0,0,.032-.021.011-.007.032-.021,0,0,.108-.07.008,0,.033-.021.008-.005.145-.094.007,0,.034-.022,0,0,.111-.072h0l.035-.022.008,0,.034-.022h0l.11-.071.007,0,.034-.022.005,0,.15-.1,0,0,.036-.023,0,0,.113-.072h0l.036-.023.005,0,.148-.094.007,0L56.9,18.8h0l.113-.072,0,0,.036-.022.005,0,.151-.095,0,0,.037-.023,0,0,.15-.094.008-.005.034-.021,0,0,.111-.069,0,0,.036-.022.005,0,.15-.093.005,0,.035-.022.005,0,.15-.093.006,0,.151-.093,0,0,.036-.022,0,0,.152-.094,0,0,.036-.022,0,0,.115-.07h0l.036-.022.006,0,.149-.091.008,0,.034-.021.008,0,.11-.067,0,0,.036-.022.006,0,.037-.022h0l.114-.069.005,0,.034-.021.008,0,.149-.09.006,0,.036-.022h0l.114-.069,0,0,.036-.021.006,0,.152-.091,0,0,.037-.022,0,0,.155-.092,0,0,.155-.092,0,0,.036-.022.005,0,.152-.09.005,0,.036-.021,0,0,.115-.068h0l.036-.021.007,0,.151-.089.006,0,.037-.021,0,0,.114-.067,0,0,.035-.02.008,0,.035-.021,0,0,.114-.066,0,0,.036-.021.006,0,.152-.088.008,0,.035-.02,0,0,.111-.064.007,0,.034-.019.01-.006.034-.02,0,0,.111-.064.009,0,.033-.019.009-.005L61.553,16h0l.035-.02.01-.006.034-.02,0,0,.113-.064.006,0,.035-.02.008,0,.151-.086.008,0,.034-.02.007,0,.113-.064,0,0,.036-.02.008,0,.035-.02,0,0,.113-.064.007,0,.035-.02.007,0,.112-.063,0,0,.034-.019.01-.005.034-.019.008,0,.111-.062.006,0,.035-.02.008,0,.151-.084.009-.005.035-.019.006,0,.113-.063,0,0,.035-.019.008,0,.035-.019,0,0,.11-.061.011-.006.033-.018.01-.005.114-.063h0l.034-.019.012-.006.032-.018.012-.006.106-.058.01-.006.032-.017.013-.007.032-.017.008,0,.072-.039h0l.032-.017.014-.008.029-.016.016-.009.1-.055.011-.006L64,14.641l.015-.008.031-.017.011-.006.1-.056.013-.007.031-.017.013-.007.032-.017,0,0,.069-.037.01-.005.032-.017.012-.006.033-.018.011-.006.107-.057.01-.006.033-.017.011-.006.035-.018h0l.115-.061.012-.006.032-.017.011-.006.108-.058.008,0,.034-.018.011-.006.033-.018.008,0,.109-.058.011-.006.032-.017.014-.008.032-.017,0,0,.076-.04,0,0,.033-.017.012-.007.033-.017.009,0,.11-.058.009,0,.033-.017.011-.006.034-.018.005,0,.112-.058.011-.006.033-.017.011-.006.111-.058.006,0,.034-.018.012-.006.033-.017.009,0,.111-.057.008,0,.034-.018.011-.006.034-.017,0,0,.078-.04h0l.036-.018.009,0,.035-.018.009,0,.11-.057.009,0,.032-.017.013-.007.033-.017,0,0,.114-.058.01-.005.035-.018.008,0,.114-.058.006,0,.035-.018.009,0,.035-.018.007,0,.114-.058.007,0,.035-.018.009,0,.154-.078.009,0,.035-.018.007,0,.115-.058.006,0,.035-.018.01,0,.035-.018.006,0,.115-.058.007,0,.036-.018.009,0,.117-.058h0l.035-.017.012-.006.034-.017.007,0,.116-.057.005,0,.037-.018.006,0,.158-.078.007,0,.037-.018.006,0,.119-.059h0l.037-.018.008,0,.158-.077.007,0,.037-.018.006,0,.159-.078.006,0,.037-.018,0,0,.12-.058h0l.038-.018.008,0,.156-.075.01,0,.035-.017.007,0,.118-.057h0l.038-.018.007,0,.038-.018h0l.123-.059,0,0,.039-.019,0,0,.163-.078h0l.166-.079h0l.04-.019h0l.374-.176h0l.166-.077h0l.209-.1h0Q75,9.279,79.527,7.6h0l.043-.016h0l.171-.063.007,0,.039-.014.006,0,.119-.044.011,0,.035-.013.014,0,.035-.013.009,0,.074-.027.007,0,.034-.013.014-.005.034-.012.014-.005.034-.012h0l.071-.026.019-.007.029-.011.021-.007.029-.01.023-.008.045-.016.026-.01.027-.01.024-.009.026-.009.025-.009L80.62,7.2l.032-.012.032-.011.032-.012.022-.008.031-.011.021-.008.032-.011.019-.007.048-.017.017-.006.034-.012.02-.007.033-.012.018-.006.041-.014.015-.005.046-.016.015-.005L81.164,7,81.181,7l.039-.014.012,0,.052-.018.008,0,.044-.016.014,0,.04-.014.013,0,.1-.037.01,0,.044-.015.012,0,.045-.016.008,0,.108-.038.008,0,.047-.017.007,0,.162-.057.009,0,.049-.017,0,0,.165-.057h0l.223-.077h0a121.218,121.218,0,0,1,23.016-5.45h0l.06-.008h0l.181-.024h0l.239-.032h.006l.178-.023h0l.055-.007h.006L106.28,1h0L106.337,1h.009L106.4.988ZM122,0V2c-3.484,0-7,.151-10.455.449L111.373.456l.018,0,.019,0,.028,0,.023,0,.038,0,.018,0,.028,0,.045,0,.045,0,.02,0,.029,0h.015l.045,0h0l.042,0h.013l.031,0h.018l.028,0h.017l.03,0,.051,0h.01l.046,0h0l.043,0,.045,0h.014l.033,0,.047,0h.013l.044,0h0l.048,0h0l.042,0h.01l.035,0,.049,0h.01l.041,0h.005l.094-.007h.006l.041,0h.007l.04,0h.009l.041,0h0L112.9.334h0l.044,0h.005l.042,0H113l.045,0h0l.144-.01h0l.044,0h0l.043,0h0l.191-.013h0l.046,0h0l.241-.016h0l.29-.019h0q.826-.053,1.653-.095h0q.975-.049,1.952-.083h0l.537-.018h.051l.194-.006h.1l.193-.005h.1l.145,0h.148l.145,0h.148l.1,0h.15l.149,0h.139l.1,0h.787c.016,0,.032,0,.048,0H122Z" fill="#ffffff69"/></svg>