<svg xmlns="http://www.w3.org/2000/svg" width="301" height="301" viewBox="0 0 301 301"><g transform="translate(-535.473 -304.473)"><path d="M150,63a87,87,0,1,0,87,87,87.1,87.1,0,0,0-87-87m0-63A150,150,0,1,1,0,150,150,150,0,0,1,150,0Z" transform="translate(535.473 304.473)"/><g transform="translate(535.473 304.473)"><path d="M153,301h-5V240.659a90.708,90.708,0,0,1-15.674-1.8,89.714,89.714,0,0,1-32.255-13.573,90.834,90.834,0,0,1-11.554-9.269L45.848,258.687l-3.535-3.536,42.668-42.668A90.3,90.3,0,0,1,67.4,185.608a89.756,89.756,0,0,1-5.257-16.934A90.708,90.708,0,0,1,60.341,153H0v-5H60.341a90.708,90.708,0,0,1,1.8-15.674A89.714,89.714,0,0,1,75.712,100.07a90.833,90.833,0,0,1,9.269-11.554L42.313,45.848l3.535-3.535L88.516,84.981A90.3,90.3,0,0,1,115.392,67.4a89.756,89.756,0,0,1,16.934-5.257A90.708,90.708,0,0,1,148,60.341V0h5V60.341a90.708,90.708,0,0,1,15.674,1.8A89.714,89.714,0,0,1,200.93,75.712a90.834,90.834,0,0,1,11.554,9.269l42.668-42.668,3.536,3.535L216.019,88.516A90.3,90.3,0,0,1,233.6,115.392a89.757,89.757,0,0,1,5.257,16.934,90.708,90.708,0,0,1,1.8,15.674H301v5H240.659a90.708,90.708,0,0,1-1.8,15.674,89.714,89.714,0,0,1-13.573,32.255,90.834,90.834,0,0,1-9.269,11.554l42.668,42.668-3.536,3.536-42.668-42.668A90.3,90.3,0,0,1,185.608,233.6a89.757,89.757,0,0,1-16.934,5.257,90.708,90.708,0,0,1-15.674,1.8Zm-2.5-65.307a85.194,85.194,0,1,0-60.241-24.953A84.635,84.635,0,0,0,150.5,235.693Z" fill="red"/></g></g></svg>